SplineFontDB: 3.0
FontName: grelaon
FullName: grelaon
FamilyName: grelaon
Weight: Book

StartChar: bv
Encoding: 58368 58368 1
Width: 1142
VWidth: 0
Flags: W
LayerCount: 2
Fore
SplineSet
595.583 194 m 24,0,1
 580.048 215.75 580.048 215.75 589.583 235 c 24,2,3
 694.577 446.955 694.577 446.955 755.583 517 c 0,4,5
 786.674 553.643 786.674 553.643 823.583 514 c 0,6,7
 874.078 466.806 874.078 466.806 913.583 482 c 0,8,9
 972.778 529.499 972.778 529.499 995 568 c 0,10,11
 1010.58 595 1010.58 595 1003.58 550 c 0,12,13
 993.599 497.135 993.599 497.135 896.583 406 c 0,14,15
 847.698 360.077 847.698 360.077 779.583 399 c 0,16,17
 739.862 421.068 739.862 421.068 716.583 391 c 0,18,19
 690.583 356 690.583 356 614.583 200 c 24,20,21
 604.674 181.274 604.674 181.274 595.583 194 c 24,0,1
31.5835 14 m 24,22,23
 20.477 22.1448 20.477 22.1448 32.5835 44 c 24,24,25
 262.031 458.208 262.031 458.208 298.583 496 c 24,26,27
 354.139 551.556 354.139 551.556 398.583 516 c 0,28,29
 444.139 479.556 444.139 479.556 472.583 508 c 0,30,31
 494.583 530 494.583 530 559.583 638 c 0,32,33
 578.867 671.574 578.867 671.574 568.583 623 c 0,34,35
 528.622 534.902 528.622 534.902 406.583 421 c 0,36,37
 378.262 394.632 378.262 394.632 323.583 417 c 0,38,39
 301.539 426.018 301.539 426.018 278.583 396 c 0,40,41
 231.583 334 231.583 334 47.5835 33 c 24,42,43
 34.1033 12.1521 34.1033 12.1521 31.5835 14 c 24,22,23
EndSplineSet
Validated: 33
Comment: "bivirga" 
EndChar

StartChar: bvlsa2
Encoding: 58369 58369 2
Width: 1278
VWidth: 0
Flags: W
LayerCount: 2
Fore
SplineSet
714 784 m 0,0,1
 695.102 747.818 695.102 747.818 580 727 c 24,2,3
 519.339 718.431 519.339 718.431 552 796 c 0,4,5
 579.232 860.074 579.232 860.074 688 904 c 0,6,7
 737.975 923.801 737.975 923.801 742.988 939.401 c 0,8,9
 755.5 978.341 755.5 978.341 723 968 c 0,10,11
 703.105 962.316 703.105 962.316 681 966 c 0,12,13
 669 968 669 968 725 1020 c 24,14,15
 800.432 1086.45 800.432 1086.45 841 1001 c 0,16,17
 885.231 908.773 885.231 908.773 935 897 c 0,18,19
 1012.53 878.854 1012.53 878.854 1061 909 c 0,20,21
 1148.05 954.941 1148.05 954.941 1085 897 c 0,22,23
 1009 829 1009 829 936 803 c 24,24,25
 889.597 788.236 889.597 788.236 811 824 c 24,26,27
 753.47 850.177 753.47 850.177 747 889 c 0,28,29
 744.356 907.508 744.356 907.508 719 898 c 0,30,31
 693.623 887.551 693.623 887.551 685 874 c 0,32,33
 655.917 830.376 655.917 830.376 682 817 c 0,34,35
 722 796 722 796 714 784 c 0,0,1
705 117 m 24,36,37
 698.638 128.663 698.638 128.663 709 145 c 24,38,39
 855.088 375.339 855.088 375.339 894 415 c 24,40,41
 937.289 459.121 937.289 459.121 969 410 c 0,42,43
 1014.47 337.245 1014.47 337.245 1073 347 c 0,44,45
 1091 350 1091 350 1138 413 c 24,46,47
 1166.28 421.04 1166.28 421.04 1154 406 c 0,48,49
 1046 272 1046 272 1008 260 c 24,50,51
 930.274 233.536 930.274 233.536 892 275 c 0,52,53
 864.615 304.667 864.615 304.667 839 280 c 0,54,55
 806 249 806 249 721 123 c 24,56,57
 710.12 107.612 710.12 107.612 705 117 c 24,36,37
21 24 m 0,58,59
 2.51876 22.1225 2.51876 22.1225 28 60 c 0,60,61
 143 223 143 223 300 372 c 24,62,63
 355.663 423.797 355.663 423.797 391 373 c 0,64,65
 446.909 294.961 446.909 294.961 496 316 c 0,66,67
 556.583 342.341 556.583 342.341 593 385 c 0,68,69
 702 507 702 507 623 396 c 24,70,71
 505.752 227.92 505.752 227.92 439 215 c 0,72,73
 343.58 196.532 343.58 196.532 318 255 c 0,74,75
 304.738 285.312 304.738 285.312 252 263 c 0,76,77
 185.816 217.775 185.816 217.775 42 42 c 0,78,79
 28.8857 25.9714 28.8857 25.9714 21 24 c 0,58,59
EndSplineSet
Validated: 33
Comment: "bivirga cum augete" 
EndChar

StartChar: bvsun4
Encoding: 58370 58370 3
Width: 1175
VWidth: 0
Flags: W
LayerCount: 2
Fore
SplineSet
409 -1823 m 24,0,1
 400.147 -1815.62 400.147 -1815.62 410 -1805 c 24,2,3
 618.017 -1580.75 618.017 -1580.75 691 -1519 c 24,4,5
 731.903 -1484.39 731.903 -1484.39 748 -1519 c 0,6,7
 766.666 -1559.13 766.666 -1559.13 795 -1566 c 0,8,9
 835 -1577 835 -1577 876 -1550 c 24,10,11
 884.198 -1545.77 884.198 -1545.77 888 -1555 c 24,12,13
 834.902 -1609.62 834.902 -1609.62 806 -1622 c 24,14,15
 745.713 -1647.83 745.713 -1647.83 726.989 -1623.99 c 0,16,17
 706 -1595 706 -1595 686 -1588 c 24,18,19
 676.977 -1583.56 676.977 -1583.56 659 -1594 c 0,20,21
 619 -1615 619 -1615 422 -1815 c 24,22,23
 411.234 -1824.86 411.234 -1824.86 409 -1823 c 24,0,1
432 -1368 m 24,24,25
 422.692 -1359.31 422.692 -1359.31 432 -1347 c 24,26,27
 623.362 -1093.86 623.362 -1093.86 686 -1032 c 24,28,29
 717.171 -1001.22 717.171 -1001.22 754 -1029 c 0,30,31
 809.958 -1071.21 809.958 -1071.21 852 -1053 c 0,32,33
 882.841 -1039.64 882.841 -1039.64 927 -1001 c 24,34,35
 962.009 -982.059 962.009 -982.059 941 -1002 c 24,36,37
 840.811 -1097.09 840.811 -1097.09 798.406 -1121.55 c 128,-1,38
 756 -1146 756 -1146 724 -1115 c 24,39,40
 697.702 -1088.82 697.702 -1088.82 669 -1096 c 0,41,42
 665.812 -1094.19 665.812 -1094.19 646 -1114 c 0,43,44
 606 -1154 606 -1154 447 -1361 c 24,45,46
 437.096 -1372.76 437.096 -1372.76 432 -1368 c 24,24,25
460 -903 m 24,47,48
 451.209 -894.209 451.209 -894.209 459 -884 c 24,49,50
 631.61 -657.822 631.61 -657.822 692 -599 c 24,51,52
 732.999 -559.066 732.999 -559.066 767 -584 c 0,53,54
 797.472 -618.962 797.472 -618.962 878 -597 c 0,55,56
 889 -594 889 -594 925.5 -556.5 c 0,57,58
 967.868 -522.519 967.868 -522.519 942 -559 c 0,59,60
 903.646 -613.09 903.646 -613.09 808 -666 c 0,61,62
 761 -692 761 -692 726 -667 c 24,63,64
 699.902 -650.222 699.902 -650.222 680 -664 c 0,65,66
 667 -673 667 -673 658 -684 c 0,67,68
 481.238 -887.462 481.238 -887.462 470 -895 c 24,69,70
 461.453 -904.453 461.453 -904.453 460 -903 c 24,47,48
543 -330 m 24,71,72
 538.31 -320.62 538.31 -320.62 552 -303 c 24,73,74
 718.562 -88.6288 718.562 -88.6288 759 -52 c 24,75,76
 803.572 -29.5688 803.572 -29.5688 828 -53 c 0,77,78
 877 -100 877 -100 916 -37 c 24,79,80
 943.53 -27.5673 943.53 -27.5673 931 -44 c 24,81,82
 875 -124 875 -124 836 -138 c 0,83,84
 788.639 -155.366 788.639 -155.366 767 -135 c 0,85,86
 751.558 -119.558 751.558 -119.558 728 -131 c 0,87,88
 684 -153 684 -153 555 -328 c 24,89,-1
 543 -330 l 24,71,72
611 173 m 24,90,91
 606.532 181.298 606.532 181.298 615 194 c 24,92,93
 775.571 434.857 775.571 434.857 813 476 c 24,94,95
 846.955 513.324 846.955 513.324 877 482 c 0,96,97
 917.304 439.068 917.304 439.068 971 451 c 0,98,99
 989 455 989 455 1039 508 c 24,100,101
 1055.32 512.233 1055.32 512.233 1049 505 c 0,102,103
 968 398 968 398 933 390 c 0,104,105
 855.276 369.771 855.276 369.771 832 402 c 0,106,107
 815.108 428.322 815.108 428.322 788 416 c 24,108,109
 777 411 777 411 772 407 c 0,110,111
 755 387 755 387 622 181 c 24,112,-1
 611 173 l 24,90,91
58 32 m 24,113,114
 48.9849 46.5629 48.9849 46.5629 67 70 c 24,115,116
 272.681 337.585 272.681 337.585 367 434 c 24,117,118
 413.508 481.542 413.508 481.542 427 438 c 0,119,120
 448.807 367.624 448.807 367.624 499 380 c 0,121,122
 499.94 381.62 499.94 381.62 534 408 c 24,123,124
 556.117 423.477 556.117 423.477 540 399 c 0,125,126
 490.228 323.411 490.228 323.411 441 310 c 0,127,128
 387.696 295.478 387.696 295.478 369 331 c 0,129,130
 356.76 354.255 356.76 354.255 314 334 c 0,131,132
 295 325 295 325 80 49 c 0,133,-1
 58 32 l 24,113,114
EndSplineSet
Validated: 2081
EndChar

StartChar: ci
Encoding: 58371 58371 4
Width: 366
VWidth: 0
Flags: W
LayerCount: 2
Fore
SplineSet
89 -918 m 24,0,1
 141.661 -860.951 141.661 -860.951 183 -890 c 24,2,3
 215.661 -912.951 215.661 -912.951 163 -970 c 24,4,5
 119.661 -1016.95 119.661 -1016.95 87 -994 c 24,6,7
 45.6608 -964.951 45.6608 -964.951 89 -918 c 24,0,1
111 -352 m 24,8,9
 60.2473 -326.106 60.2473 -326.106 105 -264 c 24,10,11
 158.247 -190.106 158.247 -190.106 209 -216 c 24,12,13
 256.247 -240.106 256.247 -240.106 203 -314 c 24,14,15
 158.247 -376.106 158.247 -376.106 111 -352 c 24,8,9
125 120 m 24,16,17
 76.2794 155.525 76.2794 155.525 127 216 c 24,18,19
 180.279 279.525 180.279 279.525 229 244 c 24,20,21
 276.279 209.525 276.279 209.525 223 146 c 24,22,23
 172.279 85.5254 172.279 85.5254 125 120 c 24,16,17
EndSplineSet
Validated: 33
Comment: "climacus" 
EndChar

StartChar: cilsf1
Encoding: 58372 58372 5
Width: 622
VWidth: 0
Flags: W
LayerCount: 2
Fore
SplineSet
363 -948 m 24,0,1
 308.495 -894.505 308.495 -894.505 351 -852 c 24,2,3
 398.495 -804.505 398.495 -804.505 453 -858 c 24,4,5
 506.495 -910.505 506.495 -910.505 459 -958 c 24,6,7
 416.495 -1000.5 416.495 -1000.5 363 -948 c 24,0,1
395 -352 m 24,8,9
 349.358 -312.878 349.358 -312.878 389 -270 c 24,10,11
 447.358 -206.878 447.358 -206.878 493 -246 c 24,12,13
 531.358 -278.878 531.358 -278.878 473 -342 c 24,14,15
 433.358 -384.878 433.358 -384.878 395 -352 c 24,8,9
399 58 m 24,16,17
 340.937 83.0468 340.937 83.0468 377 138 c 24,18,19
 424.937 211.047 424.937 211.047 483 186 c 24,20,21
 526.937 167.047 526.937 167.047 479 94 c 24,22,23
 442.937 39.0468 442.937 39.0468 399 58 c 24,16,17
55 64 m 24,24,25
 13.8997 35.6133 13.8997 35.6133 23 154 c 0,26,27
 36.8211 333.799 36.8211 333.799 31 340 c 0,28,29
 10.1067 362.64 10.1067 362.64 13 380 c 0,30,31
 10.9148 381.852 10.9148 381.852 42 450 c 0,32,33
 68 507 68 507 87 580 c 24,34,35
 109.901 661.458 109.901 661.458 197 720 c 24,36,37
 243.862 758.592 243.862 758.592 257 720 c 0,38,39
 276.362 660.703 276.362 660.703 247 624 c 0,40,41
 231 604 231 604 210.5 631.5 c 0,42,43
 193.913 653.751 193.913 653.751 175 652 c 0,44,45
 159.551 650.57 159.551 650.57 143 628 c 0,46,47
 123.132 600.908 123.132 600.908 121 554 c 0,48,49
 118.679 513.375 118.679 513.375 167 498 c 0,50,51
 185.012 492.269 185.012 492.269 291 494 c 24,52,53
 379.146 495.44 379.146 495.44 291 438 c 0,54,55
 213.464 386.603 213.464 386.603 141 391 c 0,56,57
 82.8526 394.535 82.8526 394.535 87 344 c 0,58,59
 100.617 178.084 100.617 178.084 97 160 c 0,60,61
 79.7333 81.7241 79.7333 81.7241 55 64 c 24,24,25
EndSplineSet
Validated: 33
Comment: "climacus cum fastigium" 
EndChar

StartChar: cilsn8
Encoding: 58373 58373 6
Width: 516
VWidth: 0
Flags: W
LayerCount: 2
Fore
SplineSet
17 -1084 m 24,0,1
 0 -1090 0 -1090 101 -968 c 4,2,3
 143.023 -918.598 143.023 -918.598 157 -978 c 0,4,5
 165 -1012 165 -1012 189 -1024.5 c 0,6,7
 226.663 -1042.03 226.663 -1042.03 247 -1020 c 0,8,9
 258 -1007 258 -1007 277 -972 c 24,10,11
 316.995 -894.884 316.995 -894.884 333 -972 c 0,12,13
 350.865 -1067.82 350.865 -1067.82 351 -1068 c 0,14,15
 355 -1078 355 -1078 379 -1090 c 24,16,17
 411.598 -1108.48 411.598 -1108.48 377 -1150 c 0,18,19
 334.744 -1199.65 334.744 -1199.65 293 -1208 c 0,20,21
 276.449 -1211.31 276.449 -1211.31 283 -1166 c 0,22,23
 294.012 -1089.83 294.012 -1089.83 287 -1078 c 0,24,25
 271 -1051 271 -1051 255 -1050 c 24,26,27
 211.411 -1044.31 211.411 -1044.31 195 -1066 c 0,28,29
 159.855 -1092 159.855 -1092 145 -1118 c 0,30,31
 109.64 -1180.56 109.64 -1180.56 89 -1184 c 0,32,33
 73.177 -1186.64 73.177 -1186.64 75 -1152 c 0,34,35
 78 -1095 78 -1095 75 -1080 c 24,36,37
 71.5502 -1051.04 71.5502 -1051.04 53 -1062 c 0,38,39
 26.6211 -1081.59 26.6211 -1081.59 17 -1084 c 24,0,1
237 -704 m 24,40,41
 177.81 -687.427 177.81 -687.427 215 -604 c 24,42,43
 251.81 -521.427 251.81 -521.427 311 -538 c 24,44,45
 351.81 -549.427 351.81 -549.427 315 -632 c 24,46,47
 277.81 -715.427 277.81 -715.427 237 -704 c 24,40,41
233 -284 m 24,48,49
 177.787 -251.323 177.787 -251.323 221 -194 c 24,50,51
 275.787 -121.323 275.787 -121.323 331 -154 c 24,52,53
 373.787 -179.323 373.787 -179.323 319 -252 c 24,54,55
 275.787 -309.323 275.787 -309.323 233 -284 c 24,48,49
221 120 m 24,56,57
 163.417 163.459 163.417 163.459 219 236 c 24,58,59
 281.417 317.459 281.417 317.459 339 274 c 24,60,61
 387.417 237.459 387.417 237.459 325 156 c 24,62,63
 269.417 83.4591 269.417 83.4591 221 120 c 24,56,57
EndSplineSet
Validated: 33
Comment: "climacus cum non tenere" 
EndChar

StartChar: cl
Encoding: 58374 58374 7
Width: 658
VWidth: 0
Flags: W
LayerCount: 2
Fore
SplineSet
49 904 m 24,0,1
 23.8545 904.987 23.8545 904.987 31 940 c 24,2,3
 38.5137 976.815 38.5137 976.815 69 1002 c 24,4,5
 90.2358 1019.54 90.2358 1019.54 123 1016 c 0,6,7
 144.881 1008 144.881 1008 213 1008 c 0,8,9
 243 1008 243 1008 273 1032 c 0,10,11
 297.615 1051.69 297.615 1051.69 419 1254 c 0,12,13
 437 1284 437 1284 521 1302 c 24,14,15
 534.621 1304.72 534.621 1304.72 531 1238 c 0,16,17
 481.683 389.406 481.683 389.406 463 304 c 24,18,19
 407 48 407 48 309 22 c 0,20,21
 291.947 3.92875 291.947 3.92875 325 48 c 0,22,23
 369.183 82.089 369.183 82.089 379 194 c 0,24,25
 397 422 397 422 421 1092 c 0,26,27
 421.185 1133.53 421.185 1133.53 405 1140 c 0,28,29
 388.513 1146.59 388.513 1146.59 371 1132 c 0,30,31
 359 1122 359 1122 297 984 c 24,32,33
 271.669 930.683 271.669 930.683 223 920 c 0,34,35
 139 902 139 902 49 904 c 24,0,1
EndSplineSet
Validated: 33
Comment: "clivis" 
EndChar

StartChar: clB
Encoding: 58375 58375 8
Width: 993
VWidth: 0
Flags: W
LayerCount: 2
Fore
SplineSet
60 -1077 m 24,0,1
 38.7933 -1072.19 38.7933 -1072.19 90 -1038 c 0,2,3
 404 -831 404 -831 561 -608 c 24,4,5
 592.386 -565.423 592.386 -565.423 577 -530 c 24,6,7
 569.5 -512.732 569.5 -512.732 518 -509 c 24,8,9
 483.476 -506.498 483.476 -506.498 439 -520 c 0,10,11
 321 -554 321 -554 284 -626 c 24,12,13
 256.961 -668.452 256.961 -668.452 267 -681 c 0,14,15
 276 -693 276 -693 306.5 -694 c 128,-1,16
 337 -695 337 -695 301 -725 c 24,17,18
 234.276 -777.275 234.276 -777.275 192 -750 c 24,19,20
 152.585 -724.571 152.585 -724.571 208 -665 c 24,21,22
 326.896 -537.186 326.896 -537.186 472 -449 c 24,23,24
 564.054 -393.054 564.054 -393.054 621 -414 c 24,25,26
 685.622 -437.769 685.622 -437.769 646 -513 c 0,27,28
 567 -667 567 -667 395 -828 c 24,29,30
 290.101 -931.599 290.101 -931.599 81 -1071 c 0,31,32
 75 -1075 75 -1075 60 -1077 c 24,0,1
301 50 m 0,33,34
 283.909 55.7682 283.909 55.7682 318 95 c 24,35,36
 531.247 334.219 531.247 334.219 613 400 c 24,37,38
 684.418 457.465 684.418 457.465 707 408 c 128,-1,39
 729.538 358.631 729.538 358.631 751 358 c 0,40,41
 816.088 356.086 816.088 356.086 851.044 388.543 c 128,-1,42
 886 421 886 421 861 376 c 16,43,44
 829.863 319.953 829.863 319.953 725 284 c 0,45,46
 679.044 268.244 679.044 268.244 660 298 c 0,47,48
 647.291 318.185 647.291 318.185 606 321 c 0,49,50
 601.757 321.289 601.757 321.289 570 311 c 0,51,52
 452.634 211.816 452.634 211.816 325 70 c 24,53,54
 307 50 307 50 301 50 c 0,33,34
EndSplineSet
Validated: 33
Comment: "clivis liquescent" 
EndChar

StartChar: clB1
Encoding: 58376 58376 9
Width: 720
VWidth: 0
Flags: W
LayerCount: 2
Fore
SplineSet
125 1102 m 24,0,1
 99.9758 1114.46 99.9758 1114.46 113 1152 c 4,2,3
 130 1200 130 1200 155 1214 c 28,4,5
 185.725 1229.12 185.725 1229.12 239 1214 c 0,6,7
 313 1193 313 1193 349.42 1193.1 c 0,8,9
 371.664 1193.24 371.664 1193.24 435 1224 c 0,10,11
 471 1242 471 1242 529 1318 c 24,12,13
 566.042 1344.24 566.042 1344.24 579 1326 c 24,14,15
 595.386 1302.94 595.386 1302.94 583 1242 c 0,16,17
 503.074 879.259 503.074 879.259 479 730 c 0,18,19
 474 698 474 698 481 442 c 0,20,21
 488.113 125.568 488.113 125.568 247 20 c 0,22,23
 62 -61 62 -61 41 168 c 0,24,25
 34 246 34 246 153 348 c 24,26,27
 222.971 410.219 222.971 410.219 275 382 c 24,28,29
 311.005 362.472 311.005 362.472 271 284 c 24,30,31
 254.911 252.441 254.911 252.441 223 280 c 0,32,33
 201 299 201 299 183 300 c 24,34,35
 148.162 304.861 148.162 304.861 135 282 c 24,36,37
 96.1358 214.499 96.1358 214.499 107 168 c 24,38,39
 128.039 77.9544 128.039 77.9544 185 68 c 24,40,41
 255.54 55.6726 255.54 55.6726 313 132 c 24,42,43
 381 221 381 221 381 302 c 0,44,45
 382.383 380.457 382.383 380.457 365 484 c 24,46,47
 354.963 547.069 354.963 547.069 391 706 c 0,48,49
 471 1050 471 1050 477 1070 c 24,50,51
 500.697 1136.16 500.697 1136.16 467 1154 c 0,52,53
 441.39 1167.56 441.39 1167.56 411 1136 c 0,54,55
 346.046 1069.66 346.046 1069.66 271 1064 c 0,56,57
 218 1060 218 1060 125 1102 c 24,0,1
EndSplineSet
Validated: 33
Comment: "clivis liquescent" 
EndChar

StartChar: clB1pp2
Encoding: 58377 58377 10
Width: 1394
VWidth: 0
Flags: W
LayerCount: 2
Fore
SplineSet
529 576 m 24,0,1
 482.809 565.977 482.809 565.977 477 600 c 24,2,3
 476.205 604.657 476.205 604.657 515 658 c 0,4,5
 555.196 713.27 555.196 713.27 597 706 c 0,6,7
 645 698 645 698 725 748 c 0,8,9
 743.495 759.382 743.495 759.382 791 828 c 0,10,11
 829 882 829 882 999 1384 c 24,12,13
 1029.58 1446.85 1029.58 1446.85 1081 1424 c 24,14,15
 1098.02 1416.44 1098.02 1416.44 1107 1336 c 0,16,17
 1149 942 1149 942 1163 906 c 4,18,19
 1224.5 683.974 1224.5 683.974 1259 512 c 0,20,21
 1289 256 1289 256 1077 100 c 0,22,23
 993.207 36.7087 993.207 36.7087 847 56 c 24,24,25
 770.51 66.0926 770.51 66.0926 789 138 c 24,26,27
 809.184 216.495 809.184 216.495 919 336 c 24,28,29
 1018.98 444.805 1018.98 444.805 1061 434 c 24,30,31
 1100.73 423.785 1100.73 423.785 1059 300 c 24,32,33
 1039.04 240.784 1039.04 240.784 1001 256 c 0,34,35
 986.385 261.846 986.385 261.846 1003 284 c 0,36,37
 1024.52 312.69 1024.52 312.69 1003 330 c 0,38,39
 998.819 333.364 998.819 333.364 967 322 c 0,40,41
 943 314 943 314 877 248 c 0,42,43
 839.357 210.358 839.357 210.358 867 152 c 0,44,45
 893.448 96.165 893.448 96.165 979 106 c 0,46,47
 1050.28 114.194 1050.28 114.194 1117 168 c 0,48,49
 1177.46 216.759 1177.46 216.759 1209 342 c 0,50,51
 1228.08 417.754 1228.08 417.754 1179 606 c 0,52,53
 1060.48 1060.62 1060.48 1060.62 1053 1104 c 0,54,55
 1034.43 1215.43 1034.43 1215.43 1019 1236 c 0,56,57
 1009.86 1241.43 1009.86 1241.43 987 1230 c 0,58,59
 970.4 1217.1 970.4 1217.1 961 1170 c 0,60,61
 931.288 1006.58 931.288 1006.58 877 902 c 24,62,63
 796.283 746.5 796.283 746.5 689 646 c 24,64,65
 639.982 600.081 639.982 600.081 529 576 c 24,0,1
295 278 m 24,66,67
 230.429 313.873 230.429 313.873 255 352 c 24,68,69
 288.429 403.873 288.429 403.873 353 368 c 24,70,71
 396.429 343.873 396.429 343.873 363 292 c 24,72,73
 338.429 253.873 338.429 253.873 295 278 c 24,66,67
57 24 m 24,74,75
 5.66104 52.8219 5.66104 52.8219 43 102 c 24,76,77
 87.661 160.822 87.661 160.822 139 132 c 24,78,79
 201.661 96.8219 201.661 96.8219 157 38 c 24,80,81
 119.661 -11.1781 119.661 -11.1781 57 24 c 24,74,75
EndSplineSet
Validated: 33
EndChar

StartChar: clBlsa5
Encoding: 58378 58378 11
Width: 1094
VWidth: 0
Flags: W
LayerCount: 2
Fore
SplineSet
658 -39 m 24,0,1
 679.81 -52.2081 679.81 -52.2081 649 -70 c 24,2,3
 615.224 -89.5042 615.224 -89.5042 587 -80 c 24,4,5
 537.601 -63.3657 537.601 -63.3657 551 -37 c 0,6,7
 581.439 4.75246 581.439 4.75246 608 43 c 24,8,9
 631 78 631 78 701 87 c 0,10,11
 727.178 89.3289 727.178 89.3289 718 124 c 24,12,13
 715.401 139.7 715.401 139.7 700 132 c 0,14,15
 677.645 119.806 677.645 119.806 673 126 c 0,16,17
 669 130 669 130 686 141 c 0,18,19
 743 176 743 176 756 165 c 0,20,21
 795 125.66 795 125.66 795 80 c 0,22,23
 795 30.3 795 30.3 866 9 c 0,24,25
 879.096 5.07128 879.096 5.07128 959 0 c 0,26,27
 973.415 -0.914898 973.415 -0.914898 944 -19 c 0,28,29
 895.171 -47 895.171 -47 783 -47 c 0,30,31
 734.04 -47.0001 734.04 -47.0001 719 0 c 0,32,33
 710.37 26.9696 710.37 26.9696 693 37 c 24,34,35
 668.903 50.9154 668.903 50.9154 648 41 c 24,36,37
 623.913 29.574 623.913 29.574 615 0 c 24,38,39
 608.517 -21.5104 608.517 -21.5104 626 -32 c 0,40,41
 638 -39 638 -39 658 -39 c 24,0,1
281 -580 m 0,42,43
 209 -630 209 -630 155 -610 c 24,44,45
 92.8726 -584.885 92.8726 -584.885 159 -512 c 24,46,47
 280.819 -377.732 280.819 -377.732 429 -308 c 24,48,49
 519.312 -265.5 519.312 -265.5 567 -320 c 24,50,51
 605.539 -364.044 605.539 -364.044 555 -452 c 0,52,53
 270 -948 270 -948 -293 -1138 c 25,54,55
 349 -812 349 -812 473 -495 c 0,56,57
 493.413 -444.252 493.413 -444.252 483 -410 c 24,58,59
 474.729 -382.794 474.729 -382.794 435 -370 c 24,60,61
 395.667 -357.333 395.667 -357.333 365 -372 c 0,62,63
 286 -408 286 -408 251 -458 c 24,64,65
 214.667 -507.287 214.667 -507.287 237 -536 c 0,66,67
 244 -545 244 -545 291 -530 c 24,68,69
 355.144 -529.217 355.144 -529.217 281 -580 c 0,42,43
211 44 m 24,70,71
 199.494 50.9518 199.494 50.9518 230 84 c 24,72,73
 450.103 322.445 450.103 322.445 523 382 c 24,74,75
 583.48 431.411 583.48 431.411 607 392 c 0,76,77
 648.425 319.506 648.425 319.506 685 336 c 0,78,79
 734 357 734 357 753 380 c 0,80,81
 777.507 411.135 777.507 411.135 755 364 c 24,82,83
 667.625 276.625 667.625 276.625 629 256 c 24,84,85
 576.155 227.782 576.155 227.782 549 254 c 0,86,87
 520.039 284.034 520.039 284.034 501 288 c 0,88,89
 474.998 292.04 474.998 292.04 453 276 c 0,90,91
 345.037 190.444 345.037 190.444 233 56 c 0,92,93
 228 50 228 50 211 44 c 24,70,71
EndSplineSet
Validated: 33
Comment: "climacus liquescent cum augete" 
EndChar

StartChar: clG
Encoding: 58379 58379 12
Width: 656
VWidth: 0
Flags: W
LayerCount: 2
Fore
SplineSet
47 -883 m 0,0,1
 210.644 -621.307 210.644 -621.307 241 -582 c 0,2,3
 318 -485 318 -485 330 -563 c 0,4,5
 338.32 -623.115 338.32 -623.115 364 -624 c 0,6,7
 401.57 -626.188 401.57 -626.188 435 -581 c 24,8,9
 456.563 -571.479 456.563 -571.479 441 -590 c 24,10,11
 360.677 -685.593 360.677 -685.593 342.987 -690.506 c 0,12,13
 298.981 -702.726 298.981 -702.726 284 -684 c 0,14,15
 270.979 -667.724 270.979 -667.724 239 -677 c 0,16,17
 206.579 -688.76 206.579 -688.76 196 -707 c 0,18,19
 168 -761 168 -761 61 -876 c 0,20,21
 40.4001 -892.706 40.4001 -892.706 47 -883 c 0,0,1
67 78 m 0,22,23
 141 235 141 235 269 470 c 24,24,25
 297.325 521.944 297.325 521.944 347 508 c 0,26,27
 384.78 497.696 384.78 497.696 419 516 c 0,28,29
 442.345 528.969 442.345 528.969 509 650 c 0,30,31
 547 719 547 719 521 634 c 24,32,33
 493.834 550.332 493.834 550.332 409 450 c 24,34,35
 350.919 381.308 350.919 381.308 313 388 c 0,36,37
 279 394 279 394 263 384 c 24,38,39
 246.906 376.235 246.906 376.235 237 360 c 0,40,41
 88.119 102.476 88.119 102.476 85 90 c 0,42,43
 60.637 63.0163 60.637 63.0163 67 78 c 0,22,23
EndSplineSet
Validated: 33
EndChar

StartChar: clG1
Encoding: 58380 58380 13
Width: 837
VWidth: 0
Flags: W
LayerCount: 2
Fore
SplineSet
49 -885 m 24,0,1
 33.4089 -882.538 33.4089 -882.538 49 -864 c 0,2,3
 251.797 -615.703 251.797 -615.703 333 -501 c 24,4,5
 368.483 -450.878 368.483 -450.878 394 -501 c 0,6,7
 424.248 -560.416 424.248 -560.416 456 -571 c 0,8,9
 498.167 -584.493 498.167 -584.493 536 -564 c 0,10,11
 600.344 -529.147 600.344 -529.147 637 -489 c 0,12,13
 749.331 -367.418 749.331 -367.418 651 -501 c 0,14,15
 593.893 -578.579 593.893 -578.579 485 -637 c 24,16,17
 443.374 -659.332 443.374 -659.332 377 -648 c 24,18,19
 335.749 -640.957 335.749 -640.957 321 -609 c 0,20,21
 314.575 -596.149 314.575 -596.149 286 -601 c 0,22,23
 272.126 -603.732 272.126 -603.732 261 -623 c 0,24,25
 217 -698 217 -698 68 -867 c 24,26,27
 52.9327 -885.621 52.9327 -885.621 49 -885 c 24,0,1
63 46 m 24,28,29
 52.9374 57.0688 52.9374 57.0688 64 67 c 0,30,31
 161 146 161 146 282 334 c 24,32,33
 363.641 431.292 363.641 431.292 377 440 c 24,34,35
 425.603 471.684 425.603 471.684 440 437 c 0,36,37
 461.389 384.922 461.389 384.922 485 375 c 0,38,39
 521.268 359.758 521.268 359.758 543 376 c 0,40,41
 632.512 443.655 632.512 443.655 689 552 c 0,42,43
 750 670 750 670 705 546 c 0,44,45
 655.644 414.656 655.644 414.656 489 299 c 24,46,47
 429.249 255.47 429.249 255.47 394 301 c 0,48,49
 367.6 336.2 367.6 336.2 356 342 c 0,50,51
 329.562 354.338 329.562 354.338 321 344 c 0,52,53
 221.896 206.779 221.896 206.779 113 81 c 24,54,55
 89.172 53.4777 89.172 53.4777 63 46 c 24,28,29
EndSplineSet
Validated: 33
EndChar

StartChar: clGlsa5
Encoding: 58381 58381 14
Width: 680
VWidth: 0
Flags: W
LayerCount: 2
Fore
SplineSet
33 -966 m 24,0,1
 57.0095 -928.709 57.0095 -928.709 95 -889 c 24,2,3
 199.09 -780.203 199.09 -780.203 232 -758 c 24,4,5
 286.262 -721.393 286.262 -721.393 304 -748 c 0,6,7
 334.305 -793.458 334.305 -793.458 352 -791 c 0,8,9
 383.416 -788.307 383.416 -788.307 401 -759 c 0,10,11
 437 -700 437 -700 433 -772 c 24,12,13
 430.914 -816.619 430.914 -816.619 358 -869 c 24,14,15
 317.183 -898.322 317.183 -898.322 259 -897 c 0,16,17
 219.007 -896.091 219.007 -896.091 210 -871 c 0,18,19
 202.41 -853.067 202.41 -853.067 172 -861 c 4,20,21
 148 -867 148 -867 120 -891 c 0,22,23
 93.2955 -911.181 93.2955 -911.181 48 -962 c 24,24,-1
 33 -966 l 24,0,1
343 -367 m 24,25,26
 275.872 -414.453 275.872 -414.453 221 -427 c 24,27,28
 104.246 -453.698 104.246 -453.698 50 -434 c 24,29,30
 6.1003 -418.059 6.1003 -418.059 42 -362 c 24,31,32
 87.6061 -290.784 87.6061 -290.784 180 -231 c 24,33,34
 225.981 -201.248 225.981 -201.248 280 -208 c 0,35,36
 296 -210 296 -210 295 -181 c 24,37,38
 295.827 -162.253 295.827 -162.253 286 -155 c 24,39,40
 266.78 -140.814 266.78 -140.814 253 -150 c 0,41,42
 243 -157 243 -157 215 -161 c 24,43,44
 203.779 -163.95 203.779 -163.95 218 -143 c 24,45,46
 257.283 -100.034 257.283 -100.034 279 -91 c 24,47,48
 327.313 -70.9016 327.313 -70.9016 343 -91 c 0,49,50
 375.399 -133.851 375.399 -133.851 375 -159 c 24,51,52
 374.095 -216 374.095 -216 426 -216 c 0,53,54
 453.115 -216 453.115 -216 503 -171 c 0,55,56
 565.37 -116.362 565.37 -116.362 550 -167 c 0,57,58
 530.983 -229.652 530.983 -229.652 443 -287 c 24,59,60
 405.91 -311.175 405.91 -311.175 345 -309 c 0,61,62
 294.68 -307.52 294.68 -307.52 275 -278 c 0,63,64
 252.296 -247.767 252.296 -247.767 248 -245 c 24,65,66
 236.137 -237.359 236.137 -237.359 216 -240 c 24,67,68
 195.07 -242.745 195.07 -242.745 187 -253 c 24,69,70
 165.677 -280.097 165.677 -280.097 168 -301 c 24,71,72
 172.149 -338.34 172.149 -338.34 197 -343 c 0,73,74
 245 -354 245 -354 292 -345 c 0,75,76
 318.403 -340.601 318.403 -340.601 340 -346 c 0,77,78
 363 -351 363 -351 343 -367 c 24,25,26
58 69 m 24,79,80
 52.6133 77.0801 52.6133 77.0801 63 94 c 24,81,82
 215.424 342.304 215.424 342.304 244 372 c 0,83,84
 313.504 440.263 313.504 440.263 342 403 c 0,85,86
 373.178 362.229 373.178 362.229 407 372 c 0,87,88
 424.981 377.195 424.981 377.195 491 517 c 0,89,90
 530.341 557.42 530.341 557.42 520 526 c 0,91,92
 492 447 492 447 426 321 c 24,93,94
 405.575 284.915 405.575 284.915 311 266 c 0,95,96
 290.408 261.882 290.408 261.882 270 286 c 0,97,98
 263.511 295.204 263.511 295.204 233 283 c 0,99,100
 228.007 286.972 228.007 286.972 207 261 c 0,101,102
 138 176 138 176 72 77 c 24,103,-1
 58 69 l 24,79,80
EndSplineSet
Validated: 33
EndChar

StartChar: clGlsnl2
Encoding: 58382 58382 15
Width: 820
VWidth: 0
Flags: W
LayerCount: 2
Fore
SplineSet
451 536 m 24,0,1
 402.896 524.453 402.896 524.453 407 558 c 0,2,3
 421.748 628.359 421.748 628.359 457 928 c 0,4,5
 461.893 969.589 461.893 969.589 447 982 c 0,6,7
 436.091 991.091 436.091 991.091 421 976 c 0,8,9
 414 969 414 969 393 950 c 24,10,11
 350.185 924.392 350.185 924.392 379 972 c 0,12,13
 425 1048 425 1048 447 1084 c 24,14,15
 484.891 1141.86 484.891 1141.86 505 1088 c 24,16,17
 521.907 1042.71 521.907 1042.71 503 934 c 0,18,19
 462.272 710.965 462.272 710.965 463 668 c 0,20,21
 463 596.667 463 596.667 483 590 c 0,22,23
 514.321 580.865 514.321 580.865 561 606 c 0,24,25
 618.89 629.906 618.89 629.906 575.945 593.953 c 128,-1,26
 533 558 533 558 451 536 c 24,0,1
51 532 m 24,27,28
 12.9869 491.353 12.9869 491.353 27 554 c 0,29,30
 47.0694 643.722 47.0694 643.722 43 660 c 0,31,32
 42 665 42 665 37 678 c 24,33,34
 31.9913 697.531 31.9913 697.531 39 706 c 24,35,36
 60.0193 731.398 60.0193 731.398 85 736 c 24,37,38
 106.449 739.951 106.449 739.951 115 720 c 0,39,40
 120.739 706.609 120.739 706.609 163 716 c 0,41,42
 171.678 717.928 171.678 717.928 191 744 c 24,43,44
 203.772 763.511 203.772 763.511 243 733 c 0,45,46
 261 719 261 719 257 656 c 24,47,48
 254.79 602.301 254.79 602.301 261 586 c 0,49,50
 268.032 567.541 268.032 567.541 257 558 c 0,51,52
 221 525 221 525 205 524 c 24,53,54
 176.467 519.618 176.467 519.618 187 542 c 0,55,56
 203 576 203 576 203 596 c 24,57,58
 205.831 641.545 205.831 641.545 193 664 c 24,59,60
 183.43 680.748 183.43 680.748 155 680 c 24,61,62
 119.846 679.075 119.846 679.075 117 662 c 0,63,64
 110.799 616.525 110.799 616.525 101 606 c 0,65,66
 73 578 73 578 51 532 c 24,27,28
77 -616 m 24,67,68
 69.9706 -605.846 69.9706 -605.846 81 -594 c 0,69,70
 240 -439 240 -439 293 -384 c 24,71,72
 335.531 -343.225 335.531 -343.225 369 -370 c 0,73,74
 401.556 -395.897 401.556 -395.897 431 -398 c 0,75,76
 473 -402 473 -402 511 -374 c 24,77,78
 552.672 -363.367 552.672 -363.367 511 -410 c 0,79,80
 468 -457 468 -457 399 -474 c 24,81,82
 347.445 -487.157 347.445 -487.157 335 -466 c 0,83,84
 328.333 -454.667 328.333 -454.667 311 -448 c 0,85,86
 295.645 -441.677 295.645 -441.677 271 -454 c 0,87,88
 229 -473 229 -473 111 -596 c 24,89,90
 90.27 -616.885 90.27 -616.885 77 -616 c 24,67,68
131 54 m 24,91,92
 119.43 62.6774 119.43 62.6774 129 76 c 24,93,94
 277.947 283.358 277.947 283.358 335 338 c 24,95,96
 396.941 397.324 396.941 397.324 413 348 c 0,97,98
 425.165 310.636 425.165 310.636 447 294 c 0,99,100
 468 278 468 278 509 302 c 0,101,102
 573.366 334.788 573.366 334.788 647 434 c 0,103,104
 681.232 479.057 681.232 479.057 681 440 c 0,105,106
 673.819 399.586 673.819 399.586 517 266 c 24,107,108
 458.438 217.986 458.438 217.986 387 208 c 24,109,110
 331 200.172 331 200.172 331 240 c 0,111,112
 331 258.667 331 258.667 303 254 c 0,113,114
 295.153 252.879 295.153 252.879 277 234 c 0,115,116
 226 182 226 182 145 64 c 24,117,118
 134.661 51.2539 134.661 51.2539 131 54 c 24,91,92
EndSplineSet
Validated: 33
EndChar

StartChar: cllshn8
Encoding: 58383 58383 16
Width: 936
VWidth: 0
Flags: W
LayerCount: 2
Fore
SplineSet
547 -262 m 24,0,1
 521.595 -262 521.595 -262 537 -232 c 0,2,3
 575 -159 575 -159 579 -126 c 24,4,5
 583.304 -85.3049 583.304 -85.3049 577 -50 c 0,6,7
 572 -22 572 -22 549 -10 c 24,8,9
 520.023 2.89247 520.023 2.89247 571 48 c 24,10,11
 615.378 87.2686 615.378 87.2686 628.045 59.9453 c 0,12,13
 648.239 19.8658 648.239 19.8658 651 16 c 0,14,15
 667.242 -16.4853 667.242 -16.4853 683 0 c 0,16,17
 716.886 35.4515 716.886 35.4515 727 44 c 0,18,19
 785.129 90.6252 785.129 90.6252 777 44 c 0,20,21
 761.928 -47.0507 761.928 -47.0507 761 -58 c 0,22,23
 756.115 -121.502 756.115 -121.502 791 -142 c 0,24,25
 827.409 -163.393 827.409 -163.393 801 -190 c 24,26,27
 762.621 -228.667 762.621 -228.667 711.587 -222.011 c 24,28,29
 678.919 -217.75 678.919 -217.75 686 -175 c 0,30,31
 687.245 -165.042 687.245 -165.042 707 -127 c 0,32,33
 719.303 -101.759 719.303 -101.759 715 -72 c 24,34,35
 712.036 -51.4956 712.036 -51.4956 695 -44 c 152,-1,36
 677.896 -36.4744 677.896 -36.4744 665 -50 c 24,37,38
 622.01 -95.0873 622.01 -95.0873 610.505 -133.044 c 128,-1,39
 599 -171 599 -171 581 -232 c 24,40,41
 571.261 -262 571.261 -262 547 -262 c 24,0,1
43 -208 m 0,42,43
 54.3377 34.5677 54.3377 34.5677 47 74 c 0,44,45
 46.3651 77.4119 46.3651 77.4119 35 90 c 0,46,47
 26.3813 99.5462 26.3813 99.5462 43 120 c 0,48,49
 59.3438 142.064 59.3438 142.064 97 202 c 24,50,51
 139.119 267.197 139.119 267.197 131 200 c 0,52,53
 110.208 27.9194 110.208 27.9194 113 0 c 0,54,55
 116.857 -43.0557 116.857 -43.0557 136.428 -36.5278 c 128,-1,56
 156 -30 156 -30 197 20 c 24,57,58
 239.832 68.7604 239.832 68.7604 249 0 c 24,59,60
 256.585 -56.8851 256.585 -56.8851 221 -160 c 24,61,62
 107.554 -488.736 107.554 -488.736 73 -510 c 0,63,64
 29.8583 -537.163 29.8583 -537.163 53 -494 c 0,65,66
 128.216 -359.743 128.216 -359.743 175 -196 c 0,67,68
 193.588 -130.941 193.588 -130.941 185 -88 c 0,69,70
 182.78 -77.2484 182.78 -77.2484 171 -70 c 0,71,72
 151.075 -59.2441 151.075 -59.2441 129 -92 c 0,73,74
 103.985 -130.091 103.985 -130.091 77 -219 c 0,75,76
 36.444 -348.264 36.444 -348.264 43 -208 c 0,42,43
197 900 m 24,77,78
 172.731 924.754 172.731 924.754 177 940 c 24,79,80
 188.222 980.079 188.222 980.079 225 1000 c 24,81,82
 246.051 1011.4 246.051 1011.4 273 992 c 0,83,84
 324.018 953.737 324.018 953.737 345 950 c 0,85,86
 396.44 940.839 396.44 940.839 413 956 c 0,87,88
 484 1021 484 1021 531 1078 c 24,89,90
 572.135 1127.92 572.135 1127.92 575 1084 c 0,91,92
 582.703 965.883 582.703 965.883 572.053 957.015 c 0,93,94
 548.053 937.028 548.053 937.028 547 914 c 0,95,96
 538.966 755.383 538.966 755.383 542 497 c 0,97,98
 544.121 338 544.121 338 361 84 c 17,99,100
 465.42 278.559 465.42 278.559 471 432 c 0,101,102
 475 542 475 542 481 908 c 24,103,104
 481.253 940.529 481.253 940.529 475 946 c 24,105,106
 464.151 948.986 464.151 948.986 449 936 c 0,107,108
 448.719 930.889 448.719 930.889 427 900 c 0,109,110
 382 836 382 836 353 826 c 0,111,112
 329.833 819.749 329.833 819.749 277 838 c 24,113,114
 246.726 849.28 246.726 849.28 197 900 c 24,77,78
EndSplineSet
Validated: 33
EndChar

StartChar: cllsm2
Encoding: 58384 58384 17
Width: 800
VWidth: 0
Flags: W
LayerCount: 2
Fore
SplineSet
53 1112 m 24,0,1
 22.486 1098.08 22.486 1098.08 39 1140 c 0,2,3
 52 1172 52 1172 55 1190 c 24,4,5
 57.433 1225 57.433 1225 43 1220 c 0,6,7
 16 1211 16 1211 13 1222 c 24,8,9
 8.59964 1231.84 8.59964 1231.84 31 1262 c 24,10,11
 68.9535 1312.6 68.9535 1312.6 79 1310 c 4,12,13
 107 1303 107 1303 109 1282 c 0,14,15
 117.232 1231.12 117.232 1231.12 167 1256 c 0,16,17
 179.308 1262.15 179.308 1262.15 203 1296 c 0,18,19
 219.682 1320.47 219.682 1320.47 251 1296 c 24,20,21
 282 1271 282 1271 313 1282 c 0,22,23
 339.489 1300.53 339.489 1300.53 387 1328 c 24,24,25
 451 1366 451 1366 449.5 1292 c 128,-1,26
 448 1218 448 1218 465 1178 c 24,27,28
 481.45 1136.44 481.45 1136.44 413 1094 c 24,29,30
 323.424 1052.65 323.424 1052.65 365 1116 c 0,31,32
 386 1147 386 1147 387 1180 c 24,33,34
 386.134 1216.49 386.134 1216.49 361 1232 c 24,35,36
 312.658 1261.83 312.658 1261.83 293 1238 c 0,37,38
 218.939 1145.68 218.939 1145.68 205 1148 c 0,39,40
 190.096 1150.48 190.096 1150.48 191 1174 c 0,41,42
 193 1200 193 1200 197 1216 c 24,43,44
 206.047 1241.9 206.047 1241.9 135 1220 c 24,45,46
 105.566 1208.96 105.566 1208.96 85 1174 c 0,47,48
 75 1156 75 1156 53 1112 c 24,0,1
237 644 m 24,49,50
 209.534 648.19 209.534 648.19 219 690 c 24,51,52
 226.3 722.24 226.3 722.24 261 750 c 24,53,54
 286.148 770.118 286.148 770.118 309 762 c 0,55,56
 391.287 730.601 391.287 730.601 423 732 c 0,57,58
 472.256 734.505 472.256 734.505 521 772 c 0,59,60
 532.645 783.725 532.645 783.725 601 836 c 24,61,62
 666.718 886.258 666.718 886.258 661 822 c 0,63,64
 637.728 593.162 637.728 593.162 595 534 c 0,65,66
 572.225 502.465 572.225 502.465 563 246 c 0,67,68
 557.262 89.9322 557.262 89.9322 485 40 c 0,69,70
 474.669 33.6949 474.669 33.6949 477 64 c 0,71,72
 501.658 326.603 501.658 326.603 509 378 c 0,73,74
 514 418 514 418 581 660 c 24,75,76
 589.31 693.69 589.31 693.69 569 714 c 152,-1,77
 548.8 734.2 548.8 734.2 525 716 c 0,78,79
 507 702 507 702 455 654 c 24,80,81
 412.303 617.259 412.303 617.259 237 644 c 24,49,50
EndSplineSet
Validated: 33
EndChar

StartChar: cllsn8
Encoding: 58385 58385 18
Width: 704
VWidth: 0
Flags: W
LayerCount: 2
Fore
SplineSet
141 68 m 24,0,1
 104.885 64.3737 104.885 64.3737 121 92 c 24,2,3
 151.1 143.6 151.1 143.6 197 164 c 24,4,5
 227.679 177.635 227.679 177.635 229 140 c 0,6,7
 231.509 68.4938 231.509 68.4938 277 96 c 24,8,9
 322.26 134.277 322.26 134.277 343 146 c 0,10,11
 410 180 410 180 403 138 c 0,12,13
 389.103 62.536 389.103 62.536 395 36 c 0,14,15
 397 26 397 26 419 10 c 24,16,17
 428.726 2.13586 428.726 2.13586 407 -18 c 24,18,19
 364.68 -57.2234 364.68 -57.2234 337 -66 c 24,20,21
 315.199 -72.9127 315.199 -72.9127 325 -44 c 0,22,23
 345 13 345 13 343 32 c 0,24,25
 341.878 63.4146 341.878 63.4146 323 76 c 0,26,27
 299.495 90.9579 299.495 90.9579 275 74 c 0,28,29
 232.602 42.7062 232.602 42.7062 217 -8 c 0,30,31
 195.33 -75.5604 195.33 -75.5604 159 -124 c 0,32,33
 127.998 -158.948 127.998 -158.948 141 -110 c 0,34,35
 168.971 -10.5468 168.971 -10.5468 171 28 c 0,36,37
 172.566 59.3253 172.566 59.3253 161 68 c 0,38,39
 157 71 157 71 141 68 c 24,0,1
101 596 m 24,40,41
 85.5095 613.529 85.5095 613.529 95 642 c 24,42,43
 105.571 673.714 105.571 673.714 133 692 c 24,44,45
 151.857 704.571 151.857 704.571 173 694 c 0,46,47
 181.186 688.694 181.186 688.694 251 662 c 0,48,49
 285 649 285 649 333 686 c 0,50,51
 406.07 742.614 406.07 742.614 461 812 c 24,52,53
 490.812 849.175 490.812 849.175 549 836 c 24,54,55
 565.857 832.184 565.857 832.184 567 788 c 24,56,57
 575.364 464.608 575.364 464.608 561 372 c 0,58,59
 525 139 525 139 447 74 c 25,60,61
 485 193 485 193 487 290 c 0,62,63
 495.784 643.557 495.784 643.557 489 682 c 0,64,65
 486.212 697.798 486.212 697.798 461 702 c 0,66,67
 426.732 699.465 426.732 699.465 417 690 c 0,68,69
 344 619 344 619 251 566 c 24,70,71
 218.807 546.439 218.807 546.439 171 556 c 24,72,73
 128.91 564.418 128.91 564.418 101 596 c 24,40,41
EndSplineSet
Validated: 33
EndChar

StartChar: cllsn9
Encoding: 58386 58386 19
Width: 834
VWidth: 0
Flags: W
LayerCount: 2
Fore
SplineSet
472 -140 m 0,0,1
 402.74 -223.224 402.74 -223.224 433 -142 c 0,2,3
 453.583 -86.75 453.583 -86.75 457 -56 c 4,4,5
 458 -45 458 -45 427 -44 c 24,6,7
 407.527 -41.98 407.527 -41.98 437 -14 c 24,8,9
 470.679 13.4751 470.679 13.4751 503 18 c 24,10,11
 536.129 22.6381 536.129 22.6381 537 0 c 0,12,13
 537.839 -26 537.839 -26 573 -26 c 0,14,15
 578.413 -26 578.413 -26 623 0 c 24,16,17
 688.581 38.2397 688.581 38.2397 681 -10 c 0,18,19
 670 -84.2479 670 -84.2479 699 -94 c 0,20,21
 763.364 -116.608 763.364 -116.608 611 -168 c 0,22,23
 556.079 -186.525 556.079 -186.525 586 -137 c 0,24,25
 602.193 -110.87 602.193 -110.87 603 -88 c 24,26,27
 603.998 -59.7255 603.998 -59.7255 589 -52 c 24,28,29
 557.313 -35.6781 557.313 -35.6781 537 -54 c 0,30,31
 486 -99 486 -99 472 -140 c 0,0,1
81 500 m 24,32,33
 55.2744 541.615 55.2744 541.615 67 574 c 24,34,35
 76.1485 599.267 76.1485 599.267 123 616 c 152,-1,36
 169.973 632.776 169.973 632.776 179 614 c 0,37,38
 201.374 563.414 201.374 563.414 261 560 c 0,39,40
 324.231 556.379 324.231 556.379 351 578 c 0,41,42
 377 599 377 599 439 662 c 24,43,44
 491.228 716.085 491.228 716.085 479 640 c 0,45,46
 422.362 302.584 422.362 302.584 373 162 c 24,47,48
 290.422 -73.1812 290.422 -73.1812 229 -72 c 25,49,50
 306 34 306 34 321 163 c 0,51,52
 347.886 414.315 347.886 414.315 353 476 c 24,53,54
 354.493 505.274 354.493 505.274 339 516 c 24,55,56
 326.419 524.71 326.419 524.71 301 512 c 0,57,58
 279 501 279 501 245 470 c 24,59,60
 219.358 448.569 219.358 448.569 135 464 c 24,61,62
 99.207 470.547 99.207 470.547 81 500 c 24,32,33
EndSplineSet
Validated: 33
EndChar

StartChar: cllsnt2
Encoding: 58387 58387 20
Width: 920
VWidth: 0
Flags: W
LayerCount: 2
Fore
SplineSet
595 1104 m 24,0,1
 502.05 1074.72 502.05 1074.72 497 1096 c 0,2,3
 483 1155 483 1155 505 1238 c 0,4,5
 513 1273.89 513 1273.89 513 1396 c 0,6,7
 513 1432.9 513 1432.9 480 1434.45 c 0,8,9
 445.681 1436.06 445.681 1436.06 401 1432 c 0,10,11
 367.026 1458.57 367.026 1458.57 421 1462 c 0,12,13
 491.386 1462.68 491.386 1462.68 517 1508 c 0,14,15
 518.402 1510.48 518.402 1510.48 565 1652 c 0,16,17
 591 1730 591 1730 614.998 1663.91 c 0,18,19
 624.842 1614.76 624.842 1614.76 605 1542 c 0,20,21
 596 1508 596 1508 655 1502 c 24,22,-1
 781 1506 l 0,23,24
 883.242 1494.75 883.242 1494.75 777 1482 c 0,25,26
 653.389 1468.16 653.389 1468.16 623 1456 c 0,27,28
 583.382 1440.15 583.382 1440.15 579 1404 c 0,29,30
 577.042 1403.18 577.042 1403.18 571 1234 c 0,31,32
 569.071 1180 569.071 1180 621 1180 c 0,33,34
 631 1180 631 1180 753 1190 c 4,35,36
 804.875 1195.57 804.875 1195.57 781 1174 c 0,37,38
 772.674 1162.57 772.674 1162.57 595 1104 c 24,0,1
33 1126 m 24,39,40
 14.0692 1140.2 14.0692 1140.2 23 1162 c 24,41,42
 102.788 1268.75 102.788 1268.75 101 1292 c 24,43,44
 100 1305 100 1305 104 1310 c 0,45,46
 110.928 1317 110.928 1317 128 1313 c 24,47,48
 141.359 1309.87 141.359 1309.87 147.046 1299.92 c 0,49,50
 154.334 1287.17 154.334 1287.17 183 1304 c 0,51,52
 243.095 1339.29 243.095 1339.29 280 1306 c 0,53,54
 311.324 1277.74 311.324 1277.74 293 1192 c 24,55,56
 270.898 1088.58 270.898 1088.58 227 1058 c 24,57,58
 151 1006 151 1006 191 1072 c 0,59,60
 229.52 1132.24 229.52 1132.24 233 1174 c 24,61,62
 236.212 1230.47 236.212 1230.47 223 1252 c 152,-1,63
 209.744 1273.6 209.744 1273.6 179 1262 c 24,64,65
 144.648 1244.83 144.648 1244.83 117 1212 c 0,66,67
 101 1193 101 1193 63 1132 c 24,68,69
 50.8118 1112.64 50.8118 1112.64 33 1126 c 24,39,40
93 588 m 24,70,71
 32.7584 592.016 32.7584 592.016 65 638 c 24,72,73
 127 725 127 725 157 738 c 0,74,75
 215.322 760.055 215.322 760.055 274 742 c 0,76,77
 301 734 301 734 361 764 c 0,78,79
 388.253 776.836 388.253 776.836 595 942 c 0,80,81
 612.31 955.829 612.31 955.829 597 886 c 0,82,83
 506.871 474.934 506.871 474.934 487 426 c 24,84,85
 336 61 336 61 209 8 c 1,86,87
 318.696 110.096 318.696 110.096 393 389 c 0,88,89
 416.867 483.471 416.867 483.471 453 618 c 0,90,91
 486.896 744.2 486.896 744.2 487 752 c 24,92,93
 487.277 772.807 487.277 772.807 455 768 c 24,94,95
 422.566 760.564 422.566 760.564 393 738 c 0,96,97
 338 694 338 694 215 628 c 24,98,99
 137.932 585.005 137.932 585.005 93 588 c 24,70,71
EndSplineSet
Validated: 33
EndChar

StartChar: cllsst6
Encoding: 58388 58388 21
Width: 1050
VWidth: 0
Flags: W
LayerCount: 2
Fore
SplineSet
731 96 m 24,0,1
 683.706 80.2352 683.706 80.2352 691 124 c 0,2,3
 701 178 701 178 717 232 c 4,4,5
 722 245 722 245 723 288 c 0,6,7
 722.077 303.692 722.077 303.692 699 296 c 0,8,9
 674 288.308 674 288.308 649 296 c 24,10,11
 614 308 614 308 655 322 c 0,12,13
 709 338 709 338 729 368 c 24,14,-1
 743 400 l 24,15,16
 776.895 423.049 776.895 423.049 779 402 c 0,17,18
 782.25 365.163 782.25 365.163 809 364 c 0,19,20
 813.56 363.603 813.56 363.603 899 386 c 24,21,22
 1001 414 1001 414 907 362 c 0,23,24
 831.606 321.535 831.606 321.535 785 306 c 0,25,26
 756.681 296.938 756.681 296.938 751 278 c 0,27,28
 742.733 253.2 742.733 253.2 749 178 c 0,29,30
 750.287 159.986 750.287 159.986 777 168 c 0,31,32
 788 171 788 171 811 186 c 24,33,34
 872.708 223.921 872.708 223.921 823 168 c 24,35,36
 770.789 109.263 770.789 109.263 731 96 c 24,0,1
509 12 m 24,37,38
 477 -8.2922 477 -8.2922 477 12 c 0,39,40
 475.835 78.4627 475.835 78.4627 473 138 c 0,41,42
 471.515 169.188 471.515 169.188 463 176 c 0,43,44
 429.489 178.896 429.489 178.896 423 182 c 24,45,46
 393.769 199.538 393.769 199.538 427 212 c 0,47,48
 443 218 443 218 499 254 c 0,49,50
 515.608 266.078 515.608 266.078 519 300 c 0,51,52
 525 349 525 349 537 456 c 24,53,54
 542.578 504.045 542.578 504.045 637 558 c 24,55,56
 697.442 592.539 697.442 592.539 705 552 c 0,57,58
 716.343 491.16 716.343 491.16 681 446 c 0,59,60
 659.878 420.184 659.878 420.184 617 460 c 0,61,62
 594.5 481 594.5 481 575 454 c 0,63,64
 566.508 450.772 566.508 450.772 555 388 c 0,65,66
 540 302 540 302 529 46 c 24,67,68
 527.431 24.0509 527.431 24.0509 509 12 c 24,37,38
73 736 m 24,69,70
 29.6741 765.934 29.6741 765.934 37 802 c 24,71,72
 44.7617 840.211 44.7617 840.211 99 864 c 24,73,74
 129.758 877.49 129.758 877.49 151 852 c 0,75,76
 182.779 821.564 182.779 821.564 245 838 c 0,77,78
 298 852 298 852 359 962 c 24,79,80
 416.876 1066.11 416.876 1066.11 417 960 c 0,81,82
 351 419 351 419 331 190 c 24,83,84
 325.983 125.978 325.983 125.978 263 42 c 0,85,86
 241.179 31.8713 241.179 31.8713 247 76 c 0,87,88
 280 312 280 312 297 498 c 24,89,90
 319.727 729.874 319.727 729.874 319 788 c 24,91,92
 318.679 813.72 318.679 813.72 293 818 c 24,93,94
 275 821 275 821 219 786 c 0,95,96
 211.061 780.743 211.061 780.743 147 726 c 24,97,98
 120.536 703.157 120.536 703.157 73 736 c 24,69,70
EndSplineSet
Validated: 33
EndChar

StartChar: cllsst8
Encoding: 58389 58389 22
Width: 760
VWidth: 0
Flags: W
LayerCount: 2
Fore
SplineSet
57 -286 m 24,0,1
 27.7528 -341.972 27.7528 -341.972 29 -314 c 0,2,3
 42 -104 42 -104 35 -96 c 4,4,5
 12.0671 -81.5598 12.0671 -81.5598 11 -70 c 24,6,7
 6.62148 6.62404 6.62148 6.62404 19 10 c 0,8,9
 44.4375 16.9375 44.4375 16.9375 47 40 c 0,10,11
 48 50 48 50 51 160 c 24,12,13
 53.1629 221.481 53.1629 221.481 167 302 c 24,14,15
 204.851 328.773 204.851 328.773 215 276 c 24,16,17
 222.681 236.06 222.681 236.06 187 198 c 0,18,19
 176.062 186.281 176.062 186.281 165 216 c 0,20,21
 160.425 228.291 160.425 228.291 133 222 c 0,22,23
 121.982 219.472 121.982 219.472 89 170 c 0,24,25
 76.6207 151.431 76.6207 151.431 79 86 c 0,26,27
 79.8809 53.881 79.8809 53.881 107 14 c 0,28,29
 120.904 -6.44755 120.904 -6.44755 155 0 c 24,30,31
 194.981 7.55984 194.981 7.55984 199 16 c 0,32,33
 209 37 209 37 211 58 c 0,34,35
 226.382 99.5353 226.382 99.5353 233 51 c 0,36,37
 236 29 236 29 241 24 c 0,38,39
 252.077 12 252.077 12 275.038 11.5 c 128,-1,40
 298 11 298 11 335 16 c 24,41,42
 360.876 4.4043 360.876 4.4043 343 0 c 0,43,44
 272 -15 272 -15 243 -18 c 24,45,46
 224.191 -19.1282 224.191 -19.1282 219 -36 c 24,47,48
 208.381 -70.5133 208.381 -70.5133 219 -96 c 24,49,50
 230.306 -123.134 230.306 -123.134 249 -108 c 0,51,52
 270 -91 270 -91 295 -58 c 0,53,54
 321.924 -24.9378 321.924 -24.9378 321 -54 c 0,55,56
 304.613 -106.695 304.613 -106.695 219 -176 c 24,57,58
 159.342 -221.413 159.342 -221.413 175 -164 c 0,59,60
 187 -120 187 -120 191 -86 c 24,61,62
 197.679 -42.2339 197.679 -42.2339 187 -22 c 24,63,64
 184.279 -16.8435 184.279 -16.8435 153 -14 c 24,65,66
 108.795 -9.9814 108.795 -9.9814 99 -14 c 24,67,68
 76.6302 -23.1773 76.6302 -23.1773 75 -46 c 0,69,70
 73 -64 73 -64 83 -152 c 24,71,72
 85.1206 -175.879 85.1206 -175.879 65 -196 c 0,73,74
 57 -204 57 -204 57 -286 c 24,0,1
225 692 m 24,75,76
 187.841 707.359 187.841 707.359 191 740 c 24,77,78
 194.707 778.304 194.707 778.304 237 816 c 24,79,80
 260.324 836.789 260.324 836.789 283 822 c 0,81,82
 349.132 794 349.132 794 367 794 c 0,83,84
 399 794 399 794 437 832 c 24,85,-1
 571 974 l 24,86,87
 634.915 1014.8 634.915 1014.8 625 952 c 0,88,89
 555 534 555 534 457 156 c 24,90,91
 423.261 27.8715 423.261 27.8715 353 18 c 17,92,93
 409 98 409 98 413 178 c 24,94,-1
 457 448 l 0,95,96
 528.064 749.485 528.064 749.485 523 790 c 0,97,98
 520.589 809.29 520.589 809.29 489 802 c 0,99,100
 447.27 786.081 447.27 786.081 431 764 c 0,101,102
 401 724 401 724 341 678 c 24,103,104
 313.073 655.597 313.073 655.597 225 692 c 24,75,76
EndSplineSet
Validated: 33
EndChar

StartChar: cllst9
Encoding: 58390 58390 23
Width: 918
VWidth: 0
Flags: W
LayerCount: 2
Fore
SplineSet
455 -124 m 24,0,1
 385.864 -132.681 385.864 -132.681 401 -94 c 0,2,3
 407.499 -77.3373 407.499 -77.3373 419 -16 c 0,4,5
 425.228 -0.480513 425.228 -0.480513 419 40 c 0,6,7
 417 54 417 54 381 52 c 24,8,9
 343.62 51.0552 343.62 51.0552 321 72 c 24,10,11
 287.831 102.712 287.831 102.712 327 102 c 4,12,13
 335.203 101.364 335.203 101.364 409 104 c 0,14,15
 453.899 105.604 453.899 105.604 459 122 c 0,16,17
 472 166 472 166 479 166 c 0,18,19
 555.598 178.128 555.598 178.128 557 162 c 0,20,21
 560.692 134.077 560.692 134.077 601 124 c 0,22,23
 634.709 115.301 634.709 115.301 695 122 c 0,24,25
 705 123 705 123 773 154 c 24,26,27
 856.831 190.478 856.831 190.478 781 130 c 24,28,29
 695.147 78.0046 695.147 78.0046 631 68 c 0,30,31
 550.221 55.3201 550.221 55.3201 505 50 c 0,32,33
 480.085 47.0689 480.085 47.0689 475 28 c 0,34,35
 466.978 -9.43679 466.978 -9.43679 489 -34 c 0,36,37
 520.26 -68.8669 520.26 -68.8669 561 -48 c 0,38,39
 607.128 -24.9362 607.128 -24.9362 585 -76 c 0,40,41
 572 -106 572 -106 455 -124 c 24,0,1
63 678 m 24,42,43
 39.4124 687.649 39.4124 687.649 51 734 c 24,44,45
 60.2329 770.932 60.2329 770.932 93 798 c 24,46,47
 115.141 816.291 115.141 816.291 143 810 c 0,48,49
 208.757 795.151 208.757 795.151 223 798 c 0,50,51
 256 804 256 804 309 864 c 24,52,-1
 509 1104 l 24,53,54
 583 1166.12 583 1166.12 583 1094 c 24,55,56
 583 1045.39 583 1045.39 509 698 c 0,57,58
 403 203 403 203 297 148 c 25,59,60
 368 298 368 298 392 499 c 0,61,62
 437.516 861.244 437.516 861.244 433 886 c 24,63,64
 433.293 909.505 433.293 909.505 397 900 c 24,65,66
 373.975 893.97 373.975 893.97 349 864 c 0,67,68
 329 840 329 840 313 744 c 24,69,70
 306.726 712.664 306.726 712.664 183 680 c 24,71,72
 107.095 659.961 107.095 659.961 63 678 c 24,42,43
EndSplineSet
Validated: 33
EndChar

StartChar: clsu2sun1lst6
Encoding: 58391 58391 24
Width: 958
VWidth: 0
Flags: W
LayerCount: 2
Fore
SplineSet
37 -1342 m 24,0,1
 25.1603 -1339.63 25.1603 -1339.63 37 -1324 c 24,2,3
 216.895 -1086.48 216.895 -1086.48 293 -1004 c 24,4,5
 397.013 -907.146 397.013 -907.146 395 -936 c 0,6,7
 406.631 -981.799 406.631 -981.799 417 -998 c 0,8,9
 441.232 -1035.86 441.232 -1035.86 479 -1008 c 0,10,11
 540 -965 540 -965 499 -1018 c 24,12,13
 462.673 -1067.16 462.673 -1067.16 385 -1106 c 0,14,15
 328.2 -1134.4 328.2 -1134.4 303 -1084 c 0,16,17
 296.538 -1071.08 296.538 -1071.08 255 -1078 c 0,18,19
 243 -1080 243 -1080 229 -1094 c 4,20,21
 222 -1101 222 -1101 57 -1328 c 24,22,23
 44.933 -1343.59 44.933 -1343.59 37 -1342 c 24,0,1
367 -722 m 24,24,25
 310.309 -767.353 310.309 -767.353 279 -738 c 24,26,27
 246.309 -707.353 246.309 -707.353 303 -662 c 24,28,29
 366.309 -611.352 366.309 -611.352 399 -642 c 24,30,31
 430.309 -671.353 430.309 -671.353 367 -722 c 24,24,25
347 -390 m 24,32,33
 286.652 -390.958 286.652 -390.958 295 -320 c 24,34,35
 302.652 -254.958 302.652 -254.958 363 -254 c 24,36,37
 428.652 -252.958 428.652 -252.958 421 -318 c 24,38,39
 412.652 -388.958 412.652 -388.958 347 -390 c 24,32,33
99 570 m 24,40,41
 50.6278 577.348 50.6278 577.348 53 624 c 24,42,43
 54.8137 659.669 54.8137 659.669 105 688 c 24,44,45
 129.88 702.045 129.88 702.045 177 694 c 0,46,47
 256.704 680.392 256.704 680.392 277 684 c 24,48,49
 330.764 693.558 330.764 693.558 357 726 c 24,50,-1
 463 914 l 24,51,52
 501.49 950.884 501.49 950.884 491 914 c 0,53,54
 461 813 461 813 459 784 c 0,55,56
 444.9 538.88 444.9 538.88 445 324 c 0,57,58
 445.015 292.527 445.015 292.527 481 294 c 24,59,60
 549 296 549 296 557 296 c 0,61,62
 565 297 565 297 571 320 c 24,63,64
 594.961 328.215 594.961 328.215 627 320 c 24,65,66
 645.184 315.338 645.184 315.338 649 300 c 0,67,68
 653.215 283.061 653.215 283.061 719 306 c 0,69,70
 721.244 307.983 721.244 307.983 799 348 c 24,71,72
 837.457 367.792 837.457 367.792 819 338 c 0,73,74
 780.815 280.092 780.815 280.092 649 252 c 0,75,76
 593.741 240.224 593.741 240.224 591 232 c 0,77,78
 583.665 208.68 583.665 208.68 589 166 c 0,79,80
 590.95 149.425 590.95 149.425 627 152 c 0,81,82
 641 153 641 153 661 162 c 24,83,84
 684.102 158.7 684.102 158.7 669 146 c 24,85,86
 604.142 91.4602 604.142 91.4602 573 88 c 24,87,88
 516.241 81.6935 516.241 81.6935 543 132 c 0,89,90
 567.661 180.294 567.661 180.294 571 202 c 0,91,92
 573.933 221.067 573.933 221.067 567 228 c 0,93,94
 563 232 563 232 529 232 c 0,95,96
 444.841 232 444.841 232 441 228 c 24,97,98
 421.478 211.928 421.478 211.928 415 186 c 0,99,100
 375 26 375 26 347 28 c 17,101,102
 366 40 366 40 373 200 c 0,103,104
 385.286 437.285 385.286 437.285 373 666 c 24,105,106
 371.999 684.625 371.999 684.625 347 684 c 24,107,108
 324.469 683.437 324.469 683.437 293 664 c 24,109,-1
 211 600 l 24,110,111
 137.131 564.208 137.131 564.208 99 570 c 24,40,41
EndSplineSet
Validated: 33
EndChar

StartChar: clsu3lst5
Encoding: 58392 58392 25
Width: 670
VWidth: 0
Flags: W
LayerCount: 2
Fore
SplineSet
357 -1388 m 24,0,1
 272.14 -1396.08 272.14 -1396.08 265 -1322 c 24,2,3
 256.14 -1230.08 256.14 -1230.08 341 -1222 c 24,4,5
 424.14 -1214.08 424.14 -1214.08 433 -1306 c 24,6,7
 440.14 -1380.08 440.14 -1380.08 357 -1388 c 24,0,1
359 -886 m 24,8,9
 311.536 -949.602 311.536 -949.602 289 -934 c 24,10,11
 259.536 -913.602 259.536 -913.602 307 -850 c 24,12,13
 359.536 -779.602 359.536 -779.602 389 -800 c 24,14,15
 411.536 -815.602 411.536 -815.602 359 -886 c 24,8,9
355 -520 m 24,16,17
 312.013 -571.398 312.013 -571.398 283 -548 c 24,18,19
 250.013 -521.398 250.013 -521.398 293 -470 c 24,20,21
 342.013 -411.398 342.013 -411.398 375 -438 c 24,22,23
 404.013 -461.398 404.013 -461.398 355 -520 c 24,16,17
143 20 m 24,24,25
 128.287 -6.03024 128.287 -6.03024 71 0 c 24,26,27
 42.5 3 42.5 3 67 28 c 24,28,29
 142.104 104.637 142.104 104.637 169 100 c 24,30,-1
 189 132 l 24,31,32
 203.892 140.647 203.892 140.647 231 136 c 24,33,34
 255.796 131.749 255.796 131.749 259 120 c 24,35,-1
 341 74 l 24,36,37
 350.91 65.4663 350.91 65.4663 331 58 c 24,38,39
 257.279 30.3546 257.279 30.3546 245 38 c 24,40,-1
 227 22 l 24,41,-1
 217 -64 l 24,42,-1
 251 -164 l 24,43,-1
 305 -160 l 24,44,45
 326.486 -164.852 326.486 -164.852 313 -178 c 24,46,47
 259.273 -230.384 259.273 -230.384 225 -238 c 24,48,49
 191.144 -245.524 191.144 -245.524 187 -206 c 24,50,51
 167.326 -18.3399 167.326 -18.3399 199 10 c 24,52,-1
 183 32 l 24,53,-1
 143 20 l 24,24,25
153 770 m 24,54,55
 98.5595 805.286 98.5595 805.286 95 848 c 24,56,57
 91.1236 894.517 91.1236 894.517 141 914 c 24,58,59
 176.231 927.762 176.231 927.762 223 898 c 0,60,61
 250.183 880.702 250.183 880.702 311 888 c 0,62,63
 361 894 361 894 441 994 c 24,64,-1
 487 1064 l 24,65,66
 527.607 1093.13 527.607 1093.13 533 1060 c 0,67,68
 548.813 975.005 548.813 975.005 511 782 c 0,69,70
 416.285 298.558 416.285 298.558 413 246 c 0,71,72
 408.064 213.616 408.064 213.616 415 172 c 0,73,74
 417 158 417 158 457 132 c 24,75,76
 476.307 118.13 476.307 118.13 451 94 c 24,77,78
 413.84 58.5679 413.84 58.5679 371 50 c 24,79,80
 358.906 47.5811 358.906 47.5811 361 76 c 0,81,82
 373 266 373 266 405 504 c 24,83,84
 406.97 525.804 406.97 525.804 455 838 c 0,85,86
 458.273 859.273 458.273 859.273 429 876 c 0,87,88
 390.636 897.922 390.636 897.922 379 868 c 0,89,90
 365 832 365 832 325 812 c 24,91,92
 284.763 789.887 284.763 789.887 271 822 c 0,93,94
 255 859.333 255 859.333 227 822 c 4,95,96
 221 814 221 814 203 778 c 24,97,98
 184.657 749.482 184.657 749.482 153 770 c 24,54,55
EndSplineSet
Validated: 2081
EndChar

StartChar: clsun1lst5
Encoding: 58393 58393 26
Width: 774
VWidth: 0
Flags: W
LayerCount: 2
Fore
SplineSet
257 -682 m 24,0,1
 235.697 -673.479 235.697 -673.479 247 -658 c 24,2,3
 390.213 -461.888 390.213 -461.888 479 -378 c 24,4,5
 533.187 -326.803 533.187 -326.803 537 -384 c 0,6,7
 545.03 -435.139 545.03 -435.139 559 -458 c 0,8,9
 586.156 -504.906 586.156 -504.906 631 -478 c 0,10,11
 701 -436 701 -436 639 -504 c 24,12,13
 592.386 -551.861 592.386 -551.861 551 -556 c 24,14,15
 490.469 -562.053 490.469 -562.053 479 -520 c 0,16,17
 482.422 -502.265 482.422 -502.265 473 -474 c 0,18,19
 466.824 -455.471 466.824 -455.471 443 -474 c 0,20,21
 411.345 -498.621 411.345 -498.621 411 -500 c 0,22,23
 403 -514 403 -514 277 -670 c 24,24,25
 264.356 -684.943 264.356 -684.943 257 -682 c 24,0,1
127 -64 m 28,26,27
 89.1704 -89.9908 89.1704 -89.9908 41 -68 c 28,28,29
 14.3654 -55.8407 14.3654 -55.8407 35 -22 c 28,30,31
 55.9806 12.4082 55.9806 12.4082 91 14 c 4,32,33
 283 18 283 18 377 36 c 28,34,35
 435.045 45.7832 435.045 45.7832 405 0 c 28,36,37
 395.041 -15.1757 395.041 -15.1757 335 -28 c 4,38,39
 237.538 -48.8172 237.538 -48.8172 199 -44 c 4,40,41
 176.509 -41.1886 176.509 -41.1886 173 -64 c 4,42,43
 165.534 -68.2748 165.534 -68.2748 175 -144 c 4,44,45
 179.035 -176.281 179.035 -176.281 209 -172 c 4,46,47
 227 -170 227 -170 269 -144 c 28,48,49
 311.472 -119.582 311.472 -119.582 277 -158 c 28,50,51
 223.462 -214.215 223.462 -214.215 189 -228 c 28,52,53
 120.329 -253.021 120.329 -253.021 127 -218 c 4,54,55
 147.973 -107.892 147.973 -107.892 145 -96 c 4,56,57
 154.638 -83.2765 154.638 -83.2765 145 -64 c 4,58,59
 141 -56 141 -56 127 -64 c 28,26,27
199 460 m 24,60,61
 103.515 447.126 103.515 447.126 87 464 c 24,62,63
 27.0162 525.288 27.0162 525.288 107 554 c 0,64,65
 187 582 187 582 239 572 c 0,66,67
 250.979 570.631 250.979 570.631 302 588 c 0,68,69
 349 604 349 604 475 778 c 24,70,71
 546.045 855.804 546.045 855.804 531 776 c 0,72,73
 485.62 545.321 485.62 545.321 487 486 c 0,74,75
 489 398 489 398 493 152 c 24,76,77
 495.483 55.6941 495.483 55.6941 415 42 c 21,78,79
 451.725 98.4995 451.725 98.4995 437 154 c 0,80,81
 411 252 411 252 425 586 c 0,82,83
 425.761 599.31 425.761 599.31 399 606 c 0,84,85
 379.117 610.971 379.117 610.971 371 594 c 0,86,87
 349 548 349 548 265 488 c 24,88,89
 233.429 464.642 233.429 464.642 199 460 c 24,60,61
EndSplineSet
Validated: 33
EndChar

StartChar: ds
Encoding: 58394 58394 27
Width: 1016
VWidth: 0
Flags: W
LayerCount: 2
Fore
SplineSet
455 82 m 24,0,1
 398.101 112.772 398.101 112.772 427 196 c 24,2,3
 448.178 256.994 448.178 256.994 505 226 c 0,4,5
 570.352 189.239 570.352 189.239 609 192 c 0,6,7
 715.538 198.873 715.538 198.873 781 270 c 0,8,9
 1011 516 1011 516 803 260 c 24,10,11
 697.225 127.965 697.225 127.965 623 90 c 24,12,13
 529.057 41.9487 529.057 41.9487 455 82 c 24,0,1
85 54 m 24,14,15
 28.0901 89.7082 28.0901 89.7082 65 134 c 24,16,17
 118.09 197.708 118.09 197.708 175 162 c 24,18,19
 220.09 133.708 220.09 133.708 167 70 c 24,20,21
 130.09 25.7081 130.09 25.7081 85 54 c 24,14,15
EndSplineSet
Validated: 33
Comment: "distropha" 
EndChar

StartChar: dslst2
Encoding: 58395 58395 28
Width: 1016
VWidth: 0
Flags: W
LayerCount: 2
Fore
SplineSet
305 704 m 24,0,1
 285.498 682.38 285.498 682.38 207 710 c 24,2,3
 179.22 719.775 179.22 719.775 197 742 c 24,4,5
 227.4 780 227.4 780 263 780 c 0,6,7
 264.754 779.973 264.754 779.973 499 806 c 24,8,9
 571 814 571 814 577 778 c 0,10,11
 579.203 762.582 579.203 762.582 521 752 c 0,12,13
 453.087 739.652 453.087 739.652 407 712 c 0,14,15
 386.07 699.442 386.07 699.442 379 680 c 0,16,17
 368.146 662.83 368.146 662.83 375 608 c 0,18,19
 377.5 588 377.5 588 405 588 c 0,20,21
 421 588 421 588 455 604 c 24,22,23
 510.587 631.226 510.587 631.226 465 592 c 24,24,25
 409.063 543.868 409.063 543.868 369 530 c 24,26,27
 323.485 514.245 323.485 514.245 309 538 c 24,28,29
 292.049 565.799 292.049 565.799 319 612 c 0,30,31
 332.398 622.495 332.398 622.495 345 654 c 0,32,33
 347 659 347 659 347 704 c 0,34,35
 347 714 347 714 327 718 c 0,36,37
 317 720 317 720 305 704 c 24,0,1
455 82 m 24,38,39
 398.101 112.772 398.101 112.772 427 196 c 24,40,41
 448.178 256.994 448.178 256.994 505 226 c 0,42,43
 570.352 189.239 570.352 189.239 609 192 c 0,44,45
 715.538 198.873 715.538 198.873 781 270 c 0,46,47
 1011 516 1011 516 803 260 c 24,48,49
 697.225 127.965 697.225 127.965 623 90 c 24,50,51
 529.057 41.9487 529.057 41.9487 455 82 c 24,38,39
85 54 m 24,52,53
 28.0901 89.7082 28.0901 89.7082 65 134 c 24,54,55
 118.09 197.708 118.09 197.708 175 162 c 24,56,57
 220.09 133.708 220.09 133.708 167 70 c 24,58,59
 130.09 25.7081 130.09 25.7081 85 54 c 24,52,53
EndSplineSet
Validated: 33
EndChar

StartChar: dslst8
Encoding: 58396 58396 29
Width: 866
VWidth: 0
Flags: W
LayerCount: 2
Fore
SplineSet
437 -178 m 0,0,1
 409 -205 409 -205 373 -196 c 24,2,3
 333.169 -187.308 333.169 -187.308 363 -166 c 24,4,5
 405 -137 405 -137 435 -112 c 0,6,7
 478.655 -78.7374 478.655 -78.7374 533 -108 c 0,8,9
 563 -124 563 -124 725 -94 c 24,10,11
 803.361 -80.0847 803.361 -80.0847 729 -110 c 24,12,13
 605.63 -161.563 605.63 -161.563 525 -204 c 0,14,15
 490.329 -222.248 490.329 -222.248 485 -256 c 0,16,17
 478.676 -293.943 478.676 -293.943 513 -300 c 0,18,19
 545 -306 545 -306 567 -292 c 24,20,21
 602.896 -276.157 602.896 -276.157 571 -314 c 0,22,23
 515 -383 515 -383 477 -374 c 4,24,25
 394.466 -351.325 394.466 -351.325 425 -302 c 0,26,27
 477 -218 477 -218 479 -208 c 0,28,29
 482.541 -186.426 482.541 -186.426 479 -182 c 24,30,31
 456 -162 456 -162 437 -178 c 0,0,1
355 84 m 24,32,33
 329.316 131.591 329.316 131.591 345 168 c 24,34,35
 362.958 209.689 362.958 209.689 411 214 c 24,36,37
 466.693 218.998 466.693 218.998 501 182 c 0,38,39
 549.218 130 549.218 130 591 130 c 0,40,41
 652 131 652 131 687 164 c 0,42,43
 781 257 781 257 697 142 c 24,44,45
 649.255 76.484 649.255 76.484 557 44 c 24,46,47
 501.532 24.469 501.532 24.469 413 42 c 24,48,49
 373.439 49.8339 373.439 49.8339 355 84 c 24,32,33
77 88 m 24,50,51
 31.5455 138.239 31.5455 138.239 71 186 c 24,52,53
 107.545 230.239 107.545 230.239 153 180 c 24,54,55
 183.545 146.239 183.545 146.239 147 102 c 24,56,57
 107.545 54.2392 107.545 54.2392 77 88 c 24,50,51
EndSplineSet
Validated: 33
EndChar

StartChar: ds1pp3
Encoding: 58398 58398 30
Width: 1190
VWidth: 0
Flags: W
LayerCount: 2
Fore
SplineSet
953 882 m 24,0,1
 913.074 906.166 913.074 906.166 959 956 c 24,2,3
 1007.07 1008.17 1007.07 1008.17 1047 984 c 24,4,5
 1083.07 962.166 1083.07 962.166 1035 910 c 24,6,7
 989.074 860.166 989.074 860.166 953 882 c 24,0,1
665 876 m 24,8,9
 631.503 902.392 631.503 902.392 687 962 c 24,10,11
 739.503 1018.39 739.503 1018.39 773 992 c 24,12,13
 805.503 966.392 805.503 966.392 753 910 c 24,14,15
 697.503 850.392 697.503 850.392 665 876 c 24,8,9
537 434 m 24,16,17
 502.092 462.561 502.092 462.561 549 520 c 24,18,19
 600.092 582.561 600.092 582.561 635 554 c 24,20,21
 666.092 528.561 666.092 528.561 615 466 c 24,22,23
 568.092 408.561 568.092 408.561 537 434 c 24,16,17
283 220 m 24,24,25
 247.378 254.473 247.378 254.473 295 304 c 24,26,27
 347.378 358.473 347.378 358.473 383 324 c 24,28,29
 409.378 298.473 409.378 298.473 357 244 c 24,30,31
 309.378 194.473 309.378 194.473 283 220 c 24,24,25
111 70 m 24,32,33
 55.5323 13.5051 55.5323 13.5051 31 40 c 24,34,35
 5.5323 67.5051 5.5323 67.5051 61 124 c 24,36,37
 113.532 177.505 113.532 177.505 139 150 c 24,38,39
 163.532 123.505 163.532 123.505 111 70 c 24,32,33
EndSplineSet
Validated: 2081
EndChar

StartChar: ds1
Encoding: 58397 58397 31
Width: 583
VWidth: 0
Flags: W
LayerCount: 2
Fore
SplineSet
343.726 31.959 m 24,0,1
 303.8 56.124 303.8 56.124 349.726 105.959 c 24,2,3
 397.8 158.124 397.8 158.124 437.726 133.959 c 24,4,5
 473.8 112.124 473.8 112.124 425.726 59.959 c 24,6,7
 379.8 10.124 379.8 10.124 343.726 31.959 c 24,0,1
55.7256 25.959 m 24,8,9
 22.2285 52.3506 22.2285 52.3506 77.7256 111.959 c 24,10,11
 130.229 168.351 130.229 168.351 163.726 141.959 c 24,12,13
 196.229 116.351 196.229 116.351 143.726 59.959 c 24,14,15
 88.2285 0.350586 88.2285 0.350586 55.7256 25.959 c 24,8,9
EndSplineSet
Validated: 33
EndChar

StartChar: oc
Encoding: 58399 58399 32
Width: 866
VWidth: 0
Flags: W
LayerCount: 2
Fore
SplineSet
381 602 m 0,0,1
 328.518 579.956 328.518 579.956 271 652 c 0,2,3
 252.354 675.354 252.354 675.354 291 714 c 0,4,5
 301 724 301 724 269 743 c 128,-1,6
 237 762 237 762 201 724 c 25,7,8
 212.4 776.566 212.4 776.566 287 826 c 24,9,10
 350.707 868.215 350.707 868.215 367 834 c 0,11,12
 398.725 767.378 398.725 767.378 411 766 c 0,13,14
 411.417 765.953 411.417 765.953 465 776 c 0,15,16
 466.628 778.231 466.628 778.231 663 1000 c 24,17,18
 727.11 1072.4 727.11 1072.4 729 1014 c 0,19,20
 744.531 534.041 744.531 534.041 721 376 c 24,21,22
 672.239 48.5123 672.239 48.5123 581 20 c 17,23,24
 625 125.287 625 125.287 625 346 c 0,25,26
 625 412 625 412 625 812 c 0,27,28
 625 822 625 822 607 852 c 0,29,30
 591.615 877.641 591.615 877.641 579 844 c 4,31,32
 573 828 573 828 553 760 c 0,33,34
 522.797 663.334 522.797 663.334 381 602 c 0,0,1
237 588 m 0,35,36
 301 624 301 624 251 560 c 24,37,38
 143.095 477.931 143.095 477.931 95 480 c 24,39,40
 16.2341 483.388 16.2341 483.388 65 568 c 0,41,42
 124.387 671.04 124.387 671.04 163 688 c 17,43,44
 134.739 649.848 134.739 649.848 147 610 c 0,45,46
 155 586 155 586 183 576 c 0,47,48
 202.453 569.326 202.453 569.326 237 588 c 0,35,36
EndSplineSet
Validated: 33
Comment: "oriscus clivis" 
EndChar

StartChar: ocG
Encoding: 58400 58400 33
Width: 620
VWidth: 0
Flags: W
LayerCount: 2
Fore
SplineSet
53 -724 m 24,0,1
 41.2724 -719.602 41.2724 -719.602 51 -706 c 24,2,3
 239.168 -442.884 239.168 -442.884 289 -394 c 24,4,5
 347.012 -337.092 347.012 -337.092 353 -382 c 0,6,7
 360 -434.5 360 -434.5 387 -448 c 0,8,9
 403 -456 403 -456 463 -436 c 24,10,11
 489.221 -436.64 489.221 -436.64 469 -450 c 24,12,13
 401.646 -494.502 401.646 -494.502 351 -510 c 24,14,15
 301.684 -525.091 301.684 -525.091 286 -506 c 0,16,17
 264.958 -479.183 264.958 -479.183 239 -504 c 4,18,19
 230 -513 230 -513 221 -522 c 24,20,21
 72.3094 -701.901 72.3094 -701.901 67 -712 c 24,22,23
 56.0642 -725.149 56.0642 -725.149 53 -724 c 24,0,1
403 376 m 0,24,25
 372.643 406.357 372.643 406.357 369 416 c 24,26,27
 360.584 438.277 360.584 438.277 369 466 c 24,28,29
 384.772 517.956 384.772 517.956 403 528 c 24,30,31
 453.868 556.029 453.868 556.029 467 520 c 24,32,33
 514.46 389.789 514.46 389.789 481 314 c 24,34,35
 425.052 187.274 425.052 187.274 301 144 c 0,36,37
 212.17 112.275 212.17 112.275 219 206 c 0,38,39
 222.98 260.615 222.98 260.615 223 264 c 0,40,41
 223.108 282.001 223.108 282.001 195 282 c 0,42,43
 177 282 177 282 161 270 c 0,44,45
 142.4 257.6 142.4 257.6 127 196 c 0,46,47
 114.532 146.128 114.532 146.128 129 136 c 0,48,49
 149 122 149 122 169 122 c 0,50,51
 184.945 120.638 184.945 120.638 153 88 c 24,52,53
 124.158 62.5514 124.158 62.5514 101 62 c 24,54,55
 70.6933 61.2784 70.6933 61.2784 69 86 c 24,56,57
 64.2349 155.57 64.2349 155.57 91 208 c 24,58,59
 150.379 324.318 150.379 324.318 215 372 c 24,60,61
 289.563 427.018 289.563 427.018 283 386 c 0,62,63
 274.976 335.851 274.976 335.851 277 308 c 0,64,65
 279.936 267.596 279.936 267.596 301 236 c 0,66,67
 321.645 205.032 321.645 205.032 371 216 c 0,68,69
 451.012 233.78 451.012 233.78 447 306 c 0,70,71
 445.818 333.182 445.818 333.182 403 376 c 0,24,25
EndSplineSet
Validated: 33
EndChar

StartChar: ocG1
Encoding: 58401 58401 34
Width: 774
VWidth: 0
Flags: W
LayerCount: 2
Fore
SplineSet
57 -762 m 24,0,1
 41.674 -749.739 41.674 -749.739 59 -728 c 24,2,3
 185.324 -569.499 185.324 -569.499 269 -496 c 24,4,5
 334.134 -438.788 334.134 -438.788 355 -468 c 0,6,7
 390.333 -521 390.333 -521 397 -526 c 0,8,9
 417 -538 417 -538 471 -534 c 24,10,11
 521.56 -531.901 521.56 -531.901 473 -564 c 24,12,13
 403.721 -609.795 403.721 -609.795 353 -612 c 4,14,15
 309 -614 309 -614 281 -580 c 24,16,17
 265.881 -558.929 265.881 -558.929 235 -584 c 24,18,-1
 79 -744 l 24,19,20
 59.2222 -763.778 59.2222 -763.778 57 -762 c 24,0,1
59 92 m 24,21,22
 40.161 97.7966 40.161 97.7966 57 128 c 24,23,24
 122.866 246.141 122.866 246.141 185 318 c 24,25,26
 237.787 379.049 237.787 379.049 287 394 c 24,27,28
 349.194 412.894 349.194 412.894 343 366 c 0,29,30
 336.524 264.659 336.524 264.659 339 230 c 0,31,32
 342.91 167.441 342.91 167.441 367 164 c 0,33,34
 397.116 168.923 397.116 168.923 413 178 c 0,35,36
 439 192 439 192 519 336 c 24,37,38
 571.626 427.88 571.626 427.88 613 350 c 0,39,40
 647 286 647 286 635 192 c 24,41,42
 629.454 157.335 629.454 157.335 563 142 c 0,43,44
 525.238 133.286 525.238 133.286 509 182 c 0,45,46
 499.667 210 499.667 210 463 188 c 0,47,48
 430.308 168.385 430.308 168.385 421 154 c 0,49,50
 399 116 399 116 337 62 c 24,51,52
 283.827 12.0719 283.827 12.0719 271 104 c 0,53,54
 259 190 259 190 253 254 c 0,55,56
 249.671 285.11 249.671 285.11 229 292 c 0,57,58
 205 300 205 300 185 279 c 128,-1,59
 165 258 165 258 83 120 c 24,60,61
 64.4319 90.3286 64.4319 90.3286 59 92 c 24,21,22
EndSplineSet
Validated: 33
EndChar

StartChar: ocGlsa5
Encoding: 58402 58402 35
Width: 1014
VWidth: 0
Flags: W
LayerCount: 2
Fore
SplineSet
525 -194 m 24,0,1
 569.124 -176.799 569.124 -176.799 537 -220 c 24,2,3
 503.616 -264.895 503.616 -264.895 467 -272 c 24,4,5
 409.747 -283.109 409.747 -283.109 403 -246 c 24,6,7
 398.873 -223.304 398.873 -223.304 447 -162 c 24,8,9
 546.959 -34.6712 546.959 -34.6712 571 -32 c 0,10,11
 591 -30 591 -30 591 0 c 0,12,13
 588.691 19.5241 588.691 19.5241 579 16 c 0,14,15
 527.607 6.14797 527.607 6.14797 561 30 c 0,16,17
 589 50 589 50 641 54 c 24,18,19
 702.768 57.5506 702.768 57.5506 709 32 c 0,20,21
 729 -50 729 -50 761 -78 c 0,22,23
 802.715 -116.505 802.715 -116.505 845 -110 c 0,24,25
 927 -96 927 -96 875 -130 c 24,26,27
 810.105 -172 810.105 -172 703 -172 c 0,28,29
 623.333 -172 623.333 -172 615 -122 c 0,30,31
 608.333 -82 608.333 -82 583 -82 c 0,32,33
 563 -82 563 -82 537 -102 c 0,34,35
 529.222 -107.555 529.222 -107.555 505 -156 c 0,36,37
 493 -180 493 -180 498 -192 c 128,-1,38
 503 -204 503 -204 525 -194 c 24,0,1
57 -848 m 24,39,40
 42.1237 -845.521 42.1237 -845.521 55 -830 c 24,41,42
 219.961 -631.163 219.961 -631.163 281 -578 c 24,43,44
 351.45 -516.64 351.45 -516.64 365 -560 c 0,45,46
 376.746 -599.937 376.746 -599.937 393 -604 c 0,47,48
 421 -610 421 -610 453 -600 c 24,49,50
 492.423 -589.696 492.423 -589.696 465 -616 c 24,51,52
 398.956 -679.348 398.956 -679.348 355 -694 c 0,53,54
 298 -713 298 -713 263 -678 c 0,55,56
 253 -668 253 -668 215 -684 c 0,57,58
 201.671 -691.664 201.671 -691.664 189 -698 c 4,59,60
 181 -702 181 -702 79 -834 c 24,61,62
 65.4419 -849.407 65.4419 -849.407 57 -848 c 24,39,40
285 100 m 24,63,64
 227.056 42.0563 227.056 42.0563 187 38 c 24,65,66
 128.442 32.0704 128.442 32.0704 127 84 c 24,67,68
 126.725 93.8858 126.725 93.8858 183 182 c 24,69,70
 246.952 282.136 246.952 282.136 279 322 c 24,71,72
 324.528 378.632 324.528 378.632 347 386 c 24,73,74
 380.929 397.124 380.929 397.124 401 362 c 0,75,76
 449 278 449 278 481 254 c 0,77,78
 499.421 239.263 499.421 239.263 531 234 c 0,79,80
 581 226 581 226 579 280 c 0,81,82
 577.11 299.779 577.11 299.779 571 312 c 0,83,84
 563 330 563 330 525 356 c 24,85,86
 507.46 369.16 507.46 369.16 535 412 c 24,87,88
 568.517 464.138 568.517 464.138 597 468 c 24,89,90
 640.26 473.866 640.26 473.866 653 428 c 24,91,92
 667.206 376.86 667.206 376.86 637 324 c 24,93,94
 581.821 227.437 581.821 227.437 509 176 c 24,95,96
 430.237 120.366 430.237 120.366 385 146 c 0,97,98
 320.615 181.308 320.615 181.308 301 214 c 0,99,100
 296.869 220.885 296.869 220.885 269 239 c 0,101,102
 247 254 247 254 227 228 c 0,103,104
 219 188 219 188 219 188 c 0,105,106
 219 168 219 168 233 140 c 0,107,108
 240.382 122.507 240.382 122.507 277 128 c 24,109,110
 318.029 133.029 318.029 133.029 285 100 c 24,63,64
EndSplineSet
Validated: 33
EndChar

StartChar: oclst8
Encoding: 58403 58403 36
Width: 834
VWidth: 0
Flags: W
LayerCount: 2
Fore
SplineSet
257 -28 m 0,0,1
 189 -34 189 -34 137 -20 c 24,2,3
 100.154 -9.14868 100.154 -9.14868 137 30 c 4,4,5
 186.167 82.2403 186.167 82.2403 201 74 c 4,6,7
 241 52 241 52 423 56 c 24,8,9
 494.607 56.2007 494.607 56.2007 419 18 c 0,10,11
 331.864 -7.32547 331.864 -7.32547 321 -20 c 0,12,13
 301.588 -39.4119 301.588 -39.4119 307 -80 c 0,14,15
 311.119 -112.952 311.119 -112.952 347 -126 c 0,16,17
 369 -134 369 -134 433 -116 c 24,18,19
 462.32 -108.924 462.32 -108.924 433 -134 c 24,20,21
 321.175 -190.62 321.175 -190.62 275 -196 c 24,22,23
 197.434 -205.037 197.434 -205.037 227 -158 c 0,24,25
 271 -86 271 -86 277 -46 c 24,26,27
 279.334 -26.0294 279.334 -26.0294 257 -28 c 0,0,1
383 554 m 24,28,29
 305.583 525.308 305.583 525.308 303 552 c 0,30,31
 295.979 624.553 295.979 624.553 281 662 c 0,32,33
 263 707 263 707 259 710 c 0,34,35
 241 730 241 730 207 710 c 25,36,37
 240.489 767.055 240.489 767.055 313 802 c 24,38,39
 376.89 832.791 376.89 832.791 373 790 c 0,40,41
 365.75 710.25 365.75 710.25 375 664 c 0,42,43
 379.328 640.194 379.328 640.194 425 644 c 0,44,45
 438.568 641.703 438.568 641.703 503 686 c 0,46,47
 535 708 535 708 637 856 c 24,48,49
 704.63 952.936 704.63 952.936 695 836 c 0,50,51
 681 666 681 666 671 480 c 24,52,53
 646.676 82.6125 646.676 82.6125 527 20 c 17,54,55
 566.97 103.747 566.97 103.747 557 186 c 0,56,57
 549 256 549 256 555 390 c 24,58,59
 571.909 649.09 571.909 649.09 573 660 c 0,60,61
 575.112 691.685 575.112 691.685 541 686 c 0,62,63
 530.493 684.249 530.493 684.249 505 656 c 0,64,65
 431 570 431 570 383 554 c 24,28,29
233 502 m 0,66,67
 125.469 447.696 125.469 447.696 81 458 c 24,68,69
 35.5981 468.52 35.5981 468.52 69 540 c 24,70,71
 108.288 624.076 108.288 624.076 181 672 c 1,72,73
 153 640 153 640 157 598 c 0,74,75
 159.599 552.7 159.599 552.7 173 546 c 0,76,77
 199 534 199 534 235 538 c 0,78,79
 291.352 542.152 291.352 542.152 233 502 c 0,66,67
EndSplineSet
Validated: 33
Comment: "oriscus clivis cum tenete" 
EndChar

StartChar: or
Encoding: 58404 58404 37
Width: 620
VWidth: 0
Flags: W
LayerCount: 2
Fore
SplineSet
403 376 m 0,0,1
 372.643 406.357 372.643 406.357 369 416 c 24,2,3
 360.584 438.277 360.584 438.277 369 466 c 24,4,5
 384.772 517.956 384.772 517.956 403 528 c 24,6,7
 453.868 556.029 453.868 556.029 467 520 c 24,8,9
 514.46 389.789 514.46 389.789 481 314 c 24,10,11
 425.052 187.274 425.052 187.274 301 144 c 0,12,13
 212.17 112.275 212.17 112.275 219 206 c 0,14,15
 222.98 260.615 222.98 260.615 223 264 c 0,16,17
 223.108 282.001 223.108 282.001 195 282 c 0,18,19
 177 282 177 282 161 270 c 0,20,21
 142.4 257.6 142.4 257.6 127 196 c 0,22,23
 114.532 146.128 114.532 146.128 129 136 c 0,24,25
 149 122 149 122 169 122 c 0,26,27
 184.945 120.638 184.945 120.638 153 88 c 24,28,29
 124.158 62.5514 124.158 62.5514 101 62 c 24,30,31
 70.6933 61.2784 70.6933 61.2784 69 86 c 24,32,33
 64.2349 155.57 64.2349 155.57 91 208 c 24,34,35
 150.379 324.318 150.379 324.318 215 372 c 24,36,37
 289.563 427.018 289.563 427.018 283 386 c 0,38,39
 274.976 335.851 274.976 335.851 277 308 c 0,40,41
 279.936 267.596 279.936 267.596 301 236 c 0,42,43
 321.645 205.032 321.645 205.032 371 216 c 0,44,45
 451.012 233.78 451.012 233.78 447 306 c 0,46,47
 445.818 333.182 445.818 333.182 403 376 c 0,0,1
EndSplineSet
Validated: 33
Comment: "oriscus" 
EndChar

StartChar: or1
Encoding: 58405 58405 38
Width: 774
VWidth: 0
Flags: W
LayerCount: 2
Fore
SplineSet
59 92 m 24,0,1
 40.161 97.7966 40.161 97.7966 57 128 c 24,2,3
 122.866 246.141 122.866 246.141 185 318 c 24,4,5
 237.787 379.049 237.787 379.049 287 394 c 24,6,7
 349.194 412.894 349.194 412.894 343 366 c 0,8,9
 336.524 264.659 336.524 264.659 339 230 c 0,10,11
 342.91 167.441 342.91 167.441 367 164 c 0,12,13
 397.116 168.923 397.116 168.923 413 178 c 0,14,15
 439 192 439 192 519 336 c 24,16,17
 571.626 427.88 571.626 427.88 613 350 c 0,18,19
 647 286 647 286 635 192 c 24,20,21
 629.454 157.335 629.454 157.335 563 142 c 0,22,23
 525.238 133.286 525.238 133.286 509 182 c 0,24,25
 499.667 210 499.667 210 463 188 c 0,26,27
 430.308 168.385 430.308 168.385 421 154 c 0,28,29
 399 116 399 116 337 62 c 24,30,31
 283.827 12.0719 283.827 12.0719 271 104 c 0,32,33
 259 190 259 190 253 254 c 0,34,35
 249.671 285.11 249.671 285.11 229 292 c 0,36,37
 205 300 205 300 185 279 c 128,-1,38
 165 258 165 258 83 120 c 24,39,40
 64.4319 90.3286 64.4319 90.3286 59 92 c 24,0,1
EndSplineSet
Validated: 33
EndChar

StartChar: orBlsa1
Encoding: 58407 58407 39
Width: 1188
VWidth: 0
Flags: W
LayerCount: 2
Fore
SplineSet
565 142 m 24,0,1
 508.141 91.149 508.141 91.149 483 176 c 0,2,3
 463.016 243.447 463.016 243.447 495 280 c 0,4,5
 518.938 307.357 518.938 307.357 469 316 c 0,6,7
 443 320.5 443 320.5 422.482 289.145 c 5,8,9
 467.445 369.295 467.445 369.295 515 398 c 24,10,11
 561.125 424.262 561.125 424.262 573 380 c 0,12,13
 594.102 301.347 594.102 301.347 615 270 c 0,14,15
 625.256 254.615 625.256 254.615 667 266 c 0,16,17
 700.618 275.168 700.618 275.168 779 356 c 0,18,19
 843 422 843 422 935 452 c 24,20,21
 1069.64 496.783 1069.64 496.783 1051 358 c 0,22,23
 1033.61 224.644 1033.61 224.644 883 88 c 24,24,25
 860.048 67.1761 860.048 67.1761 831 84 c 0,26,27
 809.521 96.4399 809.521 96.4399 851 96 c 0,28,29
 878.627 95.707 878.627 95.707 937 170 c 0,30,31
 955.83 193.965 955.83 193.965 941 278 c 0,32,33
 933.468 320.681 933.468 320.681 899 336 c 0,34,35
 831.316 364.499 831.316 364.499 787 332 c 0,36,37
 760.542 313.324 760.542 313.324 715 258 c 24,38,39
 682.072 218 682.072 218 657 218 c 0,40,41
 649.979 218 649.979 218 565 142 c 24,0,1
447 114 m 0,42,43
 420.928 47.5347 420.928 47.5347 333 32 c 24,44,45
 228.807 14.3588 228.807 14.3588 255 68 c 0,46,47
 300.482 161.144 300.482 161.144 347 206 c 0,48,49
 397.856 257.781 397.856 257.781 402.482 263.145 c 1,50,51
 369.941 195.508 369.941 195.508 367 164 c 0,52,53
 363.035 120.386 363.035 120.386 379 114 c 0,54,55
 387.41 110.636 387.41 110.636 429 132 c 0,56,57
 458.482 147.144 458.482 147.144 447 114 c 0,42,43
217 546 m 24,58,59
 83.7942 446.565 83.7942 446.565 67 460 c 0,60,61
 46.5729 477.509 46.5729 477.509 71 532 c 0,62,63
 123 648 123 648 205 680 c 0,64,65
 233.691 712.938 233.691 712.938 209 708 c 0,66,67
 212.807 721.073 212.807 721.073 179 718 c 0,68,69
 157 716 157 716 173 740 c 24,70,71
 205.941 781.862 205.941 781.862 245 788 c 24,72,73
 272.968 792.395 272.968 792.395 313 762 c 0,74,75
 409.223 698.231 409.223 698.231 449 680 c 0,76,77
 499.49 657.784 499.49 657.784 557 666 c 0,78,79
 601 672 601 672 533 636 c 0,80,81
 438.868 584.128 438.868 584.128 371 586 c 0,82,83
 289.057 588.731 289.057 588.731 243 644 c 0,84,85
 229.415 660.302 229.415 660.302 195 656 c 0,86,87
 178.798 653.975 178.798 653.975 169 642 c 0,88,89
 157.007 622.385 157.007 622.385 169 596 c 0,90,91
 181 568 181 568 209 566 c 24,92,93
 238.462 562.021 238.462 562.021 217 546 c 24,58,59
EndSplineSet
Validated: 33
EndChar

StartChar: orB
Encoding: 58406 58406 40
Width: 973
VWidth: 0
Flags: W
LayerCount: 2
Fore
SplineSet
350 142 m 24,0,1
 293.141 91.1494 293.141 91.1494 268 176 c 0,2,3
 248.016 243.446 248.016 243.446 280 280 c 0,4,5
 299.731 302.55 299.731 302.55 254 316 c 0,6,7
 228.5 323.5 228.5 323.5 207.482 289.145 c 5,8,9
 252.444 369.295 252.444 369.295 300 398 c 24,10,11
 346.125 424.262 346.125 424.262 358 380 c 0,12,13
 379.102 301.347 379.102 301.347 400 270 c 0,14,15
 410.257 254.615 410.257 254.615 452 266 c 0,16,17
 485.618 275.169 485.618 275.169 564 356 c 0,18,19
 628 422 628 422 720 452 c 24,20,21
 854.643 496.783 854.643 496.783 836 358 c 0,22,23
 818.605 224.644 818.605 224.644 668 88 c 24,24,25
 645.049 67.1758 645.049 67.1758 616 84 c 0,26,27
 594.521 96.4395 594.521 96.4395 636 96 c 0,28,29
 663.627 95.707 663.627 95.707 722 170 c 0,30,31
 740.83 193.965 740.83 193.965 726 278 c 0,32,33
 718.468 320.681 718.468 320.681 684 336 c 0,34,35
 616.316 364.498 616.316 364.498 572 332 c 0,36,37
 545.542 313.324 545.542 313.324 500 258 c 24,38,39
 467.072 218 467.072 218 442 218 c 0,40,41
 434.979 218 434.979 218 350 142 c 24,0,1
232 114 m 0,42,43
 205.928 47.5352 205.928 47.5352 118 32 c 24,44,45
 13.8066 14.3584 13.8066 14.3584 40 68 c 0,46,47
 85.4824 161.145 85.4824 161.145 132 206 c 0,48,49
 182.855 257.781 182.855 257.781 187.482 263.145 c 1,50,51
 154.941 195.508 154.941 195.508 152 164 c 0,52,53
 148.035 120.386 148.035 120.386 164 114 c 0,54,55
 172.41 110.636 172.41 110.636 214 132 c 0,56,57
 243.482 147.145 243.482 147.145 232 114 c 0,42,43
EndSplineSet
Validated: 33
EndChar

StartChar: orlst3
Encoding: 58408 58408 41
Width: 1102
VWidth: 0
Flags: W
LayerCount: 2
Fore
SplineSet
615 740 m 0,0,1
 617.4 772 617.4 772 605 772 c 0,2,3
 557 772 557 772 549 764 c 128,-1,4
 541 756 541 756 507 740 c 24,5,6
 438.57 738.338 438.57 738.338 467 766 c 0,7,8
 537 838 537 838 591 842 c 0,9,10
 641.953 844.926 641.953 844.926 839 846 c 0,11,12
 877.372 852.396 877.372 852.396 929 898 c 0,13,14
 1049 1004 1049 1004 941 888 c 24,15,16
 853.465 796.087 853.465 796.087 821 790 c 0,17,18
 725 772 725 772 663 768 c 0,19,20
 650.254 766.507 650.254 766.507 643 752 c 0,21,22
 634.818 735.636 634.818 735.636 641 680 c 0,23,24
 643.229 659.934 643.229 659.934 685 648 c 0,25,26
 699 644 699 644 737 644 c 24,27,28
 776.258 642.38 776.258 642.38 739 628 c 24,29,30
 654.716 595.469 654.716 595.469 623 600 c 24,31,32
 568.345 607.808 568.345 607.808 585 650 c 24,33,34
 613 722 613 722 615 740 c 0,0,1
169 44 m 0,35,36
 28.4375 37.3106 28.4375 37.3106 43 78 c 0,37,38
 115 280 115 280 215 338 c 24,39,40
 293.937 386.688 293.937 386.688 305 324 c 0,41,42
 319.138 247.103 319.138 247.103 333 224 c 0,43,44
 366.762 170.945 366.762 170.945 435 176 c 0,45,46
 507.677 181.012 507.677 181.012 537 214 c 0,47,48
 556.355 235.774 556.355 235.774 549 256 c 0,49,50
 539 282 539 282 435 390 c 24,51,52
 415.991 410.446 415.991 410.446 437 446 c 24,53,54
 454.398 475.443 454.398 475.443 487 478 c 24,55,56
 527.87 481.206 527.87 481.206 539 454 c 0,57,58
 591.909 319.693 591.909 319.693 589 278 c 0,59,60
 583 192 583 192 395 122 c 24,61,62
 294.425 85.2656 294.425 85.2656 255 172 c 0,63,64
 235 253.783 235 253.783 235 262 c 0,65,66
 235 278 235 278 205 270 c 0,67,68
 169.93 261.907 169.93 261.907 167 258 c 0,69,70
 119 210 119 210 119 144 c 0,71,72
 119 96.7742 119 96.7742 177 108 c 0,73,74
 234.125 123.963 234.125 123.963 217 88 c 24,75,76
 197 46 197 46 169 44 c 0,35,36
EndSplineSet
Validated: 33
Comment: "oriscus cum tenete" 
EndChar

StartChar: orsu1sun1
Encoding: 58409 58409 42
Width: 810
VWidth: 0
Flags: W
LayerCount: 2
Fore
SplineSet
141 -1102 m 24,0,1
 127.148 -1095.07 127.148 -1095.07 139 -1076 c 24,2,3
 320.416 -784.033 320.416 -784.033 397 -690 c 24,4,5
 435.301 -642.973 435.301 -642.973 455 -688 c 0,6,7
 465.085 -739.044 465.085 -739.044 487 -738 c 0,8,9
 539.265 -735.728 539.265 -735.728 597 -688 c 0,10,11
 759 -554 759 -554 605 -702 c 24,12,13
 535.048 -767.732 535.048 -767.732 449 -804 c 24,14,15
 366.847 -838.626 366.847 -838.626 363 -804 c 0,16,17
 347.841 -786.879 347.841 -786.879 335 -804 c 0,18,19
 317 -830 317 -830 159 -1086 c 24,20,21
 146.722 -1104.86 146.722 -1104.86 141 -1102 c 24,0,1
407 -256 m 24,22,23
 350.167 -304.583 350.167 -304.583 305 -282 c 24,24,25
 262.167 -260.583 262.167 -260.583 319 -212 c 24,26,27
 386.167 -154.583 386.167 -154.583 429 -176 c 24,28,29
 474.167 -198.583 474.167 -198.583 407 -256 c 24,22,23
481 216 m 24,30,31
 382.169 162.092 382.169 162.092 361 174 c 0,32,33
 295 212 295 212 274 260 c 128,-1,34
 253 308 253 308 207 284 c 25,35,36
 211.429 322.598 211.429 322.598 293 372 c 24,37,38
 336.004 398.045 336.004 398.045 349 370 c 0,39,40
 385.459 291.324 385.459 291.324 421 270 c 0,41,42
 443.727 256.364 443.727 256.364 501 264 c 0,43,44
 570.768 273.303 570.768 273.303 587 322 c 0,45,46
 594 343 594 343 579 358 c 0,47,48
 575 362 575 362 465 428 c 0,49,50
 455 434 455 434 401 432 c 24,51,52
 372.561 431.501 372.561 431.501 403 476 c 24,53,54
 433.556 518.617 433.556 518.617 477 538 c 24,55,56
 505.471 550.703 505.471 550.703 533 534 c 24,57,58
 648.176 464.118 648.176 464.118 655 430 c 24,59,60
 662.221 393.893 662.221 393.893 581 294 c 24,61,62
 546.731 251.853 546.731 251.853 481 216 c 24,30,31
265 146 m 24,63,64
 280.665 150.678 280.665 150.678 283 132 c 24,65,66
 182.342 54.5705 182.342 54.5705 135 46 c 24,67,68
 27.3247 26.5071 27.3247 26.5071 51 90 c 24,69,70
 95 206 95 206 193 260 c 1,71,72
 151 178.54 151 178.54 151 168 c 0,73,74
 153.397 134.437 153.397 134.437 177 128 c 0,75,76
 201 122 201 122 265 146 c 24,63,64
EndSplineSet
Validated: 33
EndChar

StartChar: orsu1sun1lsc2
Encoding: 58410 58410 43
Width: 830
VWidth: 0
Flags: W
LayerCount: 2
Fore
SplineSet
77 -1192 m 24,0,1
 64.5034 -1181.43 64.5034 -1181.43 75 -1168 c 24,2,3
 254.527 -938.373 254.527 -938.373 335 -862 c 24,4,5
 381.046 -818.3 381.046 -818.3 389 -870 c 0,6,7
 398.154 -931.788 398.154 -931.788 431 -940 c 0,8,9
 474.81 -950.11 474.81 -950.11 519.905 -920.055 c 128,-1,10
 565 -890 565 -890 523 -944 c 24,11,12
 467.753 -1017.05 467.753 -1017.05 403 -1030 c 0,13,14
 348.455 -1040.91 348.455 -1040.91 333 -1010 c 0,15,16
 321.8 -987.6 321.8 -987.6 311 -984 c 0,17,18
 293 -978 293 -978 253 -992 c 0,19,20
 235.353 -997.647 235.353 -997.647 219 -1014 c 0,21,22
 211 -1022 211 -1022 89 -1176 c 24,23,-1
 77 -1192 l 24,0,1
369 -390 m 24,24,25
 312.273 -351.818 312.273 -351.818 345 -306 c 24,26,27
 382.273 -253.818 382.273 -253.818 439 -292 c 24,28,29
 486.273 -323.818 486.273 -323.818 449 -376 c 24,30,31
 416.273 -421.818 416.273 -421.818 369 -390 c 24,24,25
501 620 m 0,32,33
 411 540 411 540 393 544 c 24,34,35
 305.562 578.05 305.562 578.05 353 616 c 0,36,37
 423.584 674.022 423.584 674.022 427 676 c 0,38,39
 438.304 682.783 438.304 682.783 433 704 c 0,40,41
 431 712 431 712 415 724 c 24,42,43
 401.112 736.926 401.112 736.926 427 760 c 24,44,45
 478.61 806 478.61 806 507 806 c 0,46,47
 523 806 523 806 539 796 c 24,48,49
 569.878 779.234 569.878 779.234 571 774 c 24,50,51
 575.132 754.715 575.132 754.715 551 740 c 0,52,53
 457.118 684.118 457.118 684.118 455 682 c 0,54,55
 433.837 669.907 433.837 669.907 441 652 c 0,56,57
 448.625 632.938 448.625 632.938 467 636 c 0,58,59
 483 638 483 638 512 651 c 0,60,61
 544.956 660.049 544.956 660.049 501 620 c 0,32,33
341 92 m 24,62,63
 215.793 14.1687 215.793 14.1687 189 36 c 24,64,65
 146.121 70.9387 146.121 70.9387 233 180 c 0,66,67
 368.945 349.931 368.945 349.931 381 364 c 24,68,69
 413.721 402.187 413.721 402.187 429 354 c 0,70,71
 465.376 246.076 465.376 246.076 475 236 c 0,72,73
 507 200 507 200 557 220 c 24,74,75
 596.933 233.981 596.933 233.981 615 256 c 24,76,77
 636.634 282.366 636.634 282.366 621 298 c 0,78,79
 607 312 607 312 547 324 c 24,80,81
 525.142 329.471 525.142 329.471 531 390 c 24,82,83
 534.958 430.904 534.958 430.904 559 448 c 24,84,85
 601.179 477.994 601.179 477.994 621 454 c 0,86,87
 659 408 659 408 689 376 c 24,88,89
 712.102 349.714 712.102 349.714 677 304 c 24,90,91
 579.255 176.704 579.255 176.704 517 152 c 24,92,93
 391 102 391 102 385 158 c 0,94,95
 368.591 221.288 368.591 221.288 363 234 c 0,96,97
 357.045 247.54 357.045 247.54 325 240 c 24,98,99
 290.734 228.578 290.734 228.578 283 214 c 24,100,101
 260.594 171.774 260.594 171.774 273 142 c 0,102,103
 283 116 283 116 337 128 c 24,104,105
 410.361 142.735 410.361 142.735 341 92 c 24,62,63
EndSplineSet
Validated: 33
EndChar

StartChar: orsu1sun1lsc3
Encoding: 58411 58411 44
Width: 1114
VWidth: 0
Flags: W
LayerCount: 2
Fore
SplineSet
161 -1154 m 24,0,1
 149.702 -1151.74 149.702 -1151.74 161 -1134 c 24,2,3
 355.082 -829.243 355.082 -829.243 403 -774 c 24,4,5
 449.307 -720.614 449.307 -720.614 475 -772 c 0,6,7
 493 -808 493 -808 514 -811 c 128,-1,8
 535 -814 535 -814 583 -782 c 24,9,10
 697.717 -705.216 697.717 -705.216 595 -802 c 24,11,12
 494.931 -887.305 494.931 -887.305 461 -886 c 0,13,14
 402.752 -889.157 402.752 -889.157 389 -884 c 0,15,16
 360.429 -872.571 360.429 -872.571 341 -892 c 0,17,18
 329 -904 329 -904 181 -1138 c 24,19,20
 168.919 -1155.58 168.919 -1155.58 161 -1154 c 24,0,1
493 -290 m 24,21,22
 422.901 -351.213 422.901 -351.213 385 -320 c 24,23,24
 354.901 -295.213 354.901 -295.213 425 -234 c 24,25,26
 496.901 -171.213 496.901 -171.213 527 -196 c 24,27,28
 564.901 -227.213 564.901 -227.213 493 -290 c 24,21,22
937 418 m 24,29,30
 873.78 345.805 873.78 345.805 825 358 c 24,31,32
 763.662 373.335 763.662 373.335 777 458 c 24,33,34
 794.074 566.385 794.074 566.385 871 650 c 24,35,36
 904.774 686.711 904.774 686.711 961 658 c 24,37,38
 1033.44 621.01 1033.44 621.01 965 602 c 0,39,40
 868.647 575.235 868.647 575.235 867 574 c 0,41,42
 829.812 542.534 829.812 542.534 839 492 c 0,43,44
 846.296 448.225 846.296 448.225 873 446 c 0,45,46
 903.729 442.927 903.729 442.927 955 474 c 0,47,48
 1023 514 1023 514 937 418 c 24,29,30
425 228 m 24,49,50
 339.082 205.788 339.082 205.788 335 206 c 0,51,52
 250.667 210.382 250.667 210.382 261 258 c 0,53,54
 269.149 295.553 269.149 295.553 261 320 c 0,55,56
 245 368 245 368 199 336 c 25,57,58
 210.285 389.604 210.285 389.604 285 434 c 24,59,60
 327.794 459.428 327.794 459.428 337 418 c 0,61,62
 350.667 356.5 350.667 356.5 371 326 c 0,63,64
 385.667 304 385.667 304 445 304 c 0,65,66
 508.143 304 508.143 304 557 342 c 0,67,68
 594.125 370.875 594.125 370.875 571 394 c 0,69,70
 558.53 407.849 558.53 407.849 551 410 c 0,71,72
 489.325 422.849 489.325 422.849 453 474 c 24,73,74
 433.744 501.116 433.744 501.116 453 548 c 24,75,76
 462.715 571.655 462.715 571.655 499 586 c 24,77,78
 526.374 596.822 526.374 596.822 539 582 c 0,79,80
 609.042 501.044 609.042 501.044 611 500 c 24,81,82
 633.412 488.973 633.412 488.973 623 454 c 0,83,84
 582.277 328.436 582.277 328.436 541 282 c 0,85,86
 513.289 250.825 513.289 250.825 425 228 c 24,49,50
255 134 m 0,87,88
 307 156 307 156 279 124 c 24,89,90
 228.19 57.2495 228.19 57.2495 149 40 c 24,91,92
 91.7192 27.523 91.7192 27.523 77 80 c 24,93,94
 63.6203 127.702 63.6203 127.702 103 204 c 24,95,96
 133 264 133 264 181 292 c 1,97,98
 149 228 149 228 153 185 c 128,-1,99
 157 142 157 142 175 136 c 0,100,101
 219.248 118.269 219.248 118.269 255 134 c 0,87,88
EndSplineSet
Validated: 2081
EndChar

StartChar: pe
Encoding: 58412 58412 45
Width: 918
VWidth: 0
Flags: W
LayerCount: 2
Fore
SplineSet
165 34 m 4,0,1
 117 32 117 32 87 36 c 24,2,3
 79.9609 38.0383 79.9609 38.0383 85 82 c 24,4,5
 95.1769 109.986 95.1769 109.986 119 124 c 24,6,7
 155.034 145.197 155.034 145.197 187 142 c 0,8,9
 310.917 142 l 0,10,11
 339 142 339 142 363 166 c 0,12,13
 379.615 170.285 379.615 170.285 407 272 c 0,14,15
 421 324 421 324 491 786 c 0,16,17
 552.421 1203.71 552.421 1203.71 661 1258 c 0,18,19
 687.356 1271.97 687.356 1271.97 727 1276 c 24,20,21
 778.438 1281.23 778.438 1281.23 779 1270 c 0,22,23
 783 1190 783 1190 769 1132 c 24,24,25
 756.24 1088.76 756.24 1088.76 715 1130 c 0,26,27
 705 1140 705 1140 699 1152 c 24,28,29
 674.914 1181.05 674.914 1181.05 665 1148 c 0,30,31
 659 1128 659 1128 639 1060 c 24,32,33
 642.381 1047.38 642.381 1047.38 595 1000 c 0,34,35
 585 990 585 990 521 562 c 24,36,37
 482.746 311.152 482.746 311.152 449 218 c 24,38,39
 383.189 36.3351 383.189 36.3351 329 32 c 0,40,41
 224.75 36.39 224.75 36.39 165 34 c 4,0,1
EndSplineSet
Validated: 33
Comment: "podatus" 
EndChar

StartChar: peB
Encoding: 58413 58413 46
Width: 1124
VWidth: 0
Flags: W
LayerCount: 2
Fore
SplineSet
177 72 m 24,0,1
 113.898 28.2509 113.898 28.2509 81 40 c 0,2,3
 51 50 51 50 79 80 c 24,4,5
 134.719 148.053 134.719 148.053 147 170 c 24,6,7
 192.159 207.226 192.159 207.226 227 202 c 0,8,9
 268.476 211.789 268.476 211.789 365 198 c 0,10,11
 393.537 194.195 393.537 194.195 413 222 c 0,12,13
 420.785 233.122 420.785 233.122 429 302 c 4,14,15
 467 604 467 604 533 1080 c 24,16,17
 552.935 1223.93 552.935 1223.93 663 1344 c 24,18,19
 751.759 1440.83 751.759 1440.83 885 1464 c 24,20,21
 985 1481.39 985 1481.39 985 1400 c 24,22,23
 985 1241.67 985 1241.67 885 1122 c 24,24,25
 850.935 1081.23 850.935 1081.23 741 1108 c 24,26,27
 686.222 1121.34 686.222 1121.34 655 1178 c 24,28,29
 644.098 1197.78 644.098 1197.78 687 1206 c 24,30,31
 731.506 1214.52 731.506 1214.52 749 1196 c 0,32,33
 779 1162 779 1162 801 1160 c 0,34,35
 839.67 1158.84 839.67 1158.84 873 1188 c 0,36,37
 893.519 1204.41 893.519 1204.41 901 1268 c 0,38,39
 907.105 1322.95 907.105 1322.95 873 1340 c 0,40,41
 835.34 1360.09 835.34 1360.09 771 1344 c 0,42,43
 694.234 1325.39 694.234 1325.39 655 1260 c 0,44,45
 643.89 1218.31 643.89 1218.31 627 1182 c 0,46,47
 587 1096 587 1096 483 268 c 24,48,49
 469.324 165.076 469.324 165.076 421 100 c 24,50,51
 383.302 49.2328 383.302 49.2328 333 66 c 0,52,53
 310.01 69.0694 310.01 69.0694 231 86 c 0,54,55
 203 92 203 92 177 72 c 24,0,1
EndSplineSet
Validated: 33
Comment: "podatus liquescent" 
EndChar

StartChar: peB1
Encoding: 58414 58414 47
Width: 1292
VWidth: 0
Flags: W
LayerCount: 2
Fore
SplineSet
923 1324 m 0,0,1
 998.609 1326.44 998.609 1326.44 1031 1370 c 24,2,3
 1089 1448 1089 1448 1083 1492 c 4,4,5
 1077.73 1520.46 1077.73 1520.46 1029 1548 c 0,6,7
 983 1574 983 1574 939 1558 c 0,8,9
 858.774 1525.32 858.774 1525.32 835 1454 c 0,10,11
 810.967 1388.71 810.967 1388.71 837 1354 c 0,12,13
 858.975 1321.54 858.975 1321.54 923 1324 c 0,0,1
451 512 m 24,14,15
 423.065 486.858 423.065 486.858 387 508 c 24,16,17
 365.125 520.823 365.125 520.823 393 546 c 0,18,19
 535.252 695.003 535.252 695.003 545 708 c 0,20,21
 609.66 792.866 609.66 792.866 643 904 c 0,22,23
 649 924 649 924 709 1248 c 24,24,25
 734.338 1381.69 734.338 1381.69 803 1502 c 24,26,27
 861.918 1605.23 861.918 1605.23 943 1658 c 24,28,29
 997.423 1693.42 997.423 1693.42 1055 1666 c 24,30,31
 1150.89 1620.34 1150.89 1620.34 1153 1558 c 24,32,33
 1160.06 1349.8 1160.06 1349.8 1067 1312 c 0,34,35
 865.113 1269.12 865.113 1269.12 855 1268 c 0,36,37
 809.027 1264.72 809.027 1264.72 789 1228 c 0,38,39
 777 1206 777 1206 745 1038 c 24,40,41
 713.123 878.084 713.123 878.084 627 724 c 24,42,43
 566.715 616.144 566.715 616.144 451 512 c 24,14,15
51 28 m 24,44,45
 35.86 32.3257 35.86 32.3257 45 52 c 24,46,47
 120.086 213.625 120.086 213.625 169 282 c 24,48,49
 215.981 346.133 215.981 346.133 231 312 c 0,50,51
 256.917 253.098 256.917 253.098 291 250 c 0,52,53
 313 248 313 248 365 274 c 24,54,55
 394.513 287.032 394.513 287.032 371 260 c 24,56,57
 292.806 175.29 292.806 175.29 269 170 c 0,58,59
 201.913 167.764 201.913 167.764 191 174 c 0,60,61
 157.135 170.135 157.135 170.135 147 160 c 0,62,63
 133 146 133 146 73 44 c 24,64,65
 62.0356 24.847 62.0356 24.847 51 28 c 24,44,45
EndSplineSet
Validated: 33
EndChar

StartChar: peB1lsa6
Encoding: 58415 58415 48
Width: 1244
VWidth: 0
Flags: W
LayerCount: 2
Fore
SplineSet
703 376 m 24,0,1
 630.093 338.831 630.093 338.831 605 348 c 24,2,3
 567.452 361.72 567.452 361.72 599 414 c 24,4,5
 629.172 464 629.172 464 675 464 c 0,6,7
 703.5 464 703.5 464 697 490 c 0,8,9
 695.667 495.333 695.667 495.333 679 502 c 4,10,11
 669 506 669 506 651 506 c 24,12,13
 636.575 507.407 636.575 507.407 653 534 c 24,14,15
 672.143 564.994 672.143 564.994 693 574 c 24,16,17
 729.898 589.933 729.898 589.933 741 572 c 0,18,19
 791 490 791 490 837 460 c 0,20,21
 877.591 432.245 877.591 432.245 915 438 c 24,22,23
 968.011 445.035 968.011 445.035 915 412 c 24,24,25
 858.445 386.119 858.445 386.119 797 384 c 24,26,27
 755.902 382.583 755.902 382.583 741 406 c 0,28,29
 723.698 424.403 723.698 424.403 715 436 c 0,30,31
 701.526 456.211 701.526 456.211 671 444 c 0,32,33
 644.871 433.548 644.871 433.548 641 420 c 0,34,35
 636.455 404.091 636.455 404.091 673 398 c 0,36,37
 685 396 685 396 707 400 c 24,38,39
 738.192 403.228 738.192 403.228 703 376 c 24,0,1
553 590 m 24,40,41
 519.917 571.823 519.917 571.823 505 600 c 24,42,43
 478.24 650.546 478.24 650.546 517 658 c 0,44,45
 526.088 663.454 526.088 663.454 591 682 c 0,46,47
 672.595 705.313 672.595 705.313 719 784 c 0,48,49
 809.449 937.371 809.449 937.371 825 1054 c 0,50,51
 829 1084 829 1084 839 1216 c 24,52,53
 843.097 1264.56 843.097 1264.56 883 1304 c 24,54,55
 962.495 1382.57 962.495 1382.57 1011 1386 c 24,56,57
 1043.98 1388.33 1043.98 1388.33 1081 1318 c 0,58,59
 1121 1242 1121 1242 1107 1174 c 24,60,61
 1092.89 1111.11 1092.89 1111.11 985 1072 c 24,62,63
 947 1058.22 947 1058.22 947 1116 c 0,64,65
 947 1152.47 947 1152.47 993 1154 c 0,66,67
 1041.35 1155.61 1041.35 1155.61 1053 1176 c 0,68,69
 1086.03 1179.93 1086.03 1179.93 1059 1234 c 0,70,71
 1038.36 1277.15 1038.36 1277.15 1005 1298 c 0,72,73
 973 1318 973 1318 949 1302 c 0,74,75
 939.928 1294.4 939.928 1294.4 911 1248 c 0,76,77
 886.233 1216.01 886.233 1216.01 866 1058 c 0,78,79
 845 894 845 894 687 700 c 24,80,81
 635.114 635.118 635.114 635.118 553 590 c 24,40,41
107 82 m 24,82,83
 89.8408 91.8053 89.8408 91.8053 99 110 c 24,84,85
 188.122 287.04 188.122 287.04 255 376 c 24,86,87
 297.492 432.523 297.492 432.523 311 392 c 0,88,89
 322.636 354.182 322.636 354.182 331 350 c 0,90,91
 345 344 345 344 393 364 c 24,92,93
 458.938 388.766 458.938 388.766 401 342 c 24,94,95
 312.706 272.836 312.706 272.836 273 270 c 0,96,97
 245 268 245 268 225 264 c 0,98,99
 213.854 263.204 213.854 263.204 199 250 c 24,100,-1
 127 94 l 24,101,102
 117.228 76.1554 117.228 76.1554 107 82 c 24,82,83
EndSplineSet
Validated: 33
EndChar

StartChar: peG
Encoding: 58416 58416 49
Width: 1138
VWidth: 0
Flags: W
LayerCount: 2
Fore
SplineSet
593 528 m 24,0,1
 549.828 513.18 549.828 513.18 521 534 c 24,2,3
 498.091 550.545 498.091 550.545 521 580 c 24,4,5
 572.392 646.076 572.392 646.076 605 642 c 0,6,7
 623 640 623 640 657 644 c 0,8,9
 681.167 645.611 681.167 645.611 697 672 c 0,10,11
 759 780 759 780 895 1000 c 24,12,13
 911.816 1026.87 911.816 1026.87 939 1012 c 24,14,15
 986.56 985.977 986.56 985.977 1001 942 c 24,16,17
 1012.54 918.175 1012.54 918.175 983 878 c 0,18,19
 977.236 870.161 977.236 870.161 951 874 c 24,20,21
 922.685 887.831 922.685 887.831 901 890 c 0,22,23
 877.923 892.308 877.923 892.308 861 872 c 0,24,25
 839 844 839 844 767 684 c 24,26,27
 728.928 600 728.928 600 673 600 c 0,28,29
 661 600 661 600 655 580 c 24,30,31
 640.83 544.419 640.83 544.419 593 528 c 24,0,1
39 40 m 24,32,33
 30.871 41.8065 30.871 41.8065 39 54 c 24,34,35
 199.16 294.24 199.16 294.24 235 334 c 24,36,37
 274.325 377.627 274.325 377.627 295 338 c 0,38,39
 327.132 276.413 327.132 276.413 343 278 c 0,40,41
 399.115 281.741 399.115 281.741 425 308 c 0,42,43
 528.375 415.044 528.375 415.044 425 288 c 24,44,45
 353.442 200.058 353.442 200.058 321 196 c 0,46,47
 268.448 189.427 268.448 189.427 247 236 c 0,48,49
 241.567 244.428 241.567 244.428 203 238 c 24,50,51
 183.326 234.721 183.326 234.721 175 224 c 24,52,-1
 57 50 l 24,53,54
 48.112 37.9751 48.112 37.9751 39 40 c 24,32,33
EndSplineSet
Validated: 33
EndChar

StartChar: peG1
Encoding: 58417 58417 50
Width: 1160
VWidth: 0
Flags: W
LayerCount: 2
Fore
SplineSet
625 536 m 24,0,1
 585.492 507.622 585.492 507.622 569 556 c 24,2,3
 567.167 561.376 567.167 561.376 595 624 c 24,4,5
 609.25 656.062 609.25 656.062 663 648 c 0,6,7
 701.228 642.266 701.228 642.266 713 656 c 24,8,9
 737 682 737 682 749 702 c 0,10,11
 843.827 835.776 843.827 835.776 941 954 c 24,12,13
 985.501 1011.57 985.501 1011.57 1023 958 c 24,14,15
 1053.99 913.727 1053.99 913.727 1025 834 c 24,16,17
 1003.17 773.969 1003.17 773.969 959 782 c 0,18,19
 953.348 783.131 953.348 783.131 941 814 c 0,20,21
 937 824 937 824 909 820 c 0,22,23
 875.335 814.414 875.335 814.414 865 798 c 0,24,25
 765 636 765 636 625 536 c 24,0,1
99 20 m 24,26,27
 76.0668 18.5204 76.0668 18.5204 69 50 c 24,28,29
 60.0375 89.9241 60.0375 89.9241 77 118 c 24,30,31
 86.4628 133.663 86.4628 133.663 127 146 c 24,32,33
 154.6 154.4 154.6 154.4 169 146 c 0,34,35
 184.156 136.356 184.156 136.356 203 134 c 0,36,37
 217.211 132.421 217.211 132.421 229 156 c 0,38,39
 233 164 233 164 221 208 c 24,40,41
 215.277 236.283 215.277 236.283 287 322 c 24,42,43
 328.137 371.163 328.137 371.163 385 404 c 24,44,45
 404.496 415.258 404.496 415.258 429 404 c 24,46,47
 455.558 391.798 455.558 391.798 459 370 c 24,48,49
 461.758 352.532 461.758 352.532 441 328 c 24,50,51
 420.517 303.793 420.517 303.793 393 292 c 24,52,53
 357.087 276.609 357.087 276.609 343 286 c 0,54,55
 327.634 294.78 327.634 294.78 303 280 c 0,56,57
 295.171 262.684 295.171 262.684 291 246 c 0,58,59
 285 218 285 218 269 134 c 24,60,61
 263.935 105.568 263.935 105.568 193 58 c 24,62,63
 140.307 22.665 140.307 22.665 99 20 c 24,26,27
EndSplineSet
Validated: 33
EndChar

StartChar: peGlsa6
Encoding: 58418 58418 51
Width: 1388
VWidth: 0
Flags: W
LayerCount: 2
Fore
SplineSet
915 342 m 24,0,1
 939.018 328.561 939.018 328.561 927 318 c 24,2,3
 890.326 285.771 890.326 285.771 849 284 c 24,4,5
 799.182 281.865 799.182 281.865 787 312 c 24,6,7
 773.142 346.281 773.142 346.281 811 378 c 24,8,9
 880.226 436 880.226 436 935 436 c 0,10,11
 959 436 959 436 949 460 c 24,12,13
 941.231 484.915 941.231 484.915 933 484 c 4,14,15
 903 482 903 482 895 496 c 24,16,17
 888.6 503.825 888.6 503.825 899 516 c 24,18,19
 950.162 575.897 950.162 575.897 977 592 c 24,20,21
 1025.71 621.228 1025.71 621.228 1029 594 c 0,22,23
 1041 476 1041 476 1070 433 c 0,24,25
 1109.34 374.671 1109.34 374.671 1161 418 c 0,26,27
 1283 522 1283 522 1171 408 c 24,28,29
 1082.04 333.083 1082.04 333.083 1047 322 c 24,30,31
 996.105 305.901 996.105 305.901 975 346 c 0,32,33
 953.219 387.384 953.219 387.384 951 406 c 0,34,35
 949.894 415.276 949.894 415.276 931 420 c 0,36,37
 921.909 422.273 921.909 422.273 901 416 c 0,38,39
 864.432 405.03 864.432 405.03 869 376 c 0,40,41
 871.823 358.06 871.823 358.06 915 342 c 24,0,1
735 654 m 24,42,43
 700.71 624.254 700.71 624.254 649 630 c 24,44,45
 618.42 633.398 618.42 633.398 627 666 c 24,46,47
 636.286 701.286 636.286 701.286 679 744 c 24,48,49
 707.194 772.194 707.194 772.194 729 768 c 0,50,51
 773.087 759.522 773.087 759.522 799 766 c 0,52,53
 833.595 774.649 833.595 774.649 837 786 c 0,54,55
 853.446 840.821 853.446 840.821 885 884 c 0,56,57
 915 924 915 924 1157 1166 c 24,58,59
 1198.09 1206.35 1198.09 1206.35 1233 1176 c 24,60,61
 1270.2 1143.65 1270.2 1143.65 1249 1086 c 24,62,63
 1232.09 1040 1232.09 1040 1183 1040 c 0,64,65
 1170.64 1043.24 1170.64 1043.24 1143 1046 c 0,66,67
 1111.84 1049.12 1111.84 1049.12 1099 1032 c 0,68,69
 1073 1000 1073 1000 1035 958 c 24,70,71
 1032.72 955.544 1032.72 955.544 1005 950 c 0,72,73
 995 948 995 948 981 918 c 24,74,75
 881.849 781.387 881.849 781.387 735 654 c 24,42,43
51 22 m 24,76,77
 35.1065 28.3574 35.1065 28.3574 49 46 c 24,78,79
 217.056 259.405 217.056 259.405 303 342 c 24,80,81
 346.1 383.421 346.1 383.421 357 342 c 0,82,83
 371.646 286.346 371.646 286.346 385 278 c 0,84,85
 411.141 261.662 411.141 261.662 435 266 c 0,86,87
 457 270 457 270 413 242 c 24,88,89
 345.194 200.149 345.194 200.149 331 196 c 24,90,91
 284.657 182.454 284.657 182.454 283 204 c 0,92,93
 282.871 205.677 282.871 205.677 267 248 c 0,94,95
 261 264 261 264 233 248 c 24,96,-1
 69 38 l 24,97,98
 54.8688 20.4525 54.8688 20.4525 51 22 c 24,76,77
EndSplineSet
Validated: 33
EndChar

StartChar: peGlsf1
Encoding: 58419 58419 52
Width: 1301
VWidth: 0
Flags: W
LayerCount: 2
Fore
SplineSet
377 998 m 0,0,1
 383.51 962.194 383.51 962.194 333 916 c 24,2,3
 308.551 893.641 308.551 893.641 307 942 c 0,4,5
 301.848 1102.61 301.848 1102.61 301 1134 c 0,6,7
 300.866 1138.94 300.866 1138.94 291 1146 c 24,8,9
 273.749 1158.34 273.749 1158.34 285 1172 c 0,10,11
 293.485 1180.73 293.485 1180.73 295 1188 c 0,12,13
 301 1216 301 1216 313 1386 c 24,14,15
 317.805 1444.56 317.805 1444.56 403 1490 c 24,16,17
 447.525 1513.75 447.525 1513.75 493 1482 c 24,18,19
 530.458 1455.85 530.458 1455.85 509 1416 c 0,20,21
 500.371 1399.97 500.371 1399.97 465 1412 c 0,22,23
 421.444 1428 421.444 1428 407 1428 c 0,24,25
 370.317 1430.29 370.317 1430.29 363 1412 c 0,26,27
 362.27 1410.17 362.27 1410.17 357 1370 c 0,28,29
 355.574 1359.13 355.574 1359.13 375 1194 c 0,30,31
 376.762 1179.02 376.762 1179.02 407 1176 c 0,32,33
 418 1175 418 1175 483 1212 c 0,34,35
 591.429 1274.37 591.429 1274.37 505 1200 c 24,36,37
 435.963 1140.59 435.963 1140.59 393 1132 c 0,38,39
 380.419 1129.48 380.419 1129.48 367 1106 c 0,40,41
 360.079 1093.89 360.079 1093.89 377 998 c 0,0,1
643 752 m 24,42,43
 601.789 707.074 601.789 707.074 561 714 c 24,44,45
 498.584 724.599 498.584 724.599 537 770 c 0,46,47
 596.975 838.795 596.975 838.795 643 848 c 0,48,49
 675 854 675 854 801 1062 c 24,50,-1
 939 1318 l 24,51,52
 1011 1428.65 1011 1428.65 1073 1480 c 24,53,54
 1121.67 1520.32 1121.67 1520.32 1137 1482 c 0,55,56
 1157 1432 1157 1432 1161 1366 c 24,57,58
 1162.93 1322.98 1162.93 1322.98 1113 1308 c 0,59,60
 1093 1302 1093 1302 1081.61 1324.5 c 24,61,62
 1071.03 1341.98 1071.03 1341.98 1051 1352 c 0,63,64
 1038.93 1358.39 1038.93 1358.39 1007 1352 c 0,65,66
 991.571 1348.91 991.571 1348.91 979 1320 c 0,67,68
 959 1272 959 1272 805 980 c 24,69,70
 743.723 861.805 743.723 861.805 643 752 c 24,42,43
37 30 m 24,71,72
 23.8518 37.1718 23.8518 37.1718 37 56 c 24,73,74
 213.57 308.848 213.57 308.848 287 388 c 24,75,76
 331.343 435.799 331.343 435.799 345 388 c 0,77,78
 361 336 361 336 377 326 c 0,79,80
 399.711 314.217 399.711 314.217 451 358 c 0,81,82
 537 430 537 430 461 348 c 24,83,84
 415.69 296.386 415.69 296.386 365 276 c 24,85,86
 300.814 250.186 300.814 250.186 277 274 c 0,87,88
 257.897 281.682 257.897 281.682 245 292 c 0,89,90
 232.692 301.846 232.692 301.846 223 288 c 0,91,92
 187 242 187 242 59 44 c 24,93,94
 45.5463 25.3384 45.5463 25.3384 37 30 c 24,71,72
EndSplineSet
Validated: 33
EndChar

StartChar: pelsa2
Encoding: 58420 58420 53
Width: 1106
VWidth: 0
Flags: W
LayerCount: 2
Fore
SplineSet
641 1576 m 0,0,1
 655 1564 655 1564 683 1570 c 24,2,3
 719.928 1575.67 719.928 1575.67 683 1542 c 24,4,5
 618.591 1497.41 618.591 1497.41 579 1498 c 24,6,7
 539.917 1498.58 539.917 1498.58 549 1544 c 24,8,9
 561.31 1605.55 561.31 1605.55 611 1658 c 24,10,11
 683 1734 683 1734 729 1734 c 0,12,13
 751 1734 751 1734 745 1760 c 0,14,15
 740.481 1778.07 740.481 1778.07 727 1780 c 0,16,17
 691 1786 691 1786 693 1798 c 24,18,19
 697.089 1812.55 697.089 1812.55 713 1826 c 24,20,21
 772.368 1866.74 772.368 1866.74 795 1868 c 24,22,23
 819.069 1869.34 819.069 1869.34 821 1832 c 0,24,25
 825.5 1745 825.5 1745 849 1698 c 0,26,27
 880.106 1635.79 880.106 1635.79 955 1646 c 0,28,29
 998.058 1653.47 998.058 1653.47 961 1634 c 0,30,31
 843 1572 843 1572 829 1574 c 24,32,33
 777.242 1575.81 777.242 1575.81 767 1598 c 0,34,35
 744.18 1647.44 744.18 1647.44 721 1664 c 0,36,37
 699.482 1673.41 699.482 1673.41 679 1670 c 0,38,39
 667 1668 667 1668 647 1638 c 24,40,41
 617.73 1595.95 617.73 1595.95 641 1576 c 0,0,1
161 30 m 24,42,43
 103 32 103 32 63 30 c 0,44,45
 31.3588 29.3365 31.3588 29.3365 51 66 c 24,46,47
 75.2067 111.186 75.2067 111.186 123 142 c 24,48,49
 155.363 162.866 155.363 162.866 203 164 c 0,50,51
 287 166 287 166 329 168 c 0,52,53
 325.402 212.399 325.402 212.399 387 228 c 0,54,-1
 407 336 l 0,55,56
 418.011 401.185 418.011 401.185 463 826 c 0,57,58
 481 1054 481 1054 627 1246 c 24,59,60
 670.004 1305 670.004 1305 713 1266 c 24,61,62
 740.607 1240.96 740.607 1240.96 713 1168 c 24,63,64
 695.402 1121.49 695.402 1121.49 657 1118 c 0,65,66
 636.557 1116.14 636.557 1116.14 617 1068 c 0,67,68
 553.455 913.676 553.455 913.676 529 638 c 24,69,70
 507.618 398.915 507.618 398.915 501 372 c 0,71,72
 442.41 108.347 442.41 108.347 331 48 c 0,73,74
 290.082 25.8361 290.082 25.8361 161 30 c 24,42,43
EndSplineSet
Validated: 33
EndChar

StartChar: pelsc2
Encoding: 58421 58421 54
Width: 690
VWidth: 0
Flags: W
LayerCount: 2
Fore
SplineSet
357 862 m 24,0,1
 308.579 822 308.579 822 255 822 c 24,2,3
 194.321 822 194.321 822 183 862 c 24,4,5
 178.643 877.394 178.643 877.394 225 928 c 0,6,7
 343 1060 343 1060 415 1094 c 24,8,9
 464.176 1118.91 464.176 1118.91 473 1078 c 24,10,11
 483.815 1027.86 483.815 1027.86 436.907 993.429 c 152,-1,12
 390 959 390 959 393 988 c 0,13,14
 393.947 997.158 393.947 997.158 389 1012 c 0,15,16
 387.098 1018.66 387.098 1018.66 357 1016 c 0,17,18
 311.092 1011.29 311.092 1011.29 283 950 c 0,19,20
 268.5 918.769 268.5 918.769 291 898 c 4,21,22
 305 886 305 886 347 898 c 24,23,24
 424.553 917.804 424.553 917.804 357 862 c 24,0,1
107 22 m 24,25,26
 47.8108 36.2338 47.8108 36.2338 51 66 c 24,27,28
 54.3261 97.0435 54.3261 97.0435 119 134 c 24,29,30
 145.418 149.096 145.418 149.096 177 138 c 0,31,32
 213.849 125.053 213.849 125.053 229 126 c 0,33,34
 257.618 127.202 257.618 127.202 261 152 c 0,35,36
 264 174 264 174 287.5 325 c 128,-1,37
 311 476 311 476 387 670 c 24,38,39
 412.502 736.06 412.502 736.06 505 716 c 24,40,41
 550.782 706.072 550.782 706.072 553 634 c 24,42,43
 555.332 558.201 555.332 558.201 509 586 c 0,44,45
 478.091 603.055 478.091 603.055 471 604 c 0,46,47
 418.339 599.214 418.339 599.214 415 598 c 0,48,49
 406.925 595.064 406.925 595.064 393 564 c 0,50,51
 376 528 376 528 317 158 c 24,52,53
 298.519 48.4381 298.519 48.4381 213 16 c 0,54,55
 184 5 184 5 107 22 c 24,25,26
EndSplineSet
Validated: 33
EndChar

StartChar: pelsl2
Encoding: 58422 58422 55
Width: 660
VWidth: 0
Flags: W
LayerCount: 2
Fore
SplineSet
369 1118 m 24,0,1
 317.725 1067.61 317.725 1067.61 247 1066 c 24,2,3
 188.789 1064.68 188.789 1064.68 193 1114 c 0,4,5
 218.114 1430.82 218.114 1430.82 255 1480 c 0,6,7
 269.727 1499.64 269.727 1499.64 245 1512 c 0,8,9
 237 1516 237 1516 213 1510 c 24,10,11
 191.035 1506.86 191.035 1506.86 213 1544 c 24,12,13
 258.945 1605.97 258.945 1605.97 299 1626 c 152,-1,14
 338.977 1645.99 338.977 1645.99 325 1600 c 0,15,16
 260.014 1401.1 260.014 1401.1 253 1350 c 0,17,18
 231.475 1193.17 231.475 1193.17 275 1154 c 0,19,20
 303.491 1128.36 303.491 1128.36 379 1168 c 0,21,22
 459 1210 459 1210 369 1118 c 24,0,1
279 28 m 24,23,24
 242.198 0.870054 242.198 0.870054 91 30 c 24,25,26
 50.8134 37.7424 50.8134 37.7424 61 70 c 24,27,28
 73.1105 108.35 73.1105 108.35 127 144 c 24,29,30
 154.168 161.973 154.168 161.973 191 156 c 0,31,32
 253.76 145.823 253.76 145.823 283 150 c 0,33,34
 299.683 151.854 299.683 151.854 319 176 c 0,35,36
 327 186 327 186 321 544 c 24,37,38
 320.531 613.146 320.531 613.146 371 786 c 24,39,40
 376.43 804.598 376.43 804.598 401 818 c 0,41,42
 440.448 839.517 440.448 839.517 403 852 c 0,43,44
 391 856 391 856 381 882 c 24,45,46
 369.527 909.04 369.527 909.04 385 932 c 24,47,48
 404.212 960.509 404.212 960.509 443 974 c 24,49,50
 477 985.826 477 985.826 477 964 c 0,51,52
 478.738 935.719 478.738 935.719 483 924 c 0,53,54
 491 898 491 898 521 862 c 24,55,56
 537.764 841.703 537.764 841.703 507 800 c 24,57,58
 457.213 732.511 457.213 732.511 431 740 c 0,59,60
 416.311 740.025 416.311 740.025 401 706 c 0,61,62
 383 666 383 666 379 382 c 24,63,-1
 375 184 l 0,64,65
 341 76 341 76 279 28 c 24,23,24
EndSplineSet
Validated: 33
EndChar

StartChar: pelsm2
Encoding: 58423 58423 56
Width: 1092
VWidth: 0
Flags: W
LayerCount: 2
Fore
SplineSet
341 1220 m 24,0,1
 301.18 1205.74 301.18 1205.74 347 1378 c 24,2,3
 365 1436 365 1436 383 1382 c 0,4,5
 392.408 1351.91 392.408 1351.91 399 1344 c 0,6,7
 404.049 1337.27 404.049 1337.27 425 1340 c 0,8,9
 483.556 1350.18 483.556 1350.18 531 1400 c 0,10,11
 568.222 1439.08 568.222 1439.08 619 1422 c 0,12,13
 657.977 1408.89 657.977 1408.89 653 1384 c 0,14,15
 649.757 1367.78 649.757 1367.78 663 1364 c 0,16,17
 676.695 1360.04 676.695 1360.04 701 1378 c 0,18,19
 775.392 1436.22 775.392 1436.22 825 1450 c 24,20,21
 969 1490 969 1490 953 1420 c 0,22,23
 955.114 1385.88 955.114 1385.88 881 1320 c 0,24,25
 865 1304.03 865 1304.03 865 1244 c 0,26,27
 865 1224 865 1224 935 1210 c 24,28,29
 958.577 1204.84 958.577 1204.84 913 1182 c 24,30,31
 837.599 1163.72 837.599 1163.72 803 1178 c 24,32,33
 760.716 1195.45 760.716 1195.45 787 1234 c 0,34,35
 847 1318 847 1318 847 1333 c 0,36,37
 847 1364 847 1364 814 1368 c 0,38,39
 760.467 1374.49 760.467 1374.49 663 1342 c 0,40,41
 654.097 1339.03 654.097 1339.03 603 1274 c 0,42,43
 581 1246 581 1246 559 1194 c 24,44,45
 541.069 1154.44 541.069 1154.44 531 1188 c 0,46,47
 527.117 1198.18 527.117 1198.18 541 1220 c 0,48,49
 559 1249.25 559 1249.25 559 1304 c 0,50,51
 559 1328.67 559 1328.67 531 1338 c 0,52,53
 516.939 1342.33 516.939 1342.33 447 1318 c 0,54,55
 400.665 1301.88 400.665 1301.88 391 1260 c 0,56,57
 385 1234 385 1234 341 1220 c 24,0,1
247 52 m 24,58,59
 115.131 48.1498 115.131 48.1498 81 56 c 24,60,61
 50.2491 63.0727 50.2491 63.0727 47 98 c 24,62,63
 44.7612 122.067 44.7612 122.067 73 142 c 24,64,65
 115.188 171.78 115.188 171.78 149 170 c 0,66,67
 295.602 168.311 295.602 168.311 333 160 c 0,68,69
 353.136 160.447 353.136 160.447 379 182 c 0,70,71
 391 192 391 192 385 228 c 24,72,73
 379.027 276.941 379.027 276.941 429 486 c 24,74,75
 473.539 672.321 473.539 672.321 505 730 c 0,76,77
 517 752 517 752 513 920 c 24,78,79
 512.841 959.487 512.841 959.487 541 980 c 24,80,81
 619.977 1037.54 619.977 1037.54 653 1022 c 24,82,83
 688.623 1005.24 688.623 1005.24 643 932 c 24,84,85
 615.145 887.285 615.145 887.285 577 900 c 0,86,87
 557 906.667 557 906.667 557 876 c 0,88,89
 557 804.5 557 804.5 551 760 c 0,90,91
 548.138 741.505 548.138 741.505 473 466 c 0,92,93
 455 400 455 400 455 170 c 24,94,95
 454.773 120.601 454.773 120.601 355 64 c 24,96,97
 338.56 54.6733 338.56 54.6733 247 52 c 24,58,59
EndSplineSet
Validated: 33
EndChar

StartChar: pelsn2
Encoding: 58424 58424 57
Width: 720
VWidth: 0
Flags: W
LayerCount: 2
Fore
SplineSet
141 818 m 4,0,1
 132 835 132 835 153 958 c 24,2,3
 160.123 996.351 160.123 996.351 191 1006 c 24,4,5
 223 1016 223 1016 217 978 c 0,6,7
 214.373 959.614 214.373 959.614 243 962 c 0,8,9
 247.676 962.39 247.676 962.39 295 998 c 0,10,11
 402 1077 402 1077 403 1028 c 24,12,13
 404.823 990.558 404.823 990.558 391 956 c 24,14,15
 359.652 877.63 359.652 877.63 335 858 c 24,16,17
 293.783 826.115 293.783 826.115 317 874 c 0,18,19
 333 906 333 906 335 918 c 0,20,21
 341.316 941.684 341.316 941.684 327 956 c 0,22,23
 315 968 315 968 281 956 c 0,24,25
 264 950 264 950 203 908 c 0,26,27
 170.205 885.64 170.205 885.64 163 828 c 0,28,29
 157.786 786.292 157.786 786.292 141 818 c 4,0,1
159 66 m 24,30,31
 87.9605 58.6877 87.9605 58.6877 73 60 c 0,32,33
 44 61 44 61 45 76 c 24,34,35
 59.0342 127.465 59.0342 127.465 145 180 c 24,36,37
 188.899 206.827 188.899 206.827 225 186 c 0,38,39
 292.143 145.714 292.143 145.714 299 144 c 0,40,41
 338.07 135.07 338.07 135.07 361 158 c 0,42,43
 368.176 165.177 368.176 165.177 371 204 c 0,44,45
 374.266 268.508 374.266 268.508 413 564 c 24,46,47
 438.256 756.675 438.256 756.675 539 820 c 0,48,49
 575.008 842.634 575.008 842.634 581 794 c 24,50,51
 592.1 703.913 592.1 703.913 507 672 c 0,52,53
 485.865 664.074 485.865 664.074 479 600 c 0,54,55
 448.064 328.684 448.064 328.684 445 308 c 0,56,57
 412.849 111.072 412.849 111.072 346 70 c 24,58,59
 250.185 11.5033 250.185 11.5033 227 38 c 0,60,61
 198.386 71.9124 198.386 71.9124 185 70 c 0,62,63
 176 69 176 69 159 66 c 24,30,31
EndSplineSet
Validated: 33
EndChar

StartChar: pelsn3
Encoding: 58425 58425 58
Width: 1101
VWidth: 0
Flags: W
LayerCount: 2
Fore
SplineSet
713 916 m 24,0,1
 697.652 911.814 697.652 911.814 699 942 c 0,2,3
 703 1016.67 703 1016.67 703 1080 c 0,4,5
 703 1089 703 1089 685 1104 c 24,6,7
 675.548 1129.78 675.548 1129.78 681 1140 c 24,8,9
 713.977 1201.83 713.977 1201.83 733 1194 c 0,10,11
 767.373 1180.46 767.373 1180.46 771 1146 c 0,12,13
 774 1117.5 774 1117.5 795 1122 c 0,14,15
 807.3 1128.24 807.3 1128.24 847 1160 c 4,16,17
 904 1208 904 1208 923 1204 c 24,18,19
 955.805 1198.83 955.805 1198.83 941 1160 c 0,20,21
 912.251 1086.79 912.251 1086.79 913 1071 c 0,22,23
 918.911 986.949 918.911 986.949 954 1007 c 0,24,25
 979.17 1021.38 979.17 1021.38 963 996 c 0,26,27
 948.111 972.628 948.111 972.628 889 952 c 24,28,29
 825.285 929.765 825.285 929.765 847 988 c 0,30,31
 874.672 1062.21 874.672 1062.21 877 1082 c 0,32,33
 880.863 1114.83 880.863 1114.83 861 1124 c 0,34,35
 846.572 1130.31 846.572 1130.31 813 1112 c 0,36,37
 777.7 1092.75 777.7 1092.75 763 1058 c 0,38,39
 749 1027 749 1027 743 954 c 24,40,41
 731.385 921.014 731.385 921.014 713 916 c 24,0,1
207 48 m 24,42,43
 107.659 34.9001 107.659 34.9001 75 42 c 24,44,45
 58.4351 45.6011 58.4351 45.6011 69 78 c 24,46,47
 79.6977 110.806 79.6977 110.806 105 134 c 24,48,49
 141.852 167.781 141.852 167.781 165 166 c 0,50,51
 249.57 158.41 249.57 158.41 269 164 c 0,52,53
 341 183 341 183 361 246 c 0,54,55
 366.829 276.891 366.829 276.891 361 302 c 0,56,57
 349 364 349 364 351 744 c 24,58,59
 351.122 851.978 351.122 851.978 373 940 c 24,60,61
 397.539 1038.74 397.539 1038.74 435 1082 c 24,62,63
 489.151 1144.53 489.151 1144.53 541 1134 c 24,64,65
 580.944 1125.89 580.944 1125.89 563 1056 c 24,66,67
 557.244 1033.58 557.244 1033.58 503 986 c 24,68,69
 465.124 952.775 465.124 952.775 449 956 c 0,70,71
 443 957 443 957 441 916 c 0,72,73
 439.645 897.23 439.645 897.23 445 418 c 0,74,75
 447 211 447 211 257 66 c 24,76,77
 239.77 52.3213 239.77 52.3213 207 48 c 24,42,43
EndSplineSet
Validated: 33
EndChar

StartChar: pelsst2
Encoding: 58426 58426 59
Width: 900
VWidth: 0
Flags: W
LayerCount: 2
Fore
SplineSet
511 846 m 24,0,1
 439.023 790.56 439.023 790.56 431 828 c 0,2,3
 408.247 934.182 408.247 934.182 439 988 c 0,4,5
 447 1002 447 1002 431 1014 c 4,6,7
 427 1017 427 1017 399 1024 c 24,8,9
 353.347 1040.7 353.347 1040.7 383 1058 c 0,10,11
 460 1100 460 1100 531 1138 c 24,12,13
 576.087 1160.98 576.087 1160.98 595 1120 c 0,14,15
 601.109 1106.76 601.109 1106.76 659 1114 c 0,16,17
 664.818 1114.73 664.818 1114.73 695 1160 c 0,18,19
 724 1205 724 1205 735 1146 c 24,20,21
 744.576 1082.29 744.576 1082.29 677 1064 c 0,22,23
 596.481 1042.21 596.481 1042.21 553 1060 c 0,24,25
 496.731 1083.02 496.731 1083.02 465 1046 c 0,26,27
 463.52 1046.18 463.52 1046.18 459 1004 c 0,28,29
 456 976 456 976 459 922 c 0,30,31
 462.941 874.333 462.941 874.333 515 894 c 24,32,33
 563.418 910.923 563.418 910.923 511 846 c 24,0,1
155 712 m 24,34,35
 160.371 665.807 160.371 665.807 117 664 c 24,36,37
 106.791 663.575 106.791 663.575 107 710 c 0,38,39
 109 936 109 936 105 944 c 0,40,41
 87 979 87 979 87 998 c 0,42,43
 84.5226 1027.73 84.5226 1027.73 111 1052 c 128,-1,44
 137.459 1076.25 137.459 1076.25 138 1086 c 0,45,46
 139 1104 139 1104 139 1180 c 0,47,48
 139.461 1195.64 139.461 1195.64 185 1276 c 0,49,50
 253 1396 253 1396 277 1414 c 24,51,52
 329.433 1458.01 329.433 1458.01 343 1410 c 0,53,54
 364.718 1333.15 364.718 1333.15 349 1286 c 24,55,56
 314.845 1225.24 314.845 1225.24 309 1272 c 0,57,58
 305 1304 305 1304 295 1310 c 0,59,60
 284.461 1318.88 284.461 1318.88 267 1316.5 c 0,61,62
 256.836 1315.11 256.836 1315.11 235 1286 c 0,63,64
 191.756 1174.34 191.756 1174.34 187 1156 c 0,65,66
 180 1128 180 1128 179 1060 c 0,67,68
 179 1030.67 179 1030.67 209 1024 c 0,69,70
 244 1016 244 1016 341 1038 c 24,71,72
 367.52 1043.14 367.52 1043.14 375 1002 c 24,73,74
 379.523 977.126 379.523 977.126 353 972 c 0,75,76
 234 952 234 952 209 947 c 0,77,78
 189.855 943.171 189.855 943.171 167 900 c 0,79,80
 158 883 158 883 155 848 c 24,81,-1
 155 712 l 24,34,35
523 40 m 24,82,83
 475.244 15.0151 475.244 15.0151 309 48 c 24,84,85
 265.55 56.6209 265.55 56.6209 271 90 c 24,86,87
 276.082 121.126 276.082 121.126 325 146 c 24,88,89
 343.797 155.558 343.797 155.558 389 150 c 0,90,91
 514.889 132.784 514.889 132.784 524 136 c 0,92,93
 558 148 558 148 561 170 c 0,94,95
 573.03 231.916 573.03 231.916 619 710 c 24,96,97
 624.294 759.942 624.294 759.942 673 902 c 24,98,99
 696.53 970.629 696.53 970.629 715 990 c 24,100,101
 747.623 1024.21 747.623 1024.21 755 988 c 0,102,103
 762.77 949.857 762.77 949.857 759 882 c 0,104,105
 756.135 830.432 756.135 830.432 713 852 c 0,106,107
 693 862 693 862 684.5 854 c 0,108,109
 674.332 844.43 674.332 844.43 673 824 c 0,110,111
 664 717 664 717 611 206 c 24,112,113
 597.589 79.0232 597.589 79.0232 523 40 c 24,82,83
EndSplineSet
Validated: 33
EndChar

StartChar: pelsst1lsm4
Encoding: 58427 58427 60
Width: 1188
VWidth: 0
Flags: W
LayerCount: 2
Fore
SplineSet
675 1316 m 24,0,1
 571.672 1298.19 571.672 1298.19 563 1338 c 0,2,3
 541.463 1436.87 541.463 1436.87 587 1490 c 0,4,5
 600.176 1504.82 600.176 1504.82 587 1518 c 0,6,7
 582 1523 582 1523 545 1516 c 24,8,9
 533.542 1514.59 533.542 1514.59 547 1540 c 24,10,11
 573.847 1580.85 573.847 1580.85 591 1586 c 24,12,13
 664.296 1607.99 664.296 1607.99 707 1588 c 0,14,15
 747.744 1567.53 747.744 1567.53 765 1570 c 0,16,17
 807.717 1576.1 807.717 1576.1 845 1608 c 0,18,19
 943 1689 943 1689 861 1596 c 24,20,21
 813.817 1540.21 813.817 1540.21 759 1526 c 0,22,23
 707.652 1512.85 707.652 1512.85 651 1518 c 0,24,25
 625.061 1520.16 625.061 1520.16 614.03 1500.08 c 0,26,27
 592.499 1460.88 592.499 1460.88 599 1430 c 0,28,29
 607.113 1387.41 607.113 1387.41 663 1382 c 0,30,31
 697 1379 697 1379 719 1390 c 24,32,33
 760.701 1407.86 760.701 1407.86 737 1368 c 24,34,35
 709.631 1321.97 709.631 1321.97 675 1316 c 24,0,1
361 1230 m 24,36,37
 342.013 1234.52 342.013 1234.52 345 1256 c 0,38,39
 367.544 1410.74 367.544 1410.74 365 1426 c 0,40,41
 358.705 1459.57 358.705 1459.57 349 1462 c 0,42,43
 316.353 1470.71 316.353 1470.71 309 1456 c 0,44,45
 299 1437 299 1437 279 1434 c 24,46,47
 264.19 1434.46 264.19 1434.46 279 1470 c 0,48,49
 303.343 1533.29 303.343 1533.29 335 1558 c 0,50,51
 369 1595.11 369 1595.11 369 1604 c 0,52,53
 369 1619 369 1619 379 1678 c 24,54,55
 385.89 1718.08 385.89 1718.08 449 1790 c 24,56,57
 503.097 1851.65 503.097 1851.65 551 1874 c 24,58,59
 596.08 1895.04 596.08 1895.04 599 1860 c 0,60,61
 604 1812 604 1812 599 1738 c 24,62,63
 597.076 1702.17 597.076 1702.17 561 1686 c 24,64,65
 537.622 1675.52 537.622 1675.52 541 1712 c 0,66,67
 547 1766 547 1766 545 1778 c 0,68,69
 541.724 1794.38 541.724 1794.38 511 1786 c 0,70,71
 499.621 1783.11 499.621 1783.11 461 1752 c 0,72,73
 420.922 1684.88 420.922 1684.88 409 1644 c 0,74,75
 402 1620 402 1620 421 1502 c 24,76,77
 427.631 1456.06 427.631 1456.06 391 1290 c 24,78,79
 381.031 1244.81 381.031 1244.81 361 1230 c 24,36,37
91 524 m 0,80,81
 97.322 617.418 97.322 617.418 107 640 c 0,82,83
 115.308 659.385 115.308 659.385 97 654 c 0,84,85
 79 649 79 649 53 660 c 24,86,87
 33.2132 666.716 33.2132 666.716 107 720 c 24,88,89
 136.81 739.662 136.81 739.662 147 722 c 0,90,91
 165.667 687.333 165.667 687.333 177 686 c 0,92,93
 208.891 683.101 208.891 683.101 227 708 c 0,94,95
 235 719 235 719 269 752 c 24,96,97
 297.032 778.974 297.032 778.974 311 748 c 0,98,99
 336.255 692 336.255 692 355 692 c 0,100,101
 391.643 690.643 391.643 690.643 413 712 c 0,102,103
 429 729 429 729 463 758 c 24,104,105
 501.79 789.874 501.79 789.874 491 732 c 0,106,107
 479.724 663.592 479.724 663.592 479 652 c 0,108,109
 479 628 479 628 505 628 c 0,110,111
 515 628 515 628 533 636 c 24,112,113
 562.006 646.841 562.006 646.841 539 620 c 24,114,115
 490.106 562.957 490.106 562.957 449 538 c 24,116,117
 424.792 523.302 424.792 523.302 427 552 c 0,118,119
 437.88 649.92 437.88 649.92 435 660 c 0,120,121
 430 680 430 680 408.5 680 c 0,122,123
 372.636 680 372.636 680 361 664 c 0,124,125
 320 611 320 611 291 544 c 0,126,127
 265.11 526.776 265.11 526.776 283 568 c 0,128,129
 311.014 629.864 311.014 629.864 309 650 c 0,130,131
 305.304 686.962 305.304 686.962 265 692 c 0,132,133
 233.137 696.085 233.137 696.085 191 670 c 0,134,135
 145.721 641.97 145.721 641.97 131 614 c 0,136,137
 114.822 583.801 114.822 583.801 107 536 c 0,138,139
 98 485 98 485 91 524 c 0,80,81
667 36 m 24,140,141
 596.583 -1.91664 596.583 -1.91664 437 30 c 24,142,143
 400.333 37.3333 400.333 37.3333 427 84 c 24,144,145
 455.212 133.371 455.212 133.371 493 128 c 0,146,147
 558.903 118.633 558.903 118.633 647 130 c 0,148,149
 689.096 135.262 689.096 135.262 701 180 c 0,150,151
 708.64 208.713 708.64 208.713 735 638 c 0,152,153
 746.329 822.508 746.329 822.508 813 1004 c 24,154,155
 853.613 1114.56 853.613 1114.56 951 1226 c 24,156,157
 981.915 1261.38 981.915 1261.38 1007 1226 c 0,158,159
 1048.45 1166.48 1048.45 1166.48 1053 1118 c 24,160,161
 1057.32 1072 1057.32 1072 1000 1072 c 0,162,163
 996.714 1072 996.714 1072 971 1096 c 24,164,165
 950.096 1110.67 950.096 1110.67 943 1112 c 24,166,167
 914.069 1117.42 914.069 1117.42 907 1108 c 24,168,169
 871.259 1060.35 871.259 1060.35 847 984 c 0,170,171
 820.193 899.958 820.193 899.958 787 564 c 24,172,173
 754 234 754 234 749 198 c 0,174,175
 726.263 67.911 726.263 67.911 667 36 c 24,140,141
EndSplineSet
Validated: 1057
EndChar

StartChar: pelst2
Encoding: 58428 58428 61
Width: 802
VWidth: 0
Flags: W
LayerCount: 2
Fore
SplineSet
313 962 m 24,0,1
 250.594 911.771 250.594 911.771 221 928 c 24,2,3
 170.432 955.73 170.432 955.73 189 1030 c 0,4,5
 197.769 1065.08 197.769 1065.08 217 1092 c 4,6,7
 227 1106 227 1106 207 1122 c 0,8,9
 172.097 1146.77 172.097 1146.77 153 1142 c 0,10,11
 145 1140 145 1140 115 1132 c 24,12,13
 99.8249 1129.05 99.8249 1129.05 117 1156 c 24,14,15
 155.404 1199.06 155.404 1199.06 181 1206 c 24,16,17
 212.811 1214.63 212.811 1214.63 235 1188 c 0,18,19
 244.415 1151.53 244.415 1151.53 357 1172 c 0,20,21
 379 1176 379 1176 459 1206 c 0,22,23
 503.577 1219.65 503.577 1219.65 475 1192 c 0,24,25
 409.681 1131.04 409.681 1131.04 329 1140 c 0,26,27
 285.909 1144.79 285.909 1144.79 259 1082 c 0,28,29
 247 1054 247 1054 249 1031 c 128,-1,30
 251 1008 251 1008 303 994 c 24,31,32
 339.288 983.159 339.288 983.159 313 962 c 24,0,1
107 54 m 24,33,34
 58.4225 65.1246 58.4225 65.1246 59 94 c 24,35,36
 59.6499 126.493 59.6499 126.493 109 154 c 24,37,38
 145.094 174.118 145.094 174.118 181 162 c 0,39,40
 337 108 337 108 375 116 c 0,41,42
 417.408 126.164 417.408 126.164 425 154 c 0,43,44
 431 178 431 178 447 690 c 24,45,46
 449.487 758.504 449.487 758.504 503 856 c 24,47,48
 537.84 919.475 537.84 919.475 593 956 c 24,49,50
 623.471 976.177 623.471 976.177 651 954 c 24,51,52
 673.784 935.646 673.784 935.646 665 898 c 24,53,54
 653.773 849.883 653.773 849.883 623 834 c 0,55,56
 571.095 786.844 571.095 786.844 549 790 c 0,57,58
 539.463 781.232 539.463 781.232 509 766 c 0,59,60
 498.067 760.533 498.067 760.533 489 688 c 0,61,62
 487 672 487 672 493 374 c 24,63,64
 495.692 198.438 495.692 198.438 455 118 c 24,65,66
 421.892 52.5549 421.892 52.5549 321 34 c 24,67,68
 250.749 21.0803 250.749 21.0803 107 54 c 24,33,34
EndSplineSet
Validated: 33
EndChar

StartChar: topp1su1lsa6
Encoding: 58429 58429 62
Width: 1754
VWidth: 0
Flags: W
LayerCount: 2
Fore
SplineSet
1317 352 m 0,0,1
 1363 364 1363 364 1344 327 c 0,2,3
 1324.3 288.628 1324.3 288.628 1221 270 c 24,4,5
 1185.98 263.684 1185.98 263.684 1191 336 c 0,6,7
 1202.1 489.545 1202.1 489.545 1299 528 c 24,8,9
 1348.99 547.838 1348.99 547.838 1315 556 c 0,10,11
 1291.71 560.943 1291.71 560.943 1291 564 c 24,12,13
 1288.47 574.976 1288.47 574.976 1309 582 c 24,14,15
 1356.76 598.34 1356.76 598.34 1367 590 c 0,16,17
 1437.4 524 1437.4 524 1447 520 c 0,18,19
 1519.5 490 1519.5 490 1581 502 c 0,20,21
 1681 522 1681 522 1567 460 c 24,22,23
 1485.6 415.784 1485.6 415.784 1419 414 c 152,-1,24
 1352.29 412.213 1352.29 412.213 1343 454 c 0,25,26
 1340.2 468 1340.2 468 1299 468 c 0,27,28
 1287.5 468 1287.5 468 1273 446 c 0,29,30
 1254.94 416.749 1254.94 416.749 1271 370 c 24,31,32
 1280.6 341.55 1280.6 341.55 1317 352 c 0,0,1
943 -108 m 24,33,34
 892.064 -70.4043 892.064 -70.4043 923 -24 c 24,35,36
 964.064 37.5957 964.064 37.5957 1015 0 c 24,37,38
 1048.06 -24.4042 1048.06 -24.4042 1007 -86 c 24,39,40
 976.064 -132.404 976.064 -132.404 943 -108 c 24,33,34
429 286 m 24,41,42
 376.455 293.506 376.455 293.506 369 336 c 24,43,44
 363.424 367.783 363.424 367.783 409 400 c 24,45,46
 441.255 422.801 441.255 422.801 485 418 c 0,47,48
 580.057 410.245 580.057 410.245 679 402 c 0,49,50
 715.606 398.949 715.606 398.949 737 456 c 0,51,52
 743 472 743 472 797 792 c 24,53,54
 831.407 990.136 831.407 990.136 967 1196 c 24,55,56
 1043.15 1311.61 1043.15 1311.61 1071 1208 c 0,57,58
 1096.36 1113.67 1096.36 1113.67 1129 846 c 0,59,60
 1159 600 1159 600 1025 398 c 17,61,62
 1064.3 531.003 1064.3 531.003 1055 604 c 0,63,64
 1024.56 832.113 1024.56 832.113 1021 882 c 0,65,66
 1019 910 1019 910 993 1022 c 0,67,68
 991.067 1029.99 991.067 1029.99 963 1034 c 0,69,70
 954.091 1035.27 954.091 1035.27 929 1006 c 0,71,72
 905 978 905 978 859 698 c 24,73,-1
 797 414 l 24,74,75
 756.387 305.874 756.387 305.874 705 288 c 24,76,77
 620.57 258.633 620.57 258.633 429 286 c 24,41,42
79 28 m 24,78,79
 33.7711 45.0865 33.7711 45.0865 75 110 c 24,80,81
 127.771 193.086 127.771 193.086 173 176 c 24,82,83
 217.771 159.086 217.771 159.086 165 76 c 24,84,85
 123.771 11.0865 123.771 11.0865 79 28 c 24,78,79
EndSplineSet
Validated: 33
EndChar

StartChar: topp1su1
Encoding: 58430 58430 63
Width: 1276
VWidth: 0
Flags: W
LayerCount: 2
Fore
SplineSet
943 -108 m 24,0,1
 892.064 -70.4043 892.064 -70.4043 923 -24 c 24,2,3
 964.064 37.5957 964.064 37.5957 1015 0 c 24,4,5
 1048.06 -24.4042 1048.06 -24.4042 1007 -86 c 24,6,7
 976.064 -132.404 976.064 -132.404 943 -108 c 24,0,1
429 286 m 24,8,9
 376.455 293.506 376.455 293.506 369 336 c 24,10,11
 363.424 367.783 363.424 367.783 409 400 c 24,12,13
 441.255 422.801 441.255 422.801 485 418 c 0,14,15
 580.057 410.245 580.057 410.245 679 402 c 0,16,17
 715.606 398.949 715.606 398.949 737 456 c 0,18,19
 743 472 743 472 797 792 c 24,20,21
 831.407 990.136 831.407 990.136 967 1196 c 24,22,23
 1043.15 1311.61 1043.15 1311.61 1071 1208 c 0,24,25
 1096.36 1113.67 1096.36 1113.67 1129 846 c 0,26,27
 1159 600 1159 600 1025 398 c 17,28,29
 1064.3 531.003 1064.3 531.003 1055 604 c 0,30,31
 1024.56 832.113 1024.56 832.113 1021 882 c 0,32,33
 1019 910 1019 910 993 1022 c 0,34,35
 991.067 1029.99 991.067 1029.99 963 1034 c 0,36,37
 954.091 1035.27 954.091 1035.27 929 1006 c 0,38,39
 905 978 905 978 859 698 c 24,40,-1
 797 414 l 24,41,42
 756.387 305.874 756.387 305.874 705 288 c 24,43,44
 620.57 258.633 620.57 258.633 429 286 c 24,8,9
79 28 m 24,45,46
 33.7711 45.0865 33.7711 45.0865 75 110 c 24,47,48
 127.771 193.086 127.771 193.086 173 176 c 24,49,50
 217.771 159.086 217.771 159.086 165 76 c 24,51,52
 123.771 11.0865 123.771 11.0865 79 28 c 24,45,46
EndSplineSet
Validated: 33
EndChar

StartChar: pesu2lst3
Encoding: 58431 58431 64
Width: 1376
VWidth: 0
Flags: W
LayerCount: 2
Fore
SplineSet
1011 1254 m 24,0,1
 934.564 1214.12 934.564 1214.12 921 1230 c 24,2,3
 891.018 1265.1 891.018 1265.1 929 1350 c 0,4,5
 969.561 1438.28 969.561 1438.28 985 1446 c 0,6,7
 1009 1458 1009 1458 985 1476 c 0,8,9
 965.425 1490.68 965.425 1490.68 943 1492 c 0,10,11
 873.111 1496.11 873.111 1496.11 865.056 1488.06 c 0,12,13
 841.857 1464.86 841.857 1464.86 823 1458 c 24,14,15
 797 1450 797 1450 807 1472 c 0,16,17
 834.241 1523.15 834.241 1523.15 943 1578 c 24,18,19
 1000.38 1606.94 1000.38 1606.94 1037 1588 c 0,20,21
 1106.6 1552 1106.6 1552 1123 1552 c 0,22,23
 1152.67 1552 1152.67 1552 1211 1580 c 0,24,25
 1270.24 1596.43 1270.24 1596.43 1235 1570 c 0,26,27
 1121.73 1481.59 1121.73 1481.59 1063 1476 c 0,28,29
 1033.99 1473.24 1033.99 1473.24 1017 1452 c 0,30,31
 1001.05 1412.16 1001.05 1412.16 977 1340 c 0,32,33
 979 1322.88 979 1322.88 979 1286 c 4,34,35
 979 1276 979 1276 1013 1278 c 24,36,37
 1048.13 1278.29 1048.13 1278.29 1011 1254 c 24,0,1
645 108 m 24,38,39
 601.691 136.873 601.691 136.873 627 178 c 24,40,41
 665.691 240.873 665.691 240.873 709 212 c 24,42,43
 731.691 196.873 731.691 196.873 693 134 c 24,44,45
 667.691 92.8727 667.691 92.8727 645 108 c 24,38,39
627 562 m 24,46,47
 573.866 605.893 573.866 605.893 605 650 c 24,48,49
 645.866 707.893 645.866 707.893 699 664 c 24,50,51
 737.866 631.893 737.866 631.893 697 574 c 24,52,53
 665.866 529.893 665.866 529.893 627 562 c 24,46,47
199 50 m 24,54,55
 77.0625 51.2256 77.0625 51.2256 71 54 c 24,56,57
 55.6149 61.0406 55.6149 61.0406 81 104 c 24,58,59
 96.926 130.952 96.926 130.952 123 142 c 24,60,61
 158.341 156.975 158.341 156.975 199 154 c 0,62,63
 231.021 144.368 231.021 144.368 295 156 c 0,64,65
 321.968 160.903 321.968 160.903 339 212 c 0,66,67
 343.274 229.833 343.274 229.833 349 310 c 0,68,69
 351 342 351 342 361 772 c 24,70,71
 364.417 910.519 364.417 910.519 475 1106 c 24,72,73
 556.148 1249.45 556.148 1249.45 671 1320 c 24,74,75
 734.933 1359.27 734.933 1359.27 755 1278 c 24,76,77
 766.393 1231.86 766.393 1231.86 711 1158 c 0,78,79
 699 1142 699 1142 675 1178 c 24,80,81
 663.988 1192.6 663.988 1192.6 647 1196 c 0,82,83
 618.915 1201.62 618.915 1201.62 599 1190 c 0,84,85
 587.227 1196.31 587.227 1196.31 533 1078 c 0,86,87
 491.116 1003.4 491.116 1003.4 465 838 c 0,88,89
 459 800 459 800 445 628 c 0,90,91
 440.178 573.205 440.178 573.205 449 410 c 0,92,93
 459.707 211.922 459.707 211.922 275 58 c 0,94,95
 263 48 263 48 199 50 c 24,54,55
EndSplineSet
Validated: 33
EndChar

StartChar: pesu2
Encoding: 58432 58432 65
Width: 893
VWidth: 0
Flags: W
LayerCount: 2
Fore
SplineSet
645 108 m 24,0,1
 601.691 136.873 601.691 136.873 627 178 c 24,2,3
 665.691 240.873 665.691 240.873 709 212 c 24,4,5
 731.691 196.873 731.691 196.873 693 134 c 24,6,7
 667.691 92.8727 667.691 92.8727 645 108 c 24,0,1
627 562 m 24,8,9
 573.866 605.893 573.866 605.893 605 650 c 24,10,11
 645.866 707.893 645.866 707.893 699 664 c 24,12,13
 737.866 631.893 737.866 631.893 697 574 c 24,14,15
 665.866 529.893 665.866 529.893 627 562 c 24,8,9
199 50 m 24,16,17
 77.0625 51.2256 77.0625 51.2256 71 54 c 24,18,19
 55.6149 61.0406 55.6149 61.0406 81 104 c 24,20,21
 96.926 130.952 96.926 130.952 123 142 c 24,22,23
 158.341 156.975 158.341 156.975 199 154 c 0,24,25
 231.021 144.368 231.021 144.368 295 156 c 0,26,27
 321.968 160.903 321.968 160.903 339 212 c 0,28,29
 343.274 229.833 343.274 229.833 349 310 c 0,30,31
 351 342 351 342 361 772 c 24,32,33
 364.417 910.519 364.417 910.519 475 1106 c 24,34,35
 556.148 1249.45 556.148 1249.45 671 1320 c 24,36,37
 734.933 1359.27 734.933 1359.27 755 1278 c 24,38,39
 766.393 1231.86 766.393 1231.86 711 1158 c 0,40,41
 699 1142 699 1142 675 1178 c 24,42,43
 663.988 1192.6 663.988 1192.6 647 1196 c 0,44,45
 618.915 1201.62 618.915 1201.62 599 1190 c 0,46,47
 587.227 1196.31 587.227 1196.31 533 1078 c 0,48,49
 491.116 1003.4 491.116 1003.4 465 838 c 0,50,51
 459 800 459 800 445 628 c 0,52,53
 440.178 573.205 440.178 573.205 449 410 c 0,54,55
 459.707 211.922 459.707 211.922 275 58 c 0,56,57
 263 48 263 48 199 50 c 24,16,17
EndSplineSet
Validated: 33
Comment: "pes subbipunctis" 
EndChar

StartChar: pesu2sun1
Encoding: 58433 58433 66
Width: 1172
VWidth: 0
Flags: W
LayerCount: 2
Fore
SplineSet
549 -426 m 24,0,1
 544.756 -418.926 544.756 -418.926 553 -410 c 24,2,3
 771.232 -173.719 771.232 -173.719 815 -138 c 24,4,5
 871.878 -91.5827 871.878 -91.5827 901 -126 c 0,6,7
 929.439 -159.61 929.439 -159.61 939 -162 c 0,8,9
 959 -168 959 -168 1011 -146 c 24,10,11
 1067.16 -123.744 1067.16 -123.744 1027 -168 c 24,12,13
 964.305 -237.093 964.305 -237.093 913 -254 c 24,14,15
 893.877 -260.302 893.877 -260.302 851 -226 c 0,16,17
 841 -218 841 -218 801 -226 c 0,18,19
 766.304 -235.13 766.304 -235.13 753 -244 c 0,20,21
 746 -249 746 -249 573 -412 c 24,22,23
 556.47 -426.747 556.47 -426.747 549 -426 c 24,0,1
777 144 m 24,24,25
 724.301 192.397 724.301 192.397 765 246 c 24,26,27
 806.301 300.397 806.301 300.397 859 252 c 24,28,29
 904.301 210.397 904.301 210.397 863 156 c 24,30,31
 822.301 102.397 822.301 102.397 777 144 c 24,24,25
713 508 m 24,32,33
 669.707 537.972 669.707 537.972 713 588 c 24,34,35
 759.707 641.972 759.707 641.972 803 612 c 24,36,37
 837.707 587.972 837.707 587.972 791 534 c 24,38,39
 747.707 483.972 747.707 483.972 713 508 c 24,32,33
109 78 m 24,40,41
 59.5152 89.6449 59.5152 89.6449 45 156 c 24,42,43
 39.8133 179.711 39.8133 179.711 81 206 c 24,44,45
 104.888 221.248 104.888 221.248 139 216 c 0,46,47
 176.757 209.959 176.757 209.959 217 208 c 0,48,49
 273.823 205.234 273.823 205.234 337 300 c 0,50,51
 359.667 334 359.667 334 379 424 c 0,52,53
 468.466 837.394 468.466 837.394 571 1070 c 24,54,55
 620.141 1181.48 620.141 1181.48 729 1218 c 24,56,57
 818.393 1247.99 818.393 1247.99 881 1174 c 24,58,59
 907.166 1143.08 907.166 1143.08 839 1088 c 0,60,61
 823.58 1076.03 823.58 1076.03 759 1098 c 24,62,63
 725.073 1108.75 725.073 1108.75 713 1106 c 24,64,65
 668.955 1095.95 668.955 1095.95 645 1072 c 24,66,67
 615.333 1042.33 615.333 1042.33 587 980 c 0,68,69
 553 904 553 904 441 378 c 24,70,71
 396.063 171.5 396.063 171.5 251 66 c 0,72,73
 229 50 229 50 109 78 c 24,40,41
EndSplineSet
Validated: 33
EndChar

StartChar: pesun3lss1lsa3
Encoding: 58434 58434 67
Width: 1726
VWidth: 0
Flags: W
LayerCount: 2
Fore
SplineSet
1267 742 m 0,0,1
 1289 744 1289 744 1307 752 c 24,2,3
 1330.83 760.845 1330.83 760.845 1299 722 c 24,4,5
 1211.47 660.299 1211.47 660.299 1185 666 c 24,6,7
 1120.73 679.844 1120.73 679.844 1169 750 c 24,8,9
 1267.05 892.494 1267.05 892.494 1335 884 c 0,10,11
 1353 882 1353 882 1349 902 c 24,12,-1
 1333 912 l 0,13,14
 1325 912 1325 912 1289 920 c 24,15,16
 1262.09 926.818 1262.09 926.818 1285 944 c 24,17,18
 1328.16 976.369 1328.16 976.369 1377 986 c 24,19,20
 1421.98 994.869 1421.98 994.869 1427 972 c 0,21,22
 1445.73 875.996 1445.73 875.996 1461 864 c 0,23,24
 1522.84 809.892 1522.84 809.892 1578.92 842.946 c 128,-1,25
 1635 876 1635 876 1581 828 c 24,26,27
 1527.79 778.573 1527.79 778.573 1431 768 c 24,28,29
 1358.25 760.053 1358.25 760.053 1343 802 c 0,30,31
 1335 824 1335 824 1315 836 c 0,32,33
 1299.9 845.061 1299.9 845.061 1279 832 c 0,34,35
 1263 822 1263 822 1237 776 c 24,36,37
 1236.28 739.207 1236.28 739.207 1267 742 c 0,0,1
751 -544 m 24,38,39
 738.318 -540.541 738.318 -540.541 751 -524 c 24,40,41
 962.539 -248.079 962.539 -248.079 1027 -184 c 24,42,43
 1104.25 -127.015 1104.25 -127.015 1089 -188 c 0,44,45
 1076.2 -239.2 1076.2 -239.2 1107 -248 c 0,46,47
 1121 -252 1121 -252 1161 -256 c 24,48,49
 1183.37 -259.5 1183.37 -259.5 1161 -284 c 24,50,51
 1109.88 -339.991 1109.88 -339.991 1077 -348 c 24,52,53
 1027.79 -359.987 1027.79 -359.987 1005 -322 c 0,54,55
 997.174 -308.957 997.174 -308.957 961 -318 c 0,56,57
 942.333 -322.667 942.333 -322.667 935 -330 c 4,58,59
 925 -342 925 -342 773 -530 c 24,60,61
 759.07 -546.201 759.07 -546.201 751 -544 c 24,38,39
747 -124 m 24,62,63
 735.097 -123.084 735.097 -123.084 747 -108 c 24,64,65
 924.838 117.364 924.838 117.364 979 170 c 24,66,67
 1017.77 207.681 1017.77 207.681 1031 168 c 0,68,69
 1037.55 148.364 1037.55 148.364 1055 144 c 0,70,71
 1071 140 1071 140 1103 144 c 24,72,73
 1127.72 145.643 1127.72 145.643 1113 124 c 24,74,75
 1069.39 59.8743 1069.39 59.8743 1035 44 c 0,76,77
 1005 30 1005 30 957 42 c 24,78,79
 923.392 42 923.392 42 911 42 c 0,80,81
 907.396 42.7167 907.396 42.7167 889 28 c 0,82,83
 879 20 879 20 773 -110 c 24,84,85
 760.675 -125.052 760.675 -125.052 747 -124 c 24,62,63
693 172 m 24,86,87
 681.797 173.245 681.797 173.245 693 192 c 0,88,89
 869 490 869 490 953 558 c 24,90,91
 981.99 583.367 981.99 583.367 1014.45 572.685 c 16,92,93
 1037 565.265 1037 565.265 1037 526 c 0,94,95
 1037 512 1037 512 1075 520 c 24,96,97
 1104.4 525.023 1104.4 525.023 1079 498 c 24,98,99
 1018.5 433.635 1018.5 433.635 981 420 c 24,100,101
 942.923 406.154 942.923 406.154 925 442 c 0,102,103
 919 454 919 454 885 442 c 24,104,-1
 863 426 l 0,105,106
 855 412 855 412 711 190 c 24,107,108
 698.541 171.384 698.541 171.384 693 172 c 24,86,87
347 818 m 24,109,110
 347.658 789.079 347.658 789.079 295 772 c 24,111,112
 271.041 764.228 271.041 764.228 273 794 c 0,113,114
 270.528 944.111 270.528 944.111 275 962 c 0,115,116
 277 970 277 970 261 986 c 24,117,118
 242.122 1007.58 242.122 1007.58 247 1020 c 24,119,120
 252.663 1034.42 252.663 1034.42 283 1042 c 0,121,122
 291.244 1050.41 291.244 1050.41 315 1090 c 0,123,124
 321 1100 321 1100 395 1262 c 24,125,126
 422.369 1318.81 422.369 1318.81 537 1374 c 24,127,128
 561.853 1385.97 561.853 1385.97 611 1366 c 24,129,130
 652.296 1349.22 652.296 1349.22 665 1322 c 24,131,132
 672.991 1304.88 672.991 1304.88 653 1276 c 24,133,134
 634.454 1249.21 634.454 1249.21 611 1244 c 24,135,136
 581.545 1237.45 581.545 1237.45 563 1256 c 0,137,138
 539 1282 539 1282 528 1294 c 0,139,140
 509.158 1301.36 509.158 1301.36 477 1296 c 0,141,142
 458.363 1292.89 458.363 1292.89 439 1268 c 0,143,144
 428.333 1254.67 428.333 1254.67 349 1062 c 0,145,146
 335 1028 335 1028 347 818 c 24,109,110
113 50 m 24,147,148
 61.2055 56.1844 61.2055 56.1844 65 76 c 24,149,150
 71.1802 108.274 71.1802 108.274 131 144 c 24,151,152
 175.262 170.434 175.262 170.434 209 162 c 0,153,154
 289 142 289 142 339 142 c 0,155,156
 365 142 365 142 409 172 c 0,157,158
 495.462 252.923 495.462 252.923 565 392 c 0,159,160
 577 416 577 416 635 742 c 24,161,162
 668.877 925.373 668.877 925.373 735 1016 c 24,163,164
 819.17 1131.36 819.17 1131.36 975 1208 c 24,165,166
 1036.3 1238.15 1036.3 1238.15 1101 1196 c 24,167,168
 1121.06 1182.93 1121.06 1182.93 1107 1122 c 24,169,170
 1098.05 1083.21 1098.05 1083.21 1071 1066 c 24,171,172
 1046.4 1050.34 1046.4 1050.34 1019 1066 c 0,173,174
 972.692 1092.46 972.692 1092.46 965 1094 c 0,175,176
 929.305 1102.24 929.305 1102.24 895 1096 c 0,177,178
 834.798 1083.96 834.798 1083.96 807 1044 c 0,179,180
 775.352 998.506 775.352 998.506 741 884 c 0,181,182
 735 864 735 864 709 664 c 24,183,184
 689.83 523.305 689.83 523.305 535 268 c 24,185,186
 429.335 93.7656 429.335 93.7656 333 44 c 24,187,188
 301.131 27.5367 301.131 27.5367 113 50 c 24,147,148
EndSplineSet
Validated: 3105
EndChar

StartChar: pesun3
Encoding: 58435 58435 68
Width: 1300
VWidth: 0
Flags: W
LayerCount: 2
Fore
SplineSet
751 -544 m 24,0,1
 738.318 -540.541 738.318 -540.541 751 -524 c 24,2,3
 962.539 -248.079 962.539 -248.079 1027 -184 c 24,4,5
 1104.25 -127.015 1104.25 -127.015 1089 -188 c 0,6,7
 1076.2 -239.2 1076.2 -239.2 1107 -248 c 0,8,9
 1121 -252 1121 -252 1161 -256 c 24,10,11
 1183.37 -259.5 1183.37 -259.5 1161 -284 c 24,12,13
 1109.88 -339.991 1109.88 -339.991 1077 -348 c 24,14,15
 1027.79 -359.987 1027.79 -359.987 1005 -322 c 0,16,17
 997.174 -308.957 997.174 -308.957 961 -318 c 0,18,19
 942.333 -322.667 942.333 -322.667 935 -330 c 0,20,21
 925 -342 925 -342 773 -530 c 24,22,23
 759.07 -546.201 759.07 -546.201 751 -544 c 24,0,1
747 -124 m 24,24,25
 735.097 -123.084 735.097 -123.084 747 -108 c 24,26,27
 924.838 117.364 924.838 117.364 979 170 c 24,28,29
 1017.77 207.681 1017.77 207.681 1031 168 c 0,30,31
 1037.55 148.364 1037.55 148.364 1055 144 c 0,32,33
 1071 140 1071 140 1103 144 c 24,34,35
 1127.72 145.643 1127.72 145.643 1113 124 c 24,36,37
 1069.39 59.8743 1069.39 59.8743 1035 44 c 0,38,39
 1005 30 1005 30 957 42 c 24,40,41
 923.392 42 923.392 42 911 42 c 0,42,43
 907.396 42.7167 907.396 42.7167 889 28 c 0,44,45
 879 20 879 20 773 -110 c 24,46,47
 760.675 -125.052 760.675 -125.052 747 -124 c 24,24,25
693 172 m 24,48,49
 681.797 173.245 681.797 173.245 693 192 c 0,50,51
 869 490 869 490 953 558 c 24,52,53
 981.99 583.367 981.99 583.367 1014.45 572.685 c 16,54,55
 1037 565.265 1037 565.265 1037 526 c 0,56,57
 1037 512 1037 512 1075 520 c 24,58,59
 1104.4 525.023 1104.4 525.023 1079 498 c 24,60,61
 1018.5 433.635 1018.5 433.635 981 420 c 24,62,63
 942.923 406.154 942.923 406.154 925 442 c 0,64,65
 919 454 919 454 885 442 c 24,66,-1
 863 426 l 0,67,68
 855 412 855 412 711 190 c 24,69,70
 698.541 171.384 698.541 171.384 693 172 c 24,48,49
113 50 m 24,71,72
 61.2055 56.1844 61.2055 56.1844 65 76 c 24,73,74
 71.1802 108.274 71.1802 108.274 131 144 c 24,75,76
 175.262 170.434 175.262 170.434 209 162 c 0,77,78
 289 142 289 142 339 142 c 0,79,80
 365 142 365 142 409 172 c 0,81,82
 495.462 252.923 495.462 252.923 565 392 c 0,83,84
 577 416 577 416 635 742 c 24,85,86
 668.877 925.373 668.877 925.373 735 1016 c 24,87,88
 819.17 1131.36 819.17 1131.36 975 1208 c 24,89,90
 1036.3 1238.15 1036.3 1238.15 1101 1196 c 24,91,92
 1121.06 1182.93 1121.06 1182.93 1107 1122 c 24,93,94
 1098.05 1083.21 1098.05 1083.21 1071 1066 c 24,95,96
 1046.4 1050.34 1046.4 1050.34 1019 1066 c 0,97,98
 972.692 1092.46 972.692 1092.46 965 1094 c 0,99,100
 929.305 1102.24 929.305 1102.24 895 1096 c 0,101,102
 834.798 1083.96 834.798 1083.96 807 1044 c 0,103,104
 775.352 998.506 775.352 998.506 741 884 c 0,105,106
 735 864 735 864 709 664 c 24,107,108
 689.83 523.305 689.83 523.305 535 268 c 24,109,110
 429.335 93.7656 429.335 93.7656 333 44 c 24,111,112
 301.131 27.5367 301.131 27.5367 113 50 c 24,71,72
EndSplineSet
Validated: 33
EndChar

StartChar: pf
Encoding: 58436 58436 69
Width: 1214
VWidth: 0
Flags: W
LayerCount: 2
Fore
SplineSet
83 414 m 24,0,1
 55.6243 425.136 55.6243 425.136 53 468 c 24,2,3
 51.4561 493.218 51.4561 493.218 77 512 c 24,4,5
 95.1893 525.374 95.1893 525.374 121 518 c 0,6,7
 177 502 177 502 195 508 c 0,8,9
 227 518 227 518 405 692 c 24,10,11
 453.873 738.706 453.873 738.706 455 682 c 0,12,13
 452.217 583.304 452.217 583.304 467 332 c 0,14,15
 470.778 264 470.778 264 507 264 c 0,16,17
 511.857 263.345 511.857 263.345 551 314 c 0,18,19
 603.8 381.466 603.8 381.466 697 630 c 0,20,21
 709 662 709 662 781 882 c 24,22,23
 816.473 987.66 816.473 987.66 887 1048 c 24,24,25
 939.218 1092.68 939.218 1092.68 961 1036 c 0,26,27
 1175 468 1175 468 961 122 c 17,28,29
 999 214 999 214 1013 350 c 0,30,31
 1019.99 405.763 1019.99 405.763 1001 590 c 0,32,33
 997.404 627.134 997.404 627.134 943 734 c 24,34,35
 928.736 762.684 928.736 762.684 921 800 c 24,36,37
 906.098 871.881 906.098 871.881 909 898 c 0,38,39
 915.373 961.729 915.373 961.729 869 954 c 0,40,41
 859.821 949.949 859.821 949.949 837 918 c 0,42,43
 795.131 857.49 795.131 857.49 775 782 c 0,44,45
 767 752 767 752 645 380 c 24,46,47
 587.143 200.126 587.143 200.126 503 94 c 24,48,49
 450.216 27.425 450.216 27.425 423 100 c 0,50,51
 405 148 405 148 391 388 c 24,52,53
 388.146 519.552 388.146 519.552 385 540 c 0,54,55
 381.195 568.537 381.195 568.537 361 582 c 0,56,57
 347.216 591.189 347.216 591.189 323 570 c 0,58,59
 287 536 287 536 229 460 c 24,60,61
 205.965 431.017 205.965 431.017 171 420 c 24,62,63
 113.098 401.757 113.098 401.757 83 414 c 24,0,1
EndSplineSet
Validated: 33
Comment: "porrectus flexus" 
EndChar

StartChar: pf1
Encoding: 58437 58437 70
Width: 1152
VWidth: 0
Flags: W
LayerCount: 2
Fore
SplineSet
109 598 m 24,0,1
 62.3448 609.31 62.3448 609.31 47 640 c 24,2,3
 34.2245 665.551 34.2245 665.551 61 694 c 24,4,5
 110.834 746.949 110.834 746.949 143 742 c 0,6,7
 240.197 734.998 240.197 734.998 251 744 c 0,8,9
 263 754 263 754 295 780 c 0,10,11
 417.099 870.493 417.099 870.493 421 890 c 0,12,13
 423 900 423 900 431 946 c 24,14,15
 445.16 1003.83 445.16 1003.83 507 976 c 24,16,17
 553.156 955.23 553.156 955.23 551 892 c 128,-1,18
 548.891 828.735 548.891 828.735 501 800 c 0,19,20
 475 794.546 475 794.546 475 526 c 0,21,22
 475 473.2 475 473.2 499 454 c 0,23,24
 516.067 440.346 516.067 440.346 545 488 c 0,25,26
 627.14 574.479 627.14 574.479 721 690 c 0,27,28
 747 722 747 722 845 928 c 24,29,30
 875.019 990.754 875.019 990.754 999 1014 c 0,31,32
 1043.08 1022.26 1043.08 1022.26 1013 946 c 0,33,34
 955 802 955 802 945 424 c 24,35,36
 934.519 86.017 934.519 86.017 791 22 c 17,37,38
 830.558 83.1346 830.558 83.1346 841 198 c 0,39,40
 849.895 304.737 849.895 304.737 841 536 c 0,41,42
 834.928 693.874 834.928 693.874 899 806 c 0,43,44
 911 827 911 827 891 852 c 0,45,46
 880.189 865.514 880.189 865.514 851 848 c 0,47,48
 841 842 841 842 805 770 c 24,49,50
 615.895 455.901 615.895 455.901 457 278 c 24,51,52
 391.428 204.585 391.428 204.585 387 302 c 0,53,54
 381.735 433.622 381.735 433.622 413 616 c 0,55,56
 439 767.667 439 767.667 439 772 c 0,57,58
 431.975 778.512 431.975 778.512 417 786 c 0,59,60
 395.376 795.268 395.376 795.268 377 770 c 4,61,62
 329 704 329 704 179 608 c 24,63,64
 149.771 588.116 149.771 588.116 109 598 c 24,0,1
EndSplineSet
Validated: 33
EndChar

StartChar: pf2
Encoding: 58438 58438 71
Width: 890
VWidth: 0
Flags: W
LayerCount: 2
Fore
SplineSet
81 1354 m 24,0,1
 56.3806 1361.04 56.3806 1361.04 63 1414 c 24,2,3
 67.2963 1448.37 67.2963 1448.37 95 1466 c 24,4,5
 118.926 1481.23 118.926 1481.23 151 1470 c 0,6,7
 221.159 1443.02 221.159 1443.02 251 1446 c 0,8,9
 316.982 1475.99 316.982 1475.99 317 1476 c 0,10,11
 347 1496 347 1496 485 1696 c 24,12,13
 540.299 1776.14 540.299 1776.14 521 1686 c 0,14,15
 363 948 363 948 361 910 c 0,16,17
 357.66 846.536 357.66 846.536 379 838 c 0,18,19
 410.6 825.36 410.6 825.36 431 858 c 0,20,21
 441 874 441 874 685 1104 c 24,22,23
 774.71 1183.74 774.71 1183.74 751 1090 c 0,24,25
 658.766 703.659 658.766 703.659 657 686 c 0,26,27
 651 636 651 636 631 224 c 24,28,29
 622.492 53.9499 622.492 53.9499 525 24 c 17,30,31
 554.267 163.208 554.267 163.208 559 220 c 0,32,33
 571 387.998 571 387.998 571 660 c 0,34,35
 571 782 571 782 621 882 c 0,36,37
 629.191 910.33 629.191 910.33 619 946 c 0,38,39
 615.571 958 615.571 958 585 958 c 0,40,41
 580.298 965.608 580.298 965.608 549 940 c 0,42,43
 527 922 527 922 349 738 c 24,44,45
 273.376 662.556 273.376 662.556 261 734 c 24,46,47
 258.009 751.264 258.009 751.264 305 992 c 24,48,49
 385.323 1369.72 385.323 1369.72 391 1400 c 0,50,51
 398.228 1438.55 398.228 1438.55 371 1458 c 0,52,53
 338.927 1480.91 338.927 1480.91 295 1426 c 0,54,55
 286.696 1416.73 286.696 1416.73 215 1354 c 4,56,57
 183 1326 183 1326 81 1354 c 24,0,1
EndSplineSet
Validated: 33
EndChar

StartChar: pfB
Encoding: 58439 58439 72
Width: 896
VWidth: 0
Flags: W
LayerCount: 2
Fore
SplineSet
119 932 m 24,0,1
 81.1171 918.525 81.1171 918.525 49 974 c 24,2,3
 27.2178 1011.62 27.2178 1011.62 53 1046 c 24,4,5
 89.963 1095.28 89.963 1095.28 127 1078 c 0,6,7
 138.234 1075.11 138.234 1075.11 211 1046 c 0,8,9
 227 1039.6 227 1039.6 271 1044 c 0,10,11
 291 1046 291 1046 447 1134 c 24,12,13
 540.177 1177 540.177 1177 507 1112 c 0,14,15
 405.095 918.381 405.095 918.381 395 878 c 0,16,17
 380.023 815.953 380.023 815.953 397 782 c 0,18,19
 407.539 760.921 407.539 760.921 439 798 c 0,20,21
 497 866 497 866 705 1104 c 24,22,23
 757.414 1159.51 757.414 1159.51 755 1104 c 0,24,25
 741.68 853.844 741.68 853.844 739 750 c 0,26,27
 731 420 731 420 601 198 c 24,28,29
 512.947 44.4936 512.947 44.4936 425 40 c 24,30,31
 309.074 34.0768 309.074 34.0768 327 184 c 24,32,33
 339.918 292.045 339.918 292.045 469 408 c 24,34,35
 514.623 448.984 514.623 448.984 563 396 c 24,36,37
 587.443 369.229 587.443 369.229 553 316 c 24,38,39
 528.556 278.222 528.556 278.222 497 294 c 0,40,41
 495.749 295.752 495.749 295.752 487 322 c 0,42,43
 482.056 336.833 482.056 336.833 457 330 c 0,44,45
 409.727 319.091 409.727 319.091 397 300 c 0,46,47
 385.613 201.419 385.613 201.419 387 182 c 0,48,49
 389.092 152.716 389.092 152.716 455 128 c 0,50,51
 489.286 115.143 489.286 115.143 543 142 c 0,52,53
 585.508 186.518 585.508 186.518 623 274 c 0,54,55
 635 302 635 302 655 582 c 0,56,57
 667 725.93 667 725.93 667 916 c 0,58,59
 667 949 667 949 649 958 c 0,60,61
 631.582 966.709 631.582 966.709 617 950 c 0,62,63
 497 806 497 806 333 654 c 24,64,65
 269.291 594.095 269.291 594.095 287 676 c 0,66,67
 303 754 303 754 341 862 c 24,68,69
 394.979 974.383 394.979 974.383 417 992 c 0,70,71
 432.161 1004.13 432.161 1004.13 403 1026 c 0,72,73
 391.596 1034.55 391.596 1034.55 349 1028 c 0,74,75
 243.157 1013.89 243.157 1013.89 222.079 985.944 c 132,-1,76
 201 958 201 958 119 932 c 24,0,1
EndSplineSet
Validated: 33
EndChar

StartChar: pfB1
Encoding: 58440 58440 73
Width: 1106
VWidth: 0
Flags: W
LayerCount: 2
Fore
SplineSet
135 1540 m 24,0,1
 67.6667 1548.42 67.6667 1548.42 63 1584 c 24,2,3
 58.1707 1620.82 58.1707 1620.82 119 1662 c 24,4,5
 148.238 1681.79 148.238 1681.79 193 1672 c 0,6,7
 260.79 1657.17 260.79 1657.17 279 1664 c 0,8,9
 379 1704 379 1704 509 1934 c 24,10,11
 552.616 2008.11 552.616 2008.11 599 2032 c 24,12,13
 651.641 2059.12 651.641 2059.12 641 2002 c 0,14,15
 497.188 1230.07 497.188 1230.07 495.094 1202.03 c 0,16,17
 490.773 1144.19 490.773 1144.19 503 1134 c 0,18,19
 512.253 1126.54 512.253 1126.54 567 1150 c 0,20,21
 611 1168 611 1168 901 1378 c 24,22,23
 990.634 1437.54 990.634 1437.54 961 1358 c 0,24,25
 877.31 1133.36 877.31 1133.36 879 1108 c 0,26,27
 881 1060 881 1060 943 574 c 24,28,29
 968.823 360.484 968.823 360.484 903 248 c 24,30,31
 806.062 82.3468 806.062 82.3468 627 34 c 24,32,33
 517.461 4.42471 517.461 4.42471 503 140 c 24,34,35
 492.769 235.914 492.769 235.914 595 334 c 24,36,37
 704.211 438.784 704.211 438.784 799 424 c 24,38,39
 832.788 418.731 832.788 418.731 813 300 c 0,40,41
 803.505 243.032 803.505 243.032 763 296 c 0,42,43
 760.189 299.676 760.189 299.676 719 334 c 0,44,45
 703.221 347.149 703.221 347.149 659 326 c 0,46,47
 591.958 295.273 591.958 295.273 569 210 c 0,48,49
 549.847 138.86 549.847 138.86 641 114 c 0,50,51
 707 96 707 96 753 138 c 0,52,53
 813.18 190.183 813.18 190.183 891 322 c 0,54,55
 913.193 360.158 913.193 360.158 881 534 c 24,56,-1
 819 952 l 24,57,58
 813.725 1122.91 813.725 1122.91 861 1182 c 0,59,60
 876.396 1201.25 876.396 1201.25 853 1234 c 0,61,62
 836.604 1256.95 836.604 1256.95 795 1234 c 0,63,64
 582.125 1116.55 582.125 1116.55 553 1084 c 0,65,66
 491.076 1032.51 491.076 1032.51 435 954 c 24,67,68
 375 872 375 872 383 1030 c 0,69,70
 386.374 1080.6 386.374 1080.6 439 1142 c 0,71,72
 466.864 1174.51 466.864 1174.51 517 1726 c 0,73,74
 520.12 1760.32 520.12 1760.32 495 1798 c 0,75,76
 476.651 1825.52 476.651 1825.52 455 1796 c 0,77,78
 413 1736 413 1736 327 1640 c 24,79,80
 292.581 1600.24 292.581 1600.24 223 1564 c 24,81,82
 168.806 1535.77 168.806 1535.77 135 1540 c 24,0,1
EndSplineSet
Validated: 33
EndChar

StartChar: pfB2
Encoding: 58441 58441 74
Width: 1052
VWidth: 0
Flags: W
LayerCount: 2
Fore
SplineSet
183 852 m 24,0,1
 116.962 784.426 116.962 784.426 97 798 c 24,2,3
 34.2385 840.678 34.2385 840.678 33 954 c 24,4,5
 31.7838 1065.28 31.7838 1065.28 93 1164 c 24,6,7
 153.907 1262.22 153.907 1262.22 255 1312 c 24,8,9
 302.319 1335.3 302.319 1335.3 357 1294 c 24,10,11
 435.839 1234.45 435.839 1234.45 443 1170 c 0,12,13
 449 1112 449 1112 413 1006 c 24,14,15
 372.024 880.602 372.024 880.602 379 862 c 0,16,17
 387.636 836.091 387.636 836.091 415 840 c 0,18,19
 418.541 839.312 418.541 839.312 443 876 c 0,20,21
 455 894 455 894 645 1218 c 24,22,23
 709.597 1327.81 709.597 1327.81 771 1360 c 24,24,25
 840.492 1396.43 840.492 1396.43 851 1326 c 0,26,27
 917.349 842.039 917.349 842.039 913 642 c 0,28,29
 905 274 905 274 607 62 c 24,30,31
 490.922 -20.2182 490.922 -20.2182 425 42 c 24,32,33
 372.787 91.28 372.787 91.28 429 230 c 24,34,35
 457.615 300.615 457.615 300.615 549 348 c 24,36,37
 615.74 382.606 615.74 382.606 645 342 c 24,38,39
 677.747 296.555 677.747 296.555 647 212 c 24,40,41
 623.656 147.803 623.656 147.803 597 210 c 0,42,43
 589.8 226.8 589.8 226.8 581 262 c 0,44,45
 576.647 279.412 576.647 279.412 539 270 c 0,46,47
 500.297 260.324 500.297 260.324 481 230 c 0,48,49
 466.802 183.862 466.802 183.862 481 146 c 0,50,51
 506.35 78.4 506.35 78.4 565 106 c 0,52,53
 697 166 697 166 753 248 c 0,54,55
 773.586 279.599 773.586 279.599 813 458 c 0,56,57
 827 524 827 524 815 1072 c 0,58,59
 815 1109.6 815 1109.6 757 1214 c 0,60,61
 745.2 1235.24 745.2 1235.24 719 1230 c 0,62,63
 701.881 1226.58 701.881 1226.58 685 1196 c 0,64,65
 559 956 559 956 397 752 c 24,66,67
 290.063 645.848 290.063 645.848 309 750 c 0,68,69
 339 920 339 920 341 932 c 0,70,71
 334.322 987.253 334.322 987.253 355 1132 c 0,72,73
 330.47 1123.55 330.47 1123.55 275 1216 c 0,74,75
 263 1236 263 1236 217 1222 c 0,76,77
 182.724 1213.31 182.724 1213.31 137 1150 c 0,78,79
 109.301 1088.88 109.301 1088.88 97 1012 c 0,80,81
 79.4599 902.374 79.4599 902.374 127 882 c 0,82,83
 141 876 141 876 183 886 c 24,84,85
 214.126 891.69 214.126 891.69 183 852 c 24,0,1
EndSplineSet
Validated: 33
EndChar

StartChar: pfMlsmd3
Encoding: 58442 58442 75
Width: 1956
VWidth: 0
Flags: W
LayerCount: 2
Fore
SplineSet
1409 1442 m 0,0,1
 1485 1458 1485 1458 1457 1420 c 24,2,3
 1415.54 1365.56 1415.54 1365.56 1341 1372 c 24,4,5
 1278.59 1377.39 1278.59 1377.39 1295 1434 c 24,6,7
 1335.03 1572.1 1335.03 1572.1 1421 1648 c 24,8,9
 1453.08 1676.32 1453.08 1676.32 1551 1660 c 0,10,11
 1575 1656 1575 1656 1563 1684 c 24,12,13
 1552.04 1711.46 1552.04 1711.46 1545 1718 c 24,14,15
 1525.62 1736 1525.62 1736 1507 1736 c 0,16,17
 1497 1736 1497 1736 1447 1710 c 24,18,19
 1405.11 1690.31 1405.11 1690.31 1373 1716 c 24,20,21
 1354.64 1730.69 1354.64 1730.69 1387 1758 c 24,22,23
 1455 1815.38 1455 1815.38 1501 1824 c 0,24,25
 1533 1830 1533 1830 1555 1826 c 24,26,27
 1595.62 1820.5 1595.62 1820.5 1563 1864 c 0,28,29
 1557 1872 1557 1872 1535 1888 c 24,30,31
 1488.04 1933.33 1488.04 1933.33 1505 1982 c 24,32,33
 1539.98 2082.39 1539.98 2082.39 1627 2152 c 24,34,35
 1664.29 2181.83 1664.29 2181.83 1665 2110 c 0,36,37
 1665 1908 1665 1908 1665 1872 c 24,38,39
 1663.31 1837.45 1663.31 1837.45 1701 1836 c 0,40,41
 1755 1834 1755 1834 1815 1856 c 24,42,43
 1884.98 1849.65 1884.98 1849.65 1815 1814 c 0,44,45
 1709 1760 1709 1760 1677 1772 c 24,46,47
 1641.93 1783.86 1641.93 1783.86 1637 1708 c 0,48,49
 1630.34 1602.85 1630.34 1602.85 1663 1494 c 0,50,51
 1675 1454 1675 1454 1741 1450 c 24,52,53
 1783.07 1446.8 1783.07 1446.8 1745 1416 c 24,54,55
 1657.18 1344.97 1657.18 1344.97 1605 1340 c 24,56,57
 1572.62 1336.91 1572.62 1336.91 1577 1400 c 0,58,59
 1587 1540 1587 1540 1583 1566 c 24,60,61
 1581.33 1583.35 1581.33 1583.35 1515 1586 c 28,62,63
 1435.05 1588.69 1435.05 1588.69 1405 1572 c 24,64,65
 1369.57 1552.32 1369.57 1552.32 1371 1506 c 24,66,67
 1373.23 1433.53 1373.23 1433.53 1409 1442 c 0,0,1
581 1344 m 24,68,69
 569.52 1345.53 569.52 1345.53 565 1396 c 24,70,71
 565.608 1469.52 565.608 1469.52 569 1478 c 0,72,73
 573 1488 573 1488 539 1492 c 24,74,75
 519.677 1495.18 519.677 1495.18 547 1520 c 24,76,77
 585.443 1552.04 585.443 1552.04 623 1562 c 24,78,79
 650.847 1569.39 650.847 1569.39 645 1546 c 0,80,81
 633.865 1501.46 633.865 1501.46 647 1500 c 0,82,83
 686.665 1509.45 686.665 1509.45 695 1514 c 0,84,85
 704.024 1514.39 704.024 1514.39 787 1604 c 24,86,87
 837 1658 837 1658 911 1622 c 0,88,89
 934.262 1610.21 934.262 1610.21 947 1572 c 0,90,91
 953.125 1553.62 953.125 1553.62 985 1560 c 0,92,93
 1019 1566 1019 1566 1111 1596 c 24,94,95
 1197.5 1617.82 1197.5 1617.82 1177 1576 c 0,96,97
 1126.01 1471.98 1126.01 1471.98 1135 1454 c 0,98,99
 1145 1432 1145 1432 1181 1434 c 24,100,101
 1236.86 1431.69 1236.86 1431.69 1177 1398 c 24,102,103
 1067.81 1356.12 1067.81 1356.12 1071 1388 c 0,104,105
 1074.78 1427.73 1074.78 1427.73 1067 1490 c 0,106,107
 1063.17 1520.67 1063.17 1520.67 1049 1532 c 0,108,109
 1023.47 1550.24 1023.47 1550.24 979 1528 c 0,110,111
 933 1506 933 1506 897 1440 c 24,112,-1
 867 1374 l 24,113,114
 835.181 1356.44 835.181 1356.44 839 1408 c 0,115,116
 844.29 1479.42 844.29 1479.42 841 1486 c 0,117,118
 834.143 1502 834.143 1502 799 1502 c 0,119,120
 728.333 1502 728.333 1502 683 1468 c 0,121,122
 665 1454 665 1454 655 1384 c 24,123,124
 647.087 1335.19 647.087 1335.19 581 1344 c 24,68,69
169 1702 m 24,125,126
 100.236 1706.91 100.236 1706.91 75 1730 c 24,127,128
 60.3921 1743.36 60.3921 1743.36 75 1788 c 24,129,130
 87.6181 1826.56 87.6181 1826.56 111 1840 c 24,131,132
 127.698 1849.6 127.698 1849.6 155 1834 c 0,133,134
 211 1802 211 1802 240 1804 c 0,135,136
 265.17 1805.74 265.17 1805.74 313 1844 c 0,137,138
 325 1854 325 1854 463 2042 c 24,139,140
 568.106 2117.12 568.106 2117.12 555 2050 c 0,141,142
 403.605 1232.89 403.605 1232.89 403 1222 c 0,143,144
 399.584 1129.77 399.584 1129.77 439 1114 c 0,145,146
 462.2 1104.72 462.2 1104.72 511 1134 c 0,147,148
 531 1146 531 1146 751 1308 c 24,149,150
 843.058 1375.05 843.058 1375.05 829 1288 c 0,151,152
 768.747 928.711 768.747 928.711 727 570 c 0,153,154
 673 106 673 106 555 76 c 17,155,156
 622.149 155.516 622.149 155.516 641 410 c 0,157,158
 645 466 645 466 673 966 c 24,159,160
 677.831 1050.08 677.831 1050.08 717 1148 c 0,161,162
 725.667 1169.67 725.667 1169.67 693 1186 c 0,163,164
 682.846 1191.08 682.846 1191.08 659 1172 c 0,165,166
 567 1094 567 1094 413 998 c 24,167,168
 320.593 939.256 320.593 939.256 307 1048 c 0,169,170
 301 1096 301 1096 351 1242 c 0,171,172
 361.515 1276.61 361.515 1276.61 381 1566 c 0,173,174
 400.371 1685 400.371 1685 431 1720 c 0,175,176
 450.378 1741.8 450.378 1741.8 433 1820 c 0,177,178
 428.185 1841.67 428.185 1841.67 397 1836 c 0,179,180
 354.266 1828.23 354.266 1828.23 335 1806 c 0,181,182
 309 1776 309 1776 215 1720 c 24,183,184
 184.147 1700.92 184.147 1700.92 169 1702 c 24,125,126
EndSplineSet
Validated: 1057
EndChar

StartChar: pfM
Encoding: 58443 58443 76
Width: 966
VWidth: 0
Flags: W
LayerCount: 2
Fore
SplineSet
169 1702 m 24,0,1
 100.236 1706.91 100.236 1706.91 75 1730 c 24,2,3
 60.3921 1743.36 60.3921 1743.36 75 1788 c 24,4,5
 87.6181 1826.56 87.6181 1826.56 111 1840 c 24,6,7
 127.698 1849.6 127.698 1849.6 155 1834 c 0,8,9
 211 1802 211 1802 240 1804 c 0,10,11
 265.17 1805.74 265.17 1805.74 313 1844 c 0,12,13
 325 1854 325 1854 463 2042 c 24,14,15
 568.106 2117.12 568.106 2117.12 555 2050 c 0,16,17
 403.605 1232.89 403.605 1232.89 403 1222 c 0,18,19
 399.584 1129.77 399.584 1129.77 439 1114 c 0,20,21
 462.2 1104.72 462.2 1104.72 511 1134 c 0,22,23
 531 1146 531 1146 751 1308 c 24,24,25
 843.058 1375.05 843.058 1375.05 829 1288 c 0,26,27
 768.747 928.711 768.747 928.711 727 570 c 0,28,29
 673 106 673 106 555 76 c 17,30,31
 622.149 155.516 622.149 155.516 641 410 c 0,32,33
 645 466 645 466 673 966 c 24,34,35
 677.831 1050.08 677.831 1050.08 717 1148 c 0,36,37
 725.667 1169.67 725.667 1169.67 693 1186 c 0,38,39
 682.846 1191.08 682.846 1191.08 659 1172 c 0,40,41
 567 1094 567 1094 413 998 c 24,42,43
 320.593 939.256 320.593 939.256 307 1048 c 0,44,45
 301 1096 301 1096 351 1242 c 0,46,47
 361.515 1276.61 361.515 1276.61 381 1566 c 0,48,49
 400.371 1685 400.371 1685 431 1720 c 0,50,51
 450.378 1741.8 450.378 1741.8 433 1820 c 0,52,53
 428.185 1841.67 428.185 1841.67 397 1836 c 0,54,55
 354.266 1828.23 354.266 1828.23 335 1806 c 0,56,57
 309 1776 309 1776 215 1720 c 24,58,59
 184.147 1700.92 184.147 1700.92 169 1702 c 24,0,1
EndSplineSet
Validated: 33
EndChar

StartChar: pfS
Encoding: 58444 58444 77
Width: 972
VWidth: 0
Flags: W
LayerCount: 2
Fore
SplineSet
143 464 m 24,0,1
 107.238 425.874 107.238 425.874 77 496 c 24,2,3
 25.7908 614.762 25.7908 614.762 49 682 c 24,4,5
 101.102 832.941 101.102 832.941 213 890 c 24,6,7
 317.447 943.259 317.447 943.259 402 862 c 0,8,9
 467 799.533 467 799.533 467 744 c 0,10,11
 467 700.066 467 700.066 497 696 c 0,12,13
 498.841 695.751 498.841 695.751 541 722 c 0,14,15
 551.177 728.336 551.177 728.336 703 924 c 24,16,17
 760.685 998.342 760.685 998.342 793 912 c 0,18,19
 852.997 751.695 852.997 751.695 831 582 c 24,20,21
 800.507 346.767 800.507 346.767 681 48 c 17,22,23
 757.97 387.689 757.97 387.689 763 412 c 0,24,25
 775 470 775 470 757 682 c 0,26,27
 752.86 729.539 752.86 729.539 715 806 c 0,28,29
 707.881 820.378 707.881 820.378 679 808 c 24,30,31
 662.662 800.998 662.662 800.998 645 776 c 0,32,33
 438.85 445.835 438.85 445.835 403.925 414.917 c 0,34,35
 347.167 390.184 347.167 390.184 381 468 c 0,36,37
 421 560 421 560 425 598 c 24,38,39
 432.973 657.336 432.973 657.336 399 724 c 24,40,41
 369.475 781.937 369.475 781.937 319 806 c 24,42,43
 283.945 822.712 283.945 822.712 227 806 c 24,44,45
 165.445 787.935 165.445 787.935 135 752 c 24,46,47
 101.03 711.905 101.03 711.905 105 662 c 24,48,49
 91.5635 652.582 91.5635 652.582 149 576 c 0,50,51
 170.652 547.13 170.652 547.13 185 550 c 0,52,53
 225 558 225 558 143 464 c 24,0,1
EndSplineSet
Validated: 33
EndChar

StartChar: pfT
Encoding: 58445 58445 78
Width: 1522
VWidth: 0
Flags: W
LayerCount: 2
Fore
SplineSet
137 792 m 24,0,1
 88.1072 793.798 88.1072 793.798 39 856 c 24,2,3
 21.744 877.858 21.744 877.858 47 906 c 24,4,5
 81.7589 944.731 81.7589 944.731 109 934 c 0,6,7
 181.949 905.263 181.949 905.263 211 906 c 0,8,9
 285.611 907.894 285.611 907.894 349 950 c 0,10,11
 360.286 960.506 360.286 960.506 581 1154 c 24,12,13
 661.142 1224.26 661.142 1224.26 659 1130 c 0,14,15
 657 1040 657 1040 617 816 c 24,16,17
 604.875 749.375 604.875 749.375 563 674 c 0,18,19
 537.737 628.526 537.737 628.526 555 594 c 0,20,21
 562.533 578.934 562.533 578.934 599 576 c 0,22,23
 620.074 574.305 620.074 574.305 665 626 c 0,24,25
 826.428 803.354 826.428 803.354 850.611 835.6 c 4,26,27
 858.611 845.6 858.611 845.6 1009 1072 c 24,28,29
 1069.83 1162.13 1069.83 1162.13 1101 1174 c 24,30,31
 1163.74 1197.9 1163.74 1197.9 1177 1136 c 24,32,33
 1228.25 896.816 1228.25 896.816 1179 810 c 0,34,35
 1125.9 716.404 1125.9 716.404 1125 714 c 0,36,37
 1049.29 511.758 1049.29 511.758 1045 270 c 24,38,39
 1043.72 197.773 1043.72 197.773 1115 150 c 24,40,41
 1163.81 117.284 1163.81 117.284 1233 144 c 24,42,43
 1288.96 165.608 1288.96 165.608 1317 228 c 24,44,45
 1333.74 265.243 1333.74 265.243 1313 322 c 24,46,-1
 1241 436 l 24,47,48
 1216.31 493.173 1216.31 493.173 1237 498 c 0,49,50
 1305.06 511.174 1305.06 511.174 1323 490 c 24,51,52
 1392.43 408.031 1392.43 408.031 1381 328 c 24,53,54
 1356.76 158.31 1356.76 158.31 1267 98 c 24,55,56
 1128.51 4.94915 1128.51 4.94915 1000 72 c 24,57,58
 902.455 122.893 902.455 122.893 945 266 c 0,59,60
 956 303 956 303 1019 548 c 24,61,62
 1087.26 813.475 1087.26 813.475 1089 826 c 24,63,64
 1099.49 901.756 1099.49 901.756 1083 1010 c 24,65,66
 1079.99 1029.73 1079.99 1029.73 1057 1036 c 24,67,68
 1033.48 1042.42 1033.48 1042.42 1017 1028 c 0,69,70
 997 1012 997 1012 823 730 c 24,71,72
 631.504 491.427 631.504 491.427 537 430 c 24,73,74
 474.163 389.156 474.163 389.156 463 496 c 24,75,76
 456.312 560.009 456.312 560.009 509 698 c 0,77,78
 560.719 833.454 560.719 833.454 561 836 c 24,79,80
 568.586 904.721 568.586 904.721 543 1006 c 24,81,82
 538.259 1024.77 538.259 1024.77 513 1026 c 24,83,84
 474.412 1027.88 474.412 1027.88 461 1010 c 0,85,86
 382.688 894.235 382.688 894.235 311 846 c 24,87,88
 225.886 788.732 225.886 788.732 137 792 c 24,0,1
EndSplineSet
Validated: 33
EndChar

StartChar: pfT1
Encoding: 58446 58446 79
Width: 1102
VWidth: 0
Flags: W
LayerCount: 2
Fore
SplineSet
201 696 m 24,0,1
 160.465 639.747 160.465 639.747 117 628 c 24,2,3
 67.8611 614.719 67.8611 614.719 53 656 c 24,4,5
 41.3529 688.353 41.3529 688.353 81 728 c 0,6,7
 107 754 107 754 93 796 c 0,8,9
 50.9823 871.949 50.9823 871.949 81.9912 960.974 c 128,-1,10
 113 1050 113 1050 283 1136 c 24,11,12
 371.657 1181.77 371.657 1181.77 437 1108 c 0,13,14
 500.305 1036.53 500.305 1036.53 485 960 c 0,15,16
 472.6 898 472.6 898 515 898 c 0,17,18
 525 898 525 898 539 946 c 24,19,20
 584.387 1053.09 584.387 1053.09 753 1194 c 24,21,22
 812.445 1243.68 812.445 1243.68 819 1180 c 0,23,24
 831.287 1058.89 831.287 1058.89 825 864 c 0,25,26
 821.926 762.546 821.926 762.546 749 562 c 0,27,28
 687.032 424.55 687.032 424.55 686 385 c 0,29,30
 683 270 683 270 727 160 c 0,31,32
 749.646 106.865 749.646 106.865 841 116 c 0,33,34
 869.108 118.811 869.108 118.811 903 164 c 0,35,36
 914.077 178.769 914.077 178.769 895 236 c 0,37,38
 885 266 885 266 787 406 c 24,39,40
 769.643 432.06 769.643 432.06 789 464 c 24,41,42
 800.157 482.409 800.157 482.409 827 472 c 24,43,44
 867.532 456.284 867.532 456.284 887 426 c 0,45,46
 955 314 955 314 963 282 c 24,47,48
 978.115 131.981 978.115 131.981 849 60 c 24,49,50
 710.414 -17.2579 710.414 -17.2579 615 88 c 24,51,52
 540.095 170.633 540.095 170.633 597 338 c 0,53,54
 639.015 403.752 639.015 403.752 713 594 c 0,55,56
 750.046 689.262 750.046 689.262 733 962 c 0,57,58
 729.969 1013.53 729.969 1013.53 703 1036 c 0,59,60
 685.439 1050.63 685.439 1050.63 655 1024 c 0,61,62
 639 1010 639 1010 597 932 c 24,63,64
 410.434 606 410.434 606 359 606 c 0,65,66
 306.909 606 306.909 606 347 648 c 0,67,68
 407.173 711.038 407.173 711.038 415 758 c 0,69,70
 423.41 799.538 423.41 799.538 407 898 c 0,71,72
 385.957 1024.26 385.957 1024.26 299 1046 c 0,73,74
 224.876 1064.53 224.876 1064.53 191 1040 c 0,75,76
 133 996 133 996 115 926 c 0,77,78
 107.505 900.985 107.505 900.985 133 816 c 0,79,80
 145 776 145 776 215 764 c 24,81,82
 245.275 757.443 245.275 757.443 201 696 c 24,0,1
EndSplineSet
Validated: 33
EndChar

StartChar: pfsun1lsn5
Encoding: 58447 58447 80
Width: 968
VWidth: 0
Flags: W
LayerCount: 2
Fore
SplineSet
355 64 m 24,0,1
 343.622 71.1115 343.622 71.1115 359 86 c 24,2,3
 588.278 307.976 588.278 307.976 669 368 c 24,4,5
 747 426 747 426 723 370 c 0,6,7
 707.825 332.144 707.825 332.144 755 314 c 0,8,9
 781 304 781 304 803 316 c 0,10,11
 854.212 339.438 854.212 339.438 805 292 c 24,12,13
 760.897 257.851 760.897 257.851 673 246 c 24,14,15
 646.209 242.388 646.209 242.388 627 268 c 0,16,17
 616.241 282.345 616.241 282.345 589 266 c 0,18,19
 574.079 264.233 574.079 264.233 557 250 c 0,20,21
 545 240 545 240 375 76 c 24,22,23
 359.151 61.4059 359.151 61.4059 355 64 c 24,0,1
239 558 m 0,24,25
 197 576 197 576 227 602 c 24,26,27
 291.85 658.18 291.85 658.18 317 628 c 0,28,29
 330.091 595.454 330.091 595.454 353 584 c 0,30,31
 387.957 566.522 387.957 566.522 405 586 c 0,32,33
 419 602 419 602 499 638 c 24,34,35
 543.18 654.758 543.18 654.758 513 604 c 0,36,37
 470.112 524.462 470.112 524.462 469 510 c 0,38,39
 467 480 467 480 513 480 c 24,40,41
 566.143 478.767 566.143 478.767 513 448 c 24,42,43
 450.656 411.906 450.656 411.906 399 414 c 24,44,45
 350.98 415.947 350.98 415.947 370.99 451.973 c 0,46,47
 393.552 492.595 393.552 492.595 415 506 c 0,48,49
 431 516 431 516 431 550 c 0,50,51
 431 568 431 568 397 559 c 0,52,53
 337.219 543.176 337.219 543.176 331 536 c 0,54,55
 276.714 467.429 276.714 467.429 235 384 c 0,56,57
 207.1 369.667 207.1 369.667 221 416 c 0,58,59
 221 452 221 452 269 512 c 0,60,61
 288.745 536.681 288.745 536.681 239 558 c 0,24,25
157 1352 m 24,62,63
 111.114 1369.84 111.114 1369.84 89 1412 c 24,64,65
 72.3816 1443.68 72.3816 1443.68 93 1474 c 24,66,67
 112.724 1503.01 112.724 1503.01 157 1512 c 24,68,69
 200.221 1520.78 200.221 1520.78 221 1500 c 0,70,71
 261.625 1459.38 261.625 1459.38 285 1458 c 0,72,73
 328.035 1455.47 328.035 1455.47 353 1484 c 0,74,75
 371 1504 371 1504 445 1602 c 24,76,77
 520.308 1674.46 520.308 1674.46 495 1596 c 0,78,79
 413.101 1325.66 413.101 1325.66 411 1312 c 0,80,81
 404.62 1257.77 404.62 1257.77 431 1254 c 0,82,83
 447.482 1259.01 447.482 1259.01 473 1290 c 0,84,85
 501 1324 501 1324 589 1476 c 24,86,87
 637.315 1559.9 637.315 1559.9 795 1644 c 24,88,89
 832.186 1663.83 832.186 1663.83 829 1604 c 0,90,91
 809 1266 809 1266 777 1090 c 24,92,93
 718.002 777.888 718.002 777.888 629 742 c 17,94,95
 695 843.357 695 843.357 695 988 c 0,96,97
 695 1086 695 1086 701 1342 c 24,98,99
 705.143 1414.71 705.143 1414.71 721 1494 c 0,100,101
 726.333 1520.67 726.333 1520.67 705 1526 c 0,102,103
 689.5 1529.88 689.5 1529.88 663 1510 c 0,104,105
 662.417 1509.56 662.417 1509.56 635 1442 c 0,106,107
 577 1304 577 1304 417 1132 c 24,108,109
 267.325 1010.02 267.325 1010.02 281 1116 c 0,110,111
 295.545 1232.36 295.545 1232.36 331 1282 c 0,112,113
 351 1310 351 1310 359 1382 c 0,114,115
 359 1402 359 1402 342 1408 c 0,116,117
 314.432 1416.33 314.432 1416.33 281 1402 c 0,118,119
 267 1396 267 1396 233 1356 c 24,120,121
 210.146 1331.33 210.146 1331.33 157 1352 c 24,62,63
EndSplineSet
Validated: 33
EndChar

StartChar: pfsun1
Encoding: 58448 58448 81
Width: 968
VWidth: 0
Flags: W
LayerCount: 2
Fore
SplineSet
355 64 m 24,0,1
 343.622 71.1115 343.622 71.1115 359 86 c 24,2,3
 588.278 307.976 588.278 307.976 669 368 c 24,4,5
 747 426 747 426 723 370 c 0,6,7
 707.825 332.144 707.825 332.144 755 314 c 0,8,9
 781 304 781 304 803 316 c 0,10,11
 854.212 339.438 854.212 339.438 805 292 c 24,12,13
 760.897 257.851 760.897 257.851 673 246 c 24,14,15
 646.209 242.388 646.209 242.388 627 268 c 0,16,17
 616.241 282.345 616.241 282.345 589 266 c 0,18,19
 574.079 264.233 574.079 264.233 557 250 c 0,20,21
 545 240 545 240 375 76 c 24,22,23
 359.151 61.4059 359.151 61.4059 355 64 c 24,0,1
157 1352 m 24,24,25
 111.114 1369.84 111.114 1369.84 89 1412 c 24,26,27
 72.3816 1443.68 72.3816 1443.68 93 1474 c 24,28,29
 112.724 1503.01 112.724 1503.01 157 1512 c 24,30,31
 200.221 1520.78 200.221 1520.78 221 1500 c 0,32,33
 261.625 1459.38 261.625 1459.38 285 1458 c 0,34,35
 328.035 1455.47 328.035 1455.47 353 1484 c 0,36,37
 371 1504 371 1504 445 1602 c 24,38,39
 520.308 1674.46 520.308 1674.46 495 1596 c 0,40,41
 413.101 1325.66 413.101 1325.66 411 1312 c 0,42,43
 404.62 1257.77 404.62 1257.77 431 1254 c 0,44,45
 447.482 1259.01 447.482 1259.01 473 1290 c 0,46,47
 501 1324 501 1324 589 1476 c 24,48,49
 637.315 1559.9 637.315 1559.9 795 1644 c 24,50,51
 832.186 1663.83 832.186 1663.83 829 1604 c 0,52,53
 809 1266 809 1266 777 1090 c 24,54,55
 718.002 777.888 718.002 777.888 629 742 c 17,56,57
 695 843.357 695 843.357 695 988 c 0,58,59
 695 1086 695 1086 701 1342 c 24,60,61
 705.143 1414.71 705.143 1414.71 721 1494 c 0,62,63
 726.333 1520.67 726.333 1520.67 705 1526 c 0,64,65
 689.5 1529.88 689.5 1529.88 663 1510 c 0,66,67
 662.417 1509.56 662.417 1509.56 635 1442 c 0,68,69
 577 1304 577 1304 417 1132 c 24,70,71
 267.325 1010.02 267.325 1010.02 281 1116 c 0,72,73
 295.545 1232.36 295.545 1232.36 331 1282 c 0,74,75
 351 1310 351 1310 359 1382 c 0,76,77
 359 1402 359 1402 342 1408 c 0,78,79
 314.432 1416.33 314.432 1416.33 281 1402 c 0,80,81
 267 1396 267 1396 233 1356 c 24,82,83
 210.146 1331.33 210.146 1331.33 157 1352 c 24,24,25
EndSplineSet
Validated: 33
EndChar

StartChar: pfppn1ppq1sun1lsa5
Encoding: 58449 58449 82
Width: 2328
VWidth: 0
Flags: W
LayerCount: 2
Fore
SplineSet
1790 360 m 0,0,1
 1839 367 1839 367 1828 344 c 24,2,3
 1822.08 329.922 1822.08 329.922 1810 326 c 24,4,5
 1706.09 296.299 1706.09 296.299 1710 310 c 0,6,7
 1740 422 1740 422 1824 446 c 0,8,9
 1846.39 452.269 1846.39 452.269 1872 448 c 0,10,11
 1883.94 446.294 1883.94 446.294 1880 466 c 0,12,13
 1878.05 475.744 1878.05 475.744 1860 478 c 0,14,15
 1847 479 1847 479 1822 482 c 24,16,17
 1796.82 485.724 1796.82 485.724 1830 510 c 24,18,19
 1877.32 538.392 1877.32 538.392 1912 536 c 24,20,21
 1939.74 534.087 1939.74 534.087 1946 502 c 0,22,23
 1961.67 421.685 1961.67 421.685 1992 420 c 0,24,25
 2014 419 2014 419 2088 454 c 24,26,27
 2145.4 480.14 2145.4 480.14 2096 430 c 24,28,29
 1973.87 328.492 1973.87 328.492 1934 326 c 0,30,31
 1863.89 323.25 1863.89 323.25 1862 378 c 0,32,33
 1861.24 400.025 1861.24 400.025 1856 414 c 0,34,35
 1850.08 428.8 1850.08 428.8 1822 418 c 0,36,37
 1806 412 1806 412 1784 386 c 24,38,39
 1754.3 354.901 1754.3 354.901 1790 360 c 0,0,1
1564 -258 m 24,40,41
 1548.32 -247.143 1548.32 -247.143 1568 -228 c 24,42,43
 1735.48 -65.1036 1735.48 -65.1036 1856 26 c 24,44,45
 1893.44 54.3026 1893.44 54.3026 1904 26 c 0,46,47
 1929 -40.9999 1929 -40.9999 1946 -58 c 0,48,49
 1958 -70 1958 -70 2000 -70 c 24,50,51
 2017.82 -71.3567 2017.82 -71.3567 1994 -90 c 24,52,53
 1900.57 -135.156 1900.57 -135.156 1880 -128 c 0,54,55
 1834 -109.814 1834 -109.814 1834 -62 c 0,56,57
 1834 -41.6364 1834 -41.6364 1804 -58 c 0,58,59
 1779 -72 1779 -72 1594 -246 c 24,60,61
 1573.75 -264.747 1573.75 -264.747 1564 -258 c 24,40,41
1568 1242 m 24,62,63
 1496.41 1177.18 1496.41 1177.18 1430 1170 c 24,64,65
 1381.5 1164.76 1381.5 1164.76 1420 1226 c 24,66,67
 1475.97 1315.04 1475.97 1315.04 1518 1310 c 0,68,69
 1574.07 1303.27 1574.07 1303.27 1590 1310 c 0,70,71
 1603.85 1315.85 1603.85 1315.85 1632 1344 c 0,72,73
 1636 1348 1636 1348 1758 1558 c 24,74,75
 1811.22 1649.62 1811.22 1649.62 1868 1590 c 0,76,77
 1878.25 1579.24 1878.25 1579.24 1870 1488 c 0,78,79
 1859.54 1372.34 1859.54 1372.34 1834 1168 c 0,80,81
 1828.71 1124.33 1828.71 1124.33 1876 1122 c 0,82,83
 1884.1 1121.6 1884.1 1121.6 1908 1158 c 0,84,85
 1912.19 1161.35 1912.19 1161.35 2110 1453 c 0,86,87
 2188 1568 2188 1568 2190 1446 c 0,88,89
 2193.7 982.725 2193.7 982.725 2038 828 c 17,90,91
 2069 925 2069 925 2070 1008 c 0,92,93
 2074 1025.1 2074 1025.1 2074 1160 c 0,94,95
 2074 1195 2074 1195 2112 1270 c 24,96,97
 2125.41 1293.49 2125.41 1293.49 2088 1314 c 24,98,99
 2066.17 1325.97 2066.17 1325.97 2050 1304 c 0,100,101
 1887.49 1069.49 1887.49 1069.49 1784 966 c 0,102,103
 1732.2 919.679 1732.2 919.679 1748 1014 c 0,104,105
 1783 1223 1783 1223 1784 1240 c 24,106,107
 1804 1372.8 1804 1372.8 1804 1382 c 24,108,109
 1804 1439.86 1804 1439.86 1784 1472 c 24,110,111
 1776.06 1484.76 1776.06 1484.76 1748 1472 c 24,112,113
 1748 1472 1748 1472 1712.5 1407.5 c 128,-1,114
 1677 1343 1677 1343 1568 1242 c 24,62,63
841 670 m 24,115,116
 796.339 628.566 796.339 628.566 783 640 c 24,117,118
 769 652 769 652 781 686 c 0,119,120
 790.411 714.748 790.411 714.748 769 742 c 0,121,122
 754.995 764.531 754.995 764.531 719 766 c 0,123,124
 694.977 768.036 694.977 768.036 661 736 c 25,125,126
 699.571 805.429 699.571 805.429 769 856 c 24,127,128
 805.637 882.686 805.637 882.686 823 854 c 0,129,130
 852.285 803.417 852.285 803.417 865 796 c 0,131,132
 879.526 786.316 879.526 786.316 909 790 c 0,133,134
 916.523 786.442 916.523 786.442 931 816 c 0,135,136
 955 865 955 865 1081 1088 c 24,137,138
 1131.1 1174.07 1131.1 1174.07 1211 1234 c 24,139,140
 1236.26 1252.94 1236.26 1252.94 1249 1214 c 24,141,142
 1268.5 1154.42 1268.5 1154.42 1247 1124 c 24,143,144
 1226.14 1094.49 1226.14 1094.49 1143 1064 c 0,145,146
 1113.75 1051.94 1113.75 1051.94 1107 1048 c 0,147,148
 1089.77 1035.6 1089.77 1035.6 987 842 c 0,149,150
 944 761 944 761 841 670 c 24,115,116
695 602 m 0,151,152
 760.193 624.245 760.193 624.245 729 582 c 24,153,154
 657.26 511.948 657.26 511.948 597 524 c 24,155,156
 560.576 531.285 560.576 531.285 579 612 c 24,157,158
 598.795 698.722 598.795 698.722 639 708 c 25,159,160
 616 689 616 689 641 646 c 0,161,162
 670.379 592.53 670.379 592.53 695 602 c 0,151,152
29 16 m 24,163,164
 17.418 22.6183 17.418 22.6183 27 36 c 24,165,166
 170.79 236.81 170.79 236.81 261 340 c 24,167,168
 293.861 377.589 293.861 377.589 305 354 c 0,169,170
 324.56 312.578 324.56 312.578 345 300 c 0,171,172
 369.333 283.778 369.333 283.778 395 296 c 0,173,174
 416 306 416 306 385 276 c 24,175,176
 328.804 217.466 328.804 217.466 297 212 c 24,177,178
 260.221 205.678 260.221 205.678 257 254 c 0,179,180
 257.964 258.592 257.964 258.592 229 262 c 0,181,182
 213 264 213 264 207 256 c 24,183,-1
 41 28 l 24,184,185
 31.1773 14.7558 31.1773 14.7558 29 16 c 24,163,164
EndSplineSet
Validated: 3105
EndChar

StartChar: po
Encoding: 58450 58450 83
Width: 1082
VWidth: 0
Flags: W
LayerCount: 2
Fore
SplineSet
123 808 m 24,0,1
 90.77 825.387 90.77 825.387 101 862 c 24,2,3
 115.422 913.614 115.422 913.614 161 944 c 24,4,5
 182.273 958.182 182.273 958.182 209 934 c 0,6,7
 248.349 898.398 248.349 898.398 279 890 c 0,8,9
 335.716 874.46 335.716 874.46 381 914 c 0,10,11
 382.175 916.901 382.175 916.901 485 1040 c 0,12,13
 572.215 1144.41 572.215 1144.41 551 1040 c 0,14,15
 524.523 909.692 524.523 909.692 387 498 c 24,16,17
 366.527 403.015 366.527 403.015 379 242 c 24,18,19
 381.42 210.755 381.42 210.755 409 214 c 24,20,21
 429.687 216.434 429.687 216.434 447 250 c 24,22,23
 596.87 540.564 596.87 540.564 605 594 c 0,24,25
 633.576 781.816 633.576 781.816 663 884 c 0,26,27
 668.557 903.299 668.557 903.299 749 1040 c 0,28,29
 831.933 1180.93 831.933 1180.93 875 1224 c 24,30,31
 929 1278 929 1278 943 1234 c 24,32,33
 961.916 1174.55 961.916 1174.55 917 1092 c 24,34,35
 908.532 1076.44 908.532 1076.44 869 1098 c 0,36,37
 845.78 1110.67 845.78 1110.67 839 1108 c 0,38,39
 815.655 1098.82 815.655 1098.82 808.009 1092.02 c 0,40,41
 797.836 1083.87 797.836 1083.87 791 1060 c 0,42,43
 711.877 754.39 711.877 754.39 667 624 c 0,44,45
 660.646 605.646 660.646 605.646 601 466 c 0,46,47
 486.29 195.213 486.29 195.213 393 74 c 24,48,49
 326.585 -12.2943 326.585 -12.2943 307 84 c 0,50,51
 282.079 204.452 282.079 204.452 287 230 c 0,52,53
 360 609 360 609 439 814 c 24,54,55
 450.336 842.896 450.336 842.896 431 860 c 24,56,57
 416.177 873.113 416.177 873.113 387 860 c 24,58,-1
 253 780 l 24,59,60
 195.79 768.731 195.79 768.731 123 808 c 24,0,1
EndSplineSet
Validated: 33
Comment: "porrectus" 
EndChar

StartChar: poB1
Encoding: 58452 58452 84
Width: 1236
VWidth: 0
Flags: W
LayerCount: 2
Fore
SplineSet
881 1390 m 0,0,1
 952.538 1388.61 952.538 1388.61 977 1462 c 24,2,3
 995 1514 995 1514 991 1524 c 4,4,5
 977.433 1567.1 977.433 1567.1 955 1574 c 0,6,7
 908.06 1589.3 908.06 1589.3 891 1562 c 0,8,9
 855 1496 855 1496 847 1464 c 0,10,11
 831.008 1389.99 831.008 1389.99 881 1390 c 0,0,1
115 860 m 24,12,13
 76.0154 893.415 76.0154 893.415 69 932 c 24,14,15
 64.8945 954.58 64.8945 954.58 95 970 c 24,16,17
 131.577 988.735 131.577 988.735 151 974 c 0,18,19
 206.364 932 206.364 932 231 932 c 0,20,21
 249 932 249 932 289 966 c 24,22,-1
 447 1104 l 24,23,24
 505.99 1140.08 505.99 1140.08 495 1092 c 0,25,26
 404.67 680.846 404.67 680.846 389 626 c 0,27,28
 363.945 532.044 363.945 532.044 347 340 c 0,29,30
 342.029 282 342.029 282 375 282 c 0,31,32
 389.035 276.037 389.035 276.037 436.018 329.018 c 0,33,34
 475.592 373.646 475.592 373.646 607 850 c 0,35,36
 699.66 1185.89 699.66 1185.89 681 1268 c 0,37,38
 671 1312 671 1312 683 1340 c 0,39,40
 684.876 1346.15 684.876 1346.15 711 1374 c 0,41,42
 803 1586 803 1586 917 1700 c 24,43,44
 950.273 1735.13 950.273 1735.13 1023 1702 c 24,45,46
 1078.45 1676.74 1078.45 1676.74 1097 1618 c 24,47,48
 1110.29 1575.93 1110.29 1575.93 1083 1512 c 24,49,50
 1013 1348 1013 1348 881 1304 c 0,51,52
 808.801 1286.51 808.801 1286.51 793 1282 c 0,53,54
 769.889 1276.22 769.889 1276.22 765 1242 c 0,55,56
 761 1208 761 1208 657 752 c 24,57,58
 579.286 407.339 579.286 407.339 505 292 c 0,59,60
 360.951 70.2409 360.951 70.2409 221 44 c 0,61,62
 179.787 36.2726 179.787 36.2726 199 86 c 0,63,64
 231 174 231 174 245 210 c 0,65,66
 246.522 214.404 246.522 214.404 329 650 c 24,67,68
 368.965 861.982 368.965 861.982 383.982 873.991 c 0,69,70
 407.126 892.498 407.126 892.498 379 930 c 0,71,72
 375.462 934.718 375.462 934.718 351 932 c 0,73,74
 308.135 928.703 308.135 928.703 289 900 c 0,75,76
 261 858 261 858 181 836 c 24,77,78
 151.842 828.421 151.842 828.421 115 860 c 24,12,13
EndSplineSet
Validated: 33
EndChar

StartChar: poBpp2
Encoding: 58453 58453 85
Width: 1532
VWidth: 0
Flags: W
LayerCount: 2
Fore
SplineSet
1151 1148 m 0,0,1
 1166.94 1090.21 1166.94 1090.21 1247 1108 c 0,2,3
 1299.8 1119.31 1299.8 1119.31 1317 1166 c 0,4,5
 1329 1198.57 1329 1198.57 1329 1260 c 0,6,7
 1329 1293.45 1329 1293.45 1251 1336 c 0,8,9
 1223.26 1351.13 1223.26 1351.13 1197 1338 c 4,10,11
 1177 1328 1177 1328 1153 1238 c 24,12,13
 1139.39 1190.09 1139.39 1190.09 1151 1148 c 0,0,1
505 730 m 24,14,15
 414.28 687.027 414.28 687.027 371 696 c 24,16,17
 327.094 705.103 327.094 705.103 341 764 c 24,18,19
 357.098 832.179 357.098 832.179 405 840 c 24,20,21
 503 856 503 856 524 838 c 0,22,23
 555.203 819.455 555.203 819.455 579 842 c 0,24,25
 617 878 617 878 701 1034 c 0,26,27
 718.607 1066.15 718.607 1066.15 757 1238 c 24,28,29
 769.487 1288.45 769.487 1288.45 815 1314 c 24,30,31
 869.779 1344.75 869.779 1344.75 871 1302 c 0,32,33
 873 1092 873 1092 849 816 c 24,34,35
 827.533 581.561 827.533 581.561 761 458 c 0,36,37
 747 432 747 432 785 414 c 0,38,39
 807.048 405.043 807.048 405.043 837 432 c 0,40,41
 904.164 492.768 904.164 492.768 913 534 c 0,42,43
 919 564 919 564 993 878 c 24,44,45
 1062.69 1167.11 1062.69 1167.11 1093 1240 c 24,46,47
 1155.09 1389.32 1155.09 1389.32 1245 1484 c 24,48,49
 1285.6 1526.75 1285.6 1526.75 1319 1478 c 24,50,51
 1395.07 1366.97 1395.07 1366.97 1393 1268 c 24,52,53
 1391.09 1176.71 1391.09 1176.71 1311 1096 c 24,54,55
 1223.68 1008 1223.68 1008 1135 1008 c 0,56,57
 1094 1008 1094 1008 1051 922 c 0,58,59
 1044.25 908.501 1044.25 908.501 1053 856 c 0,60,61
 1061.32 806.073 1061.32 806.073 1009 608 c 0,62,63
 981 502 981 502 747 296 c 24,64,65
 654.589 222.032 654.589 222.032 683 312 c 0,66,67
 710.162 382.781 710.162 382.781 715 436 c 0,68,69
 717 458 717 458 777 846 c 0,70,71
 787.889 922.885 787.889 922.885 779 994 c 0,72,73
 776.368 1015.05 776.368 1015.05 755 1012 c 0,74,75
 731.468 1008.64 731.468 1008.64 717 978 c 0,76,77
 673 878 673 878 599 804 c 24,78,79
 548.353 750.536 548.353 750.536 505 730 c 24,14,15
281 338 m 24,80,81
 216.91 384.145 216.91 384.145 255 444 c 24,82,83
 300.91 516.145 300.91 516.145 365 470 c 24,84,85
 400.91 444.145 400.91 444.145 355 372 c 24,86,87
 316.91 312.145 316.91 312.145 281 338 c 24,80,81
83 8 m 24,88,89
 27.1348 43.981 27.1348 43.981 73 98 c 24,90,91
 117.135 149.981 117.135 149.981 173 114 c 24,92,93
 235.135 73.981 235.135 73.981 191 22 c 24,94,95
 145.135 -32.019 145.135 -32.019 83 8 c 24,88,89
EndSplineSet
Validated: 33
EndChar

StartChar: poB
Encoding: 58451 58451 86
Width: 1253
VWidth: 0
Flags: W
LayerCount: 2
Fore
SplineSet
873.188 912.669 m 0,0,1
 889.131 854.878 889.131 854.878 969.188 872.669 c 0,2,3
 1021.99 883.983 1021.99 883.983 1039.19 930.669 c 0,4,5
 1051.19 963.24 1051.19 963.24 1051.19 1024.67 c 0,6,7
 1051.19 1058.12 1051.19 1058.12 973.188 1100.67 c 0,8,9
 945.449 1115.8 945.449 1115.8 919.188 1102.67 c 0,10,11
 899.188 1092.67 899.188 1092.67 875.188 1002.67 c 24,12,13
 861.576 954.764 861.576 954.764 873.188 912.669 c 0,0,1
227.188 494.669 m 24,14,15
 136.469 451.696 136.469 451.696 93.1885 460.669 c 24,16,17
 49.2822 469.771 49.2822 469.771 63.1885 528.669 c 24,18,19
 79.2861 596.848 79.2861 596.848 127.188 604.669 c 24,20,21
 225.188 620.669 225.188 620.669 246.188 602.669 c 0,22,23
 277.392 584.124 277.392 584.124 301.188 606.669 c 0,24,25
 339.188 642.669 339.188 642.669 423.188 798.669 c 0,26,27
 440.796 830.816 440.796 830.816 479.188 1002.67 c 24,28,29
 491.675 1053.12 491.675 1053.12 537.188 1078.67 c 24,30,31
 591.967 1109.42 591.967 1109.42 593.188 1066.67 c 0,32,33
 595.188 856.669 595.188 856.669 571.188 580.669 c 24,34,35
 549.721 346.229 549.721 346.229 483.188 222.669 c 0,36,37
 469.188 196.669 469.188 196.669 507.188 178.669 c 0,38,39
 529.236 169.712 529.236 169.712 559.188 196.669 c 0,40,41
 626.353 257.437 626.353 257.437 635.188 298.669 c 0,42,43
 641.188 328.669 641.188 328.669 715.188 642.669 c 24,44,45
 784.88 931.783 784.88 931.783 815.188 1004.67 c 24,46,47
 877.281 1153.99 877.281 1153.99 967.188 1248.67 c 24,48,49
 1007.78 1291.42 1007.78 1291.42 1041.19 1242.67 c 24,50,51
 1117.26 1131.64 1117.26 1131.64 1115.19 1032.67 c 24,52,53
 1113.28 941.378 1113.28 941.378 1033.19 860.669 c 24,54,55
 945.865 772.669 945.865 772.669 857.188 772.669 c 0,56,57
 816.188 772.669 816.188 772.669 773.188 686.669 c 0,58,59
 766.438 673.17 766.438 673.17 775.188 620.669 c 0,60,61
 783.51 570.742 783.51 570.742 731.188 372.669 c 0,62,63
 703.188 266.669 703.188 266.669 469.188 60.6689 c 24,64,65
 376.777 -13.2988 376.777 -13.2988 405.188 76.6689 c 0,66,67
 432.351 147.45 432.351 147.45 437.188 200.669 c 0,68,69
 439.188 222.669 439.188 222.669 499.188 610.669 c 0,70,71
 510.078 687.555 510.078 687.555 501.188 758.669 c 0,72,73
 498.557 779.722 498.557 779.722 477.188 776.669 c 0,74,75
 453.656 773.308 453.656 773.308 439.188 742.669 c 0,76,77
 395.188 642.669 395.188 642.669 321.188 568.669 c 24,78,79
 270.542 515.205 270.542 515.205 227.188 494.669 c 24,14,15
EndSplineSet
Validated: 33
Comment: "porrectus liquescent" 
EndChar

StartChar: poBppn1
Encoding: 58454 58454 87
Width: 1936
VWidth: 0
Flags: W
LayerCount: 2
Fore
SplineSet
829 592 m 24,0,1
 742.936 595.047 742.936 595.047 703 644 c 24,2,3
 680.268 671.865 680.268 671.865 705 744 c 24,4,5
 713.91 769.988 713.91 769.988 751 784 c 24,6,7
 778.969 794.566 778.969 794.566 795 778 c 0,8,9
 855.849 710.857 855.849 710.857 903 714 c 0,10,11
 939.345 716.138 939.345 716.138 999 740 c 0,12,13
 1009 744 1009 744 1195 916 c 24,14,15
 1263.05 976.944 1263.05 976.944 1257 904 c 24,16,17
 1251.52 837.927 1251.52 837.927 1159 482 c 24,18,19
 1103.44 268.27 1103.44 268.27 1087 250 c 0,20,21
 1069.64 203.16 1069.64 203.16 1129 218 c 0,22,23
 1132.98 216.095 1132.98 216.095 1165 250 c 0,24,25
 1199 286 1199 286 1409 584 c 0,26,27
 1421 602 1421 602 1473 782 c 24,28,29
 1513.65 919.784 1513.65 919.784 1651 1026 c 24,30,31
 1733.15 1089.53 1733.15 1089.53 1773 1014 c 24,32,33
 1840.27 886.488 1840.27 886.488 1785 772 c 24,34,35
 1756.57 713.116 1756.57 713.116 1577 608 c 24,36,37
 1552.69 593.771 1552.69 593.771 1539 628 c 0,38,39
 1529.69 651.265 1529.69 651.265 1587 670 c 0,40,41
 1664.85 696.947 1664.85 696.947 1703 746 c 0,42,43
 1710.84 756.08 1710.84 756.08 1717 830 c 0,44,45
 1719.86 864.286 1719.86 864.286 1689 890 c 0,46,47
 1662.1 912.418 1662.1 912.418 1627 882 c 0,48,49
 1557.13 818.783 1557.13 818.783 1543 734 c 0,50,51
 1527 638 1527 638 1461 542 c 24,52,53
 1142.98 89.9936 1142.98 89.9936 1023 40 c 0,54,55
 926.208 -0.330313 926.208 -0.330313 969 112 c 0,56,57
 985 154 985 154 1089 486 c 0,58,59
 1106.76 553.84 1106.76 553.84 1165 714 c 0,60,61
 1173 736 1173 736 1141 752 c 0,62,63
 1098.75 773.125 1098.75 773.125 1071 750 c 4,64,65
 1047 730 1047 730 929 636 c 24,66,67
 871.88 590.482 871.88 590.482 829 592 c 24,0,1
63 66 m 24,68,69
 52.479 82.5329 52.479 82.5329 65 98 c 24,70,71
 270.393 351.721 270.393 351.721 369 444 c 24,72,73
 431.249 502.255 431.249 502.255 439 448 c 0,74,75
 445.516 400.215 445.516 400.215 473 388 c 0,76,77
 508.379 372.276 508.379 372.276 547 404 c 0,78,79
 603 448 603 448 573 388 c 24,80,81
 544.197 327.656 544.197 327.656 419 274 c 24,82,83
 373.889 254.667 373.889 254.667 349 292 c 0,84,85
 321.772 292.693 321.772 292.693 295 286 c 0,86,87
 269 280 269 280 235 254 c 24,88,-1
 79 76 l 24,89,90
 65.8105 61.5835 65.8105 61.5835 63 66 c 24,68,69
EndSplineSet
Validated: 33
EndChar

StartChar: poG
Encoding: 58455 58455 88
Width: 1216
VWidth: 0
Flags: W
LayerCount: 2
Fore
SplineSet
769 642 m 24,0,1
 732.076 634.426 732.076 634.426 719 690 c 24,2,3
 708.32 735.39 708.32 735.39 737 778 c 24,4,5
 752.265 800.679 752.265 800.679 789 794 c 24,6,7
 800.846 791.846 800.846 791.846 803 766 c 0,8,9
 805 742 805 742 833 764 c 0,10,11
 837.7 767.4 837.7 767.4 855 802 c 0,12,13
 861 814 861 814 953 1110 c 24,14,15
 981.959 1199.61 981.959 1199.61 1035 1144 c 24,16,17
 1083.3 1093.37 1083.3 1093.37 1077 980 c 24,18,19
 1075.75 957.452 1075.75 957.452 1025 964 c 24,20,21
 1017.71 964.941 1017.71 964.941 1015 988 c 0,22,23
 1010.83 1019.97 1010.83 1019.97 983 990 c 4,24,25
 970 976 970 976 959 958 c 0,26,27
 928.886 902.719 928.886 902.719 891 762 c 0,28,29
 863 658 863 658 769 642 c 24,0,1
123 932 m 24,30,31
 108.714 933.191 108.714 933.191 117 950 c 24,32,33
 282.214 1285.15 282.214 1285.15 333 1358 c 24,34,35
 389.477 1439.01 389.477 1439.01 407 1366 c 0,36,37
 424.76 1292 424.76 1292 451 1292 c 0,38,39
 489.474 1292 489.474 1292 527 1354 c 0,40,41
 577 1438 577 1438 537 1344 c 24,42,43
 503.088 1263.8 503.088 1263.8 429 1216 c 24,44,45
 378.188 1183.22 378.188 1183.22 351 1224 c 0,46,47
 343 1236 343 1236 305 1226 c 0,48,49
 297.252 1230.31 297.252 1230.31 279 1208 c 0,50,51
 261 1186 261 1186 141 948 c 24,52,53
 131.554 931.287 131.554 931.287 123 932 c 24,30,31
59 74 m 24,54,55
 44.7396 81.7784 44.7396 81.7784 59 100 c 24,56,57
 250.876 345.175 250.876 345.175 275 350 c 0,58,59
 285 352 285 352 283 388 c 24,60,61
 282.781 436.299 282.781 436.299 299 452 c 24,62,63
 391.686 541.743 391.686 541.743 409 510 c 0,64,65
 449.182 432 449.182 432 472.091 426 c 0,66,67
 506.793 416.911 506.793 416.911 567 430 c 0,68,69
 615 440 615 440 559 386 c 24,70,71
 504.163 329.484 504.163 329.484 439 336 c 24,72,73
 419 338 419 338 393 360 c 0,74,75
 376.201 373.524 376.201 373.524 331 352 c 24,76,-1
 287 318 l 24,77,-1
 81 88 l 24,78,79
 64.9072 70.7779 64.9072 70.7779 59 74 c 24,54,55
EndSplineSet
Validated: 33
EndChar

StartChar: poMsun1
Encoding: 58457 58457 89
Width: 1320
VWidth: 0
Flags: W
LayerCount: 2
Fore
SplineSet
729 250 m 24,0,1
 708.564 255.677 708.564 255.677 725 282 c 24,2,3
 884.883 538.062 884.883 538.062 985 660 c 24,4,5
 1022.94 706.203 1022.94 706.203 1037 662 c 0,6,7
 1053.21 611.053 1053.21 611.053 1065 606 c 0,8,9
 1081 600 1081 600 1169 614 c 24,10,11
 1208.89 619.676 1208.89 619.676 1181 596 c 24,12,13
 1116.01 540.821 1116.01 540.821 1063 524 c 24,14,15
 1010.67 507.396 1010.67 507.396 973 530 c 0,16,17
 966.462 543.761 966.462 543.761 931 528 c 0,18,19
 913 520 913 520 903 506 c 24,20,-1
 761 272 l 24,21,22
 743.34 246.017 743.34 246.017 729 250 c 24,0,1
123 648 m 24,23,24
 71.8623 663.275 71.8623 663.275 61 706 c 24,25,26
 52.7657 738.388 52.7657 738.388 93 766 c 24,27,28
 126.108 788.721 126.108 788.721 163 776 c 0,29,30
 224.91 754.652 224.91 754.652 245 758 c 0,31,32
 246.687 779.061 246.687 779.061 369 856 c 24,33,34
 495 936 495 936 475 866 c 0,35,36
 428.513 695.154 428.513 695.154 373 462 c 0,37,38
 356.263 339.947 356.263 339.947 337 234 c 0,39,40
 333 212 333 212 359 200 c 0,41,42
 383.667 187.667 383.667 187.667 387 216 c 0,43,44
 393 266 393 266 471 418 c 24,45,46
 599.497 649.061 599.497 649.061 607 678 c 0,47,48
 621 734 621 734 693 1030 c 24,49,50
 724.031 1160.52 724.031 1160.52 845 1332 c 24,51,52
 936.06 1461.08 936.06 1461.08 1057 1546 c 24,53,54
 1117.18 1588.25 1117.18 1588.25 1127 1530 c 24,55,56
 1140.15 1451.98 1140.15 1451.98 1087 1368 c 24,57,58
 1073.11 1346.06 1073.11 1346.06 1027 1372 c 24,59,60
 1017.65 1377.26 1017.65 1377.26 1023 1404 c 0,61,62
 1025.95 1418.73 1025.95 1418.73 1000 1416 c 0,63,64
 973.535 1413.21 973.535 1413.21 937 1380 c 0,65,66
 889 1334 889 1334 799 1088 c 24,67,-1
 705 764 l 24,68,69
 552.769 398.167 552.769 398.167 417 170 c 24,70,71
 367.042 86.0434 367.042 86.0434 273 38 c 24,72,73
 220.147 10.9988 220.147 10.9988 233 76 c 0,74,75
 311.269 450.423 311.269 450.423 315 484 c 0,76,77
 317 502 317 502 327 646 c 24,78,79
 330.637 687.71 330.637 687.71 361 712 c 0,80,81
 378.143 725.714 378.143 725.714 361 760 c 0,82,83
 350.818 780.364 350.818 780.364 333 760 c 4,84,85
 311 734 311 734 215 660 c 24,86,87
 178.613 631.388 178.613 631.388 123 648 c 24,23,24
EndSplineSet
Validated: 33
EndChar

StartChar: poM
Encoding: 58456 58456 90
Width: 1266
VWidth: 0
Flags: W
LayerCount: 2
Fore
SplineSet
123 648 m 24,0,1
 71.8623 663.275 71.8623 663.275 61 706 c 24,2,3
 52.7657 738.388 52.7657 738.388 93 766 c 24,4,5
 126.108 788.721 126.108 788.721 163 776 c 0,6,7
 224.91 754.652 224.91 754.652 245 758 c 0,8,9
 246.687 779.061 246.687 779.061 369 856 c 24,10,11
 495 936 495 936 475 866 c 0,12,13
 428.513 695.154 428.513 695.154 373 462 c 0,14,15
 356.263 339.947 356.263 339.947 337 234 c 0,16,17
 333 212 333 212 359 200 c 0,18,19
 383.667 187.667 383.667 187.667 387 216 c 0,20,21
 393 266 393 266 471 418 c 24,22,23
 599.497 649.061 599.497 649.061 607 678 c 0,24,25
 621 734 621 734 693 1030 c 24,26,27
 724.031 1160.52 724.031 1160.52 845 1332 c 24,28,29
 936.06 1461.08 936.06 1461.08 1057 1546 c 24,30,31
 1117.18 1588.25 1117.18 1588.25 1127 1530 c 24,32,33
 1140.15 1451.98 1140.15 1451.98 1087 1368 c 24,34,35
 1073.11 1346.06 1073.11 1346.06 1027 1372 c 24,36,37
 1017.65 1377.26 1017.65 1377.26 1023 1404 c 0,38,39
 1025.95 1418.73 1025.95 1418.73 1000 1416 c 0,40,41
 973.535 1413.21 973.535 1413.21 937 1380 c 0,42,43
 889 1334 889 1334 799 1088 c 24,44,-1
 705 764 l 24,45,46
 552.769 398.167 552.769 398.167 417 170 c 24,47,48
 367.042 86.0434 367.042 86.0434 273 38 c 24,49,50
 220.147 10.9988 220.147 10.9988 233 76 c 0,51,52
 311.269 450.423 311.269 450.423 315 484 c 0,53,54
 317 502 317 502 327 646 c 24,55,56
 330.637 687.71 330.637 687.71 361 712 c 0,57,58
 378.143 725.714 378.143 725.714 361 760 c 0,59,60
 350.818 780.364 350.818 780.364 333 760 c 0,61,62
 311 734 311 734 215 660 c 24,63,64
 178.613 631.388 178.613 631.388 123 648 c 24,0,1
EndSplineSet
Validated: 33
EndChar

StartChar: polsf2lst3
Encoding: 58458 58458 91
Width: 1550
VWidth: 0
Flags: W
LayerCount: 2
Fore
SplineSet
1263 984 m 24,0,1
 1182.3 937.192 1182.3 937.192 1157 958 c 24,2,3
 1098.9 1005.79 1098.9 1005.79 1139 1086 c 0,4,5
 1149.62 1107.23 1149.62 1107.23 1125 1098 c 0,6,7
 1093.66 1086.25 1093.66 1086.25 1081 1098 c 24,8,9
 1074.35 1104.18 1074.35 1104.18 1097 1124 c 24,10,11
 1145.36 1144.33 1145.36 1144.33 1145 1154 c 0,12,13
 1147 1206 1147 1206 1169 1208 c 0,14,15
 1187.21 1208.17 1187.21 1208.17 1261 1170 c 0,16,17
 1316.78 1139.7 1316.78 1139.7 1407 1152 c 0,18,19
 1447.87 1156.79 1447.87 1156.79 1393 1126 c 0,20,21
 1272.12 1079.53 1272.12 1079.53 1201 1086 c 0,22,23
 1167.35 1089.06 1167.35 1089.06 1185 1042 c 0,24,25
 1191 1026 1191 1026 1257 1016 c 24,26,27
 1283.81 996.067 1283.81 996.067 1263 984 c 24,0,1
697 1248 m 24,28,29
 695.205 1217.91 695.205 1217.91 645 1212 c 24,30,31
 630.153 1210.25 630.153 1210.25 629 1240 c 24,32,33
 620.774 1452.22 620.774 1452.22 635 1470 c 0,34,35
 658.805 1499.76 658.805 1499.76 625 1496 c 0,36,37
 559 1490 559 1490 491 1498 c 24,38,39
 468.369 1500.3 468.369 1500.3 497 1530 c 24,40,41
 533.146 1563.79 533.146 1563.79 583 1584 c 24,42,43
 630.135 1593.3 630.135 1593.3 645 1590 c 0,44,45
 661 1586.8 661 1586.8 661 1616 c 0,46,47
 661 1628 661 1628 659 1692 c 24,48,49
 656.549 1752.19 656.549 1752.19 763 1878 c 24,50,51
 843.077 1972.64 843.077 1972.64 901 1978 c 24,52,53
 967.878 1984.19 967.878 1984.19 979 1898 c 24,54,55
 983.171 1865.68 983.171 1865.68 917 1854 c 24,56,57
 882.352 1847.89 882.352 1847.89 877 1880 c 0,58,59
 871.088 1902.09 871.088 1902.09 841.044 1873.05 c 0,60,61
 807.887 1841.63 807.887 1841.63 771 1774 c 0,62,63
 712.882 1667.45 712.882 1667.45 707 1640 c 0,64,65
 701.574 1614.68 701.574 1614.68 739 1610 c 0,66,67
 739.531 1608.49 739.531 1608.49 801 1588 c 0,68,69
 845 1574 845 1574 875 1578 c 24,70,71
 924.79 1582.65 924.79 1582.65 875 1556 c 24,72,73
 802.372 1526.15 802.372 1526.15 729 1518 c 0,74,75
 710.209 1515.91 710.209 1515.91 713 1488 c 0,76,77
 715 1466 715 1466 753 1392 c 24,78,79
 763.091 1369.48 763.091 1369.48 751 1350 c 24,80,81
 741.042 1340.01 741.042 1340.01 717 1334 c 0,82,83
 701 1330 701 1330 697 1248 c 24,28,29
189 742 m 24,84,85
 118.138 712.542 118.138 712.542 45 776 c 24,86,87
 26.5086 792.044 26.5086 792.044 53 860 c 24,88,89
 63.1526 886.044 63.1526 886.044 91 894 c 24,90,91
 122.103 902.887 122.103 902.887 151 888 c 0,92,93
 171.795 877.288 171.795 877.288 235 854 c 0,94,95
 252.507 847.549 252.507 847.549 301 874 c 0,96,97
 323 886 323 886 443 1006 c 24,98,99
 489.62 1051.88 489.62 1051.88 497 990 c 0,100,101
 504.334 928.51 504.334 928.51 469 788 c 24,102,103
 388.172 466.572 388.172 466.572 341 394 c 0,104,105
 316.161 355.785 316.161 355.785 349 312 c 0,106,107
 365.452 290.063 365.452 290.063 389 310 c 0,108,109
 393.281 313.624 393.281 313.624 431 358 c 0,110,111
 461.579 393.975 461.579 393.975 647 760 c 0,112,113
 683.449 831.951 683.449 831.951 753 1018 c 24,114,115
 848.49 1200.24 848.49 1200.24 931 1302 c 24,116,117
 969.525 1349.51 969.525 1349.51 993 1314 c 24,118,119
 1031.11 1256.35 1031.11 1256.35 1009 1184 c 24,120,121
 1000.86 1157.35 1000.86 1157.35 949 1170 c 24,122,123
 928.682 1174.96 928.682 1174.96 927 1204 c 0,124,125
 924.038 1255.14 924.038 1255.14 893 1206 c 0,126,127
 877.391 1181.29 877.391 1181.29 877 1180 c 0,128,129
 759.874 793.493 759.874 793.493 755 784 c 0,130,131
 544.475 359.123 544.475 359.123 293 80 c 24,132,133
 218.702 -2.46627 218.702 -2.46627 215 110 c 0,134,135
 211.537 212.688 211.537 212.688 253 322 c 0,136,137
 297 438 297 438 371 684 c 0,138,139
 401.127 785.883 401.127 785.883 397 836 c 24,140,141
 394.966 860.7 394.966 860.7 357 854 c 24,142,143
 315.286 846.639 315.286 846.639 295 818 c 0,144,145
 261 770 261 770 189 742 c 24,84,85
EndSplineSet
Validated: 33
EndChar

StartChar: polst2
Encoding: 58459 58459 92
Width: 1218
VWidth: 0
Flags: W
LayerCount: 2
Fore
SplineSet
851 1062 m 24,0,1
 784 1018.85 784 1018.85 733 1040 c 24,2,3
 691.93 1057.03 691.93 1057.03 687 1130 c 24,4,5
 685.128 1157.7 685.128 1157.7 723 1188 c 0,6,7
 730.778 1194.22 730.778 1194.22 717 1208 c 0,8,9
 711.125 1213.88 711.125 1213.88 632.062 1207.94 c 128,-1,10
 553 1202 553 1202 613 1248 c 24,11,12
 707.24 1316.21 707.24 1316.21 805 1310 c 24,13,14
 931 1302 931 1302 959 1270 c 4,15,16
 969.569 1258.83 969.569 1258.83 1075 1278 c 0,17,18
 1105.33 1263.16 1105.33 1263.16 1067 1254 c 0,19,20
 853 1198 853 1198 813 1210 c 0,21,22
 775.021 1222.05 775.021 1222.05 763 1192 c 0,23,24
 752.866 1164.13 752.866 1164.13 791 1126 c 0,25,26
 825.211 1091.79 825.211 1091.79 869 1100 c 0,27,28
 933 1112 933 1112 851 1062 c 24,0,1
157 658 m 24,29,30
 101.656 667.92 101.656 667.92 61 726 c 24,31,32
 50.0654 741.621 50.0654 741.621 73 778 c 24,33,34
 92.8301 809.455 92.8301 809.455 119 818 c 24,35,36
 144.04 826.176 144.04 826.176 171 810 c 0,37,38
 227 776.4 227 776.4 239 774 c 0,39,40
 277.506 768.076 277.506 768.076 311 792 c 0,41,42
 325 802 325 802 487 920 c 24,43,44
 546.59 962.006 546.59 962.006 521 894 c 0,45,46
 373.376 502.056 373.376 502.056 367 474 c 0,47,48
 357 430 357 430 329 216 c 0,49,50
 323.104 169.242 323.104 169.242 365 186 c 0,51,52
 384.229 181.51 384.229 181.51 423 218 c 0,53,54
 508.321 298.302 508.321 298.302 577 470 c 0,55,56
 585 490 585 490 669 712 c 24,57,58
 705.435 805.756 705.435 805.756 849 914 c 24,59,60
 892.2 946.571 892.2 946.571 921 902 c 24,61,62
 953.096 852.327 953.096 852.327 933 784 c 24,63,64
 918.427 734.453 918.427 734.453 871 732 c 24,65,66
 823.06 729.52 823.06 729.52 817 778 c 0,67,68
 817 794.667 817 794.667 777 788 c 0,69,70
 759.737 785.123 759.737 785.123 751 756 c 0,71,72
 736.454 711.039 736.454 711.039 605 430 c 0,73,74
 489 182 489 182 285 36 c 24,75,76
 213.845 -16.2577 213.845 -16.2577 225 86 c 0,77,78
 237 198 237 198 307 462 c 24,79,80
 352.024 629.706 352.024 629.706 399 708 c 0,81,82
 401.866 712.776 401.866 712.776 383 734 c 0,83,84
 364.681 754.609 364.681 754.609 327 732 c 0,85,86
 317 726 317 726 273 688 c 24,87,88
 221.888 646.369 221.888 646.369 157 658 c 24,29,30
EndSplineSet
Validated: 33
EndChar

